<?xml version="1.0" encoding="utf-8"?>
<!-- Generator: Adobe Illustrator 18.1.1, SVG Export Plug-In . SVG Version: 6.00 Build 0)  -->
<svg version="1.1" id="Layer_1" xmlns="http://www.w3.org/2000/svg" xmlns:xlink="http://www.w3.org/1999/xlink" x="0px" y="0px"
	 viewBox="0 0 700 700" enable-background="new 0 0 700 700" xml:space="preserve">
<g>
	<g>
		<circle fill="#F2F2F2" cx="371.1" cy="265.9" r="42.3"/>
	</g>
	<g>
		<path fill="#F2F2F2" d="M392.6,317.1c-0.5-3.7-3.5-6.4-7.1-6.8v-0.1l-24.4-6.7l-0.9-0.2l-24.4-6.6v0.1c-3.3-1.6-7.2-0.8-9.6,2.1
			l-34.5,43.5l12.2,9.7l25.4-32.1l-11,39.9L304.5,411l15.8,4.3l13.5-41.2l0,0l0,0l0,0c1-4,5.1-6.2,9-5.1c3.9,1.1,6.2,5.1,5.1,9.1
			l0,0l0,0l0,0l-9.5,42.2l15.8,4.3l14.1-51.1l11-39.9l5.4,40.6l15.5-2.1L392.6,317.1z"/>
	</g>
	<g>
		<path fill="#253D47" d="M330,389.4c-0.4,1.3-1.6,2-2.8,1.6l-15.3-4.2c-1.2-0.4-2-1.6-1.6-2.8l0,0c0.4-1.2,1.6-2,2.8-1.6l15.3,4.2
			C329.7,387,330.4,388.1,330,389.4L330,389.4z"/>
	</g>
	<g>
		<path fill="#253D47" d="M320.5,335.3c-0.8,0.9-2.2,1-3.3,0.2l-12.1-10.3c-0.9-0.8-1-2.2-0.2-3.3l0,0c0.8-0.9,2.2-1,3.3-0.2
			l12.1,10.3C321.2,332.8,321.3,334.2,320.5,335.3L320.5,335.3z"/>
	</g>
	<g>
		<path fill="#253D47" d="M379,351.4c0.2,1.3,1.4,2.1,2.7,1.9l15.6-2.7c1.3-0.2,2.1-1.4,1.9-2.7l0,0c-0.2-1.3-1.4-2.1-2.7-1.9
			l-15.6,2.7C379.8,348.9,378.8,350.1,379,351.4L379,351.4z"/>
	</g>
	<g>
		<path fill="#253D47" d="M362.5,398.4c-0.3,1.2-1.6,2-2.8,1.6l-15.3-4.2c-1.2-0.3-2-1.6-1.6-2.8l0,0c0.4-1.2,1.6-2,2.8-1.6
			l15.3,4.2C362.1,395.8,362.8,397.1,362.5,398.4L362.5,398.4z"/>
	</g>
	<g>
		<g>
			<path fill="#253D47" d="M290.6,344l-4.8,6c-2.7,3.3-2.6,7.8,0.4,10.1c2.9,2.3,7.4,1.6,10-1.6l4.9-5.9L290.6,344z"/>
		</g>
		<g>
			<path fill="#253D47" d="M295.9,355.8l-0.1,3.7c-0.1,1.5,0.8,2.9,2.2,3c1.4,0.1,2.6-1,2.7-2.6l0.5-7.2L295.9,355.8z"/>
		</g>
	</g>
	<g>
		<g>
			<path fill="#253D47" d="M400.2,374.3l1.2,7.6c0.6,4.2-1.9,8-5.5,8.5c-3.7,0.6-7.1-2.3-7.8-6.5l-1.2-7.6L400.2,374.3z"/>
		</g>
		<g>
			<path fill="#253D47" d="M389.7,381.6l-1.8,3.3c-0.7,1.4-2.2,2-3.5,1.4c-1.2-0.6-1.6-2.2-0.9-3.6l3.3-6.5L389.7,381.6z"/>
		</g>
	</g>
	<g>
		<polygon fill="#FEC777" points="399.9,372.2 400.2,374.3 384.9,376.6 384.5,374.1 		"/>
	</g>
	<g>
		<polygon fill="#FEC777" points="291.9,342.4 290.6,344 302.6,354 304.1,352.1 		"/>
	</g>
	<g>
		<path fill="#253D47" d="M320,416.1c1.2-4.3-1.3-8.8-5.6-9.9c-4.3-1.2-8.8,1.3-9.9,5.6c0,0.2-0.1,0.4-0.1,0.6l15.4,4.2
			C319.9,416.5,320,416.4,320,416.1z"/>
	</g>
	<g>
		<path fill="#253D47" d="M353.7,425.5c1.2-4.3-1.3-8.8-5.6-9.9c-4.3-1.2-8.8,1.3-9.9,5.6c0,0.2-0.1,0.3-0.1,0.6l15.4,4.2
			C353.6,425.8,353.7,425.7,353.7,425.5z"/>
	</g>
	<g>
		
			<rect x="303.6" y="415.2" transform="matrix(-0.9641 -0.2655 0.2655 -0.9641 501.5837 900.1675)" fill="#666666" width="16.1" height="2"/>
	</g>
	<g>
		
			<rect x="303.9" y="414.6" transform="matrix(-0.9641 -0.2655 0.2655 -0.9641 502.5088 898.1061)" fill="#FEC777" width="16.1" height="0.9"/>
	</g>
	<g>
		
			<rect x="337.6" y="423.8" transform="matrix(-0.9641 -0.2655 0.2655 -0.9641 566.3156 925.1715)" fill="#FEC777" width="16.1" height="0.9"/>
	</g>
	<g>
		
			<rect x="337.3" y="424.5" transform="matrix(-0.9641 -0.2654 0.2654 -0.9641 565.3326 927.3971)" fill="#666666" width="16.1" height="2"/>
	</g>
	<g>
		<g>
			<circle fill="#253D47" cx="370.8" cy="267.6" r="36.6"/>
		</g>
	</g>
	<g>
		<path fill="#1B2D33" d="M336.9,281.6c-2.9-6.2-3.9-13.3-2.9-20.2c1-6.9,4-13.4,8.5-18.8c9.1-10.9,24.7-15.5,38.4-11.7
			c6.8,1.9,13.1,5.8,17.7,11c4.7,5.2,8,11.8,9.1,18.7c1.2,6.9,0.4,14.1-2.3,20.5c-2.7,6.4-7.2,12-13,15.8
			c10.7-8.5,15.9-22.9,13.2-35.9c-1.4-6.4-4.4-12.6-8.9-17.4c-4.4-4.8-10.3-8.4-16.7-10c-6.3-1.8-13.1-1.8-19.5,0
			c-6.3,1.8-12.1,5.5-16.6,10.4C335.2,253.7,332.1,268.8,336.9,281.6z"/>
	</g>
	<g>
		<path fill="#253D47" d="M388.4,307.8c0.5-1.6-0.6-3.3-2.2-3.7L338.7,291c-1.6-0.5-3.4,0.5-3.9,2.1l0,0c-0.5,1.6,0.6,3.3,2.2,3.7
			l47.5,13.1C386.2,310.3,387.9,309.4,388.4,307.8L388.4,307.8z"/>
	</g>
	<g>
		<g>
			<path fill="#335763" d="M358.6,262.4c-0.6,2.2-2.8,3.5-5,2.8l0,0c-2.2-0.6-3.5-2.8-2.8-5l4-14.5c0.6-2.2,2.8-3.5,5-2.8l0,0
				c2.2,0.6,3.5,2.8,2.8,5L358.6,262.4z"/>
		</g>
		<g>
			<path fill="#335763" d="M354.7,276.9c-0.6,2.2-2.8,3.5-5,2.8l0,0c-2.2-0.6-3.5-2.8-2.8-5l0.7-2.3c0.6-2.2,2.8-3.5,5-2.8l0,0
				c2.2,0.6,3.5,2.8,2.8,5L354.7,276.9z"/>
		</g>
	</g>
	<g>
		<path fill="#335763" d="M387.8,291.7c-0.5-0.1-1-0.4-1.5-0.7c-1.8-1.4-2.1-4-0.7-5.8c2.6-3.3,4.4-6.9,5.5-11
			c1.6-5.8,1.5-11.9-0.4-17.6c-0.7-2.2,0.5-4.6,2.7-5.2c2.2-0.7,4.5,0.5,5.2,2.7c2.3,7.2,2.5,14.9,0.5,22.3c-1.4,5.1-3.7,9.7-7,13.9
			C391.1,291.7,389.3,292.1,387.8,291.7z"/>
	</g>
	<g>
		<path fill="#253D47" d="M343.7,365.2c-14.8-4.1-23.9-10.5-24-10.6l1.2-1.6c0.2,0.1,20.2,14.2,48.9,13.4v2.1
			C359.9,368.7,351,367.3,343.7,365.2z"/>
	</g>
	<g>
		
			<rect x="338.7" y="298.6" transform="matrix(-0.9643 -0.2647 0.2647 -0.9643 580.0399 737.7603)" fill="#253D47" width="2.1" height="62.3"/>
	</g>
	<g>
		<g>
			
				<rect x="364.9" y="305.9" transform="matrix(-0.9642 -0.2652 0.2652 -0.9642 629.4708 759.1235)" fill="#253D47" width="2.1" height="62.3"/>
		</g>
		<g>
			<path fill="#253D47" d="M365.4,354c-0.3,1.5-2,2.3-3.4,1.9l-29.3-8c-1.5-0.3-2.3-2-2-3.4l8-29.3c0.3-1.5,2-2.3,3.4-1.9l29.3,8
				c1.5,0.3,2.3,2,2,3.4L365.4,354z"/>
		</g>
		<g>
			<path fill="#808080" d="M365.6,343.2c-0.2,0.8-1,1.3-1.9,1l-14.9-4.1c-0.8-0.2-1.3-1-1-1.9l0,0c0.2-0.8,1-1.3,1.9-1l14.9,4.1
				C365.4,341.6,365.9,342.4,365.6,343.2L365.6,343.2z"/>
		</g>
		<g>
			<path fill="#808080" d="M368.8,331.7c-0.2,0.8-1,1.3-1.9,1l-14.9-4.1c-0.8-0.2-1.3-1-1-1.9l0,0c0.2-0.8,1-1.3,1.9-1l14.9,4.1
				C368.5,330,369,331,368.8,331.7L368.8,331.7z"/>
		</g>
		<g>
			<path fill="#808080" d="M367.3,337.5c-0.2,0.8-1,1.3-1.9,1l-14.9-4.1c-0.8-0.2-1.3-1-1-1.9l0,0c0.2-0.8,1-1.3,1.9-1.1l14.9,4.1
				C366.9,335.9,367.4,336.7,367.3,337.5L367.3,337.5z"/>
		</g>
		<g>
			<circle fill="#808080" cx="347.2" cy="323.6" r="1.5"/>
		</g>
		<g>
			<circle fill="#808080" cx="343.3" cy="322.6" r="1.5"/>
		</g>
		<g>
			<circle fill="#808080" cx="346" cy="327.8" r="1.5"/>
		</g>
		<g>
			<circle fill="#808080" cx="342.2" cy="326.8" r="1.5"/>
		</g>
		<g>
			
				<rect x="337.5" y="330.5" transform="matrix(-0.9642 -0.2653 0.2653 -0.9642 580.1207 755.019)" fill="#808080" width="7" height="15.6"/>
		</g>
	</g>
</g>
</svg>
