<?xml version="1.0" encoding="utf-8"?>
<!-- Generator: Adobe Illustrator 18.1.1, SVG Export Plug-In . SVG Version: 6.00 Build 0)  -->
<svg version="1.1" id="Layer_1" xmlns="http://www.w3.org/2000/svg" xmlns:xlink="http://www.w3.org/1999/xlink" x="0px" y="0px"
	 viewBox="0 0 700 700" enable-background="new 0 0 700 700" xml:space="preserve">
<g>
	<g>
		<polygon fill="#00A36B" points="394.7,328.4 361.7,376.7 331.7,344.8 		"/>
		<polygon fill="#056347" points="331.7,344.8 297,403.5 361.7,376.7 		"/>
		<polygon fill="#35AE76" points="361.7,376.7 421.6,364 394.7,328.4 		"/>
		<polygon fill="#06A16B" points="421.6,364 398.2,416 361.7,376.7 		"/>
		<polygon fill="#A2CFA2" points="394.7,328.4 415.3,329.9 421.6,364 		"/>
		<polygon fill="#70BC88" points="331.7,344.8 336.7,301.8 394.7,328.4 		"/>
		<polygon fill="#118263" points="297,403.5 290.4,343.4 331.7,344.8 		"/>
		<polygon fill="#0E694D" points="336.7,301.8 290.4,343.4 331.7,344.8 		"/>
		<polygon fill="#C6E1C7" points="394.7,328.4 380.5,296.4 415.3,329.9 		"/>
		<polygon fill="#35AE76" points="336.7,301.8 380.5,296.4 394.7,328.4 		"/>
		<polygon fill="#02A26C" points="290.4,343.4 292,297 336.7,301.8 		"/>
		<polygon fill="#6EBB84" points="380.5,296.4 336.6,285.4 336.7,301.8 		"/>
		<polygon fill="#118263" points="292,297 336.6,285.4 336.7,301.8 		"/>
		<polygon fill="#54B586" points="290.4,343.4 261.2,384.1 297,403.5 		"/>
		<polygon fill="#056347" points="292,297 254.1,338.9 290.4,343.4 		"/>
		<polygon fill="#02A26C" points="261.2,384.1 254.1,338.9 290.4,343.4 		"/>
		<polygon fill="#35AE76" points="421.6,364 476.3,350.5 415.3,329.9 		"/>
		<polygon fill="#007B56" points="297,403.5 277.4,451.4 361.7,376.7 		"/>
		<polygon fill="#36B08A" points="261.2,384.1 297,403.5 277.4,451.4 		"/>
		<polygon fill="#71BD89" points="361.7,376.7 277.4,451.4 398.2,416 		"/>
		<polygon fill="#0E694D" points="476.3,350.5 398.2,416 421.6,364 		"/>
	</g>
	<g>
		<polygon fill="#00A36B" points="394.7,328.4 361.7,376.7 331.7,344.8 		"/>
		<polygon fill="#056347" points="331.7,344.8 297,403.5 361.7,376.7 		"/>
		<polygon fill="#35AE76" points="361.7,376.7 421.6,364 394.7,328.4 		"/>
		<polygon fill="#06A16B" points="421.6,364 398.2,416 361.7,376.7 		"/>
		<polygon fill="#A2CFA2" points="394.7,328.4 415.3,329.9 421.6,364 		"/>
		<polygon fill="#70BC88" points="331.7,344.8 336.7,301.8 394.7,328.4 		"/>
		<polygon fill="#118263" points="297,403.5 290.4,343.4 331.7,344.8 		"/>
		<polygon fill="#0E694D" points="336.7,301.8 290.4,343.4 331.7,344.8 		"/>
		<polygon fill="#C6E1C7" points="394.7,328.4 380.5,296.4 415.3,329.9 		"/>
		<polygon fill="#35AE76" points="336.7,301.8 380.5,296.4 394.7,328.4 		"/>
		<polygon fill="#02A26C" points="290.4,343.4 292,297 336.7,301.8 		"/>
		<polygon fill="#6EBB84" points="380.5,296.4 336.6,285.4 336.7,301.8 		"/>
		<polygon fill="#118263" points="292,297 336.6,285.4 336.7,301.8 		"/>
		<polygon fill="#54B586" points="290.4,343.4 261.2,384.1 297,403.5 		"/>
		<polygon fill="#056347" points="292,297 254.1,338.9 290.4,343.4 		"/>
		<polygon fill="#02A26C" points="261.2,384.1 254.1,338.9 290.4,343.4 		"/>
		<polygon fill="#35AE76" points="421.6,364 476.3,350.5 415.3,329.9 		"/>
		<polygon fill="#007B56" points="297,403.5 277.4,451.4 361.7,376.7 		"/>
		<polygon fill="#36B08A" points="261.2,384.1 297,403.5 277.4,451.4 		"/>
		<polygon fill="#71BD89" points="361.7,376.7 277.4,451.4 398.2,416 		"/>
		<polygon fill="#0E694D" points="476.3,350.5 398.2,416 421.6,364 		"/>
	</g>
</g>
<g>
	<g>
		<path fill="#F4F3F3" d="M225.2,353.9l73.4-137.4l-3,124.3L225.2,353.9z M297.8,219.5L226.5,353l68.4-12.8L297.8,219.5z"/>
	</g>
	<g>
		<path fill="#F4F3F3" d="M303.6,421.3l-8.8-81.4l61.6,30l-0.4,0.4L303.6,421.3z M295.6,341.1l8.5,78.7l51-49.6L295.6,341.1z"/>
	</g>
	<g>
		<path fill="#F4F3F3" d="M225.4,353.2l0.4-0.1l69.9-13.1l-24.5,123.3L225.4,353.2z M294.8,341l-68.4,12.8L271,460.9L294.8,341z"/>
	</g>
	<g>
		<path fill="#F4F3F3" d="M270.4,463.5l24.9-125.3l8.9,82.5l-0.1,0.1L270.4,463.5z M295.1,342.9l-23.4,117.9l31.8-40.3L295.1,342.9z
			"/>
	</g>
	<g>
		<path fill="#F4F3F3" d="M358.2,435.6l-2.8-66.7l38.7,53.7L358.2,435.6z M356.2,371.2l2.7,63.4l34.1-12.4L356.2,371.2z"/>
	</g>
	<g>
		<path fill="#F4F3F3" d="M303.2,420.7l52.9-51.5l2.8,66.3L303.2,420.7z M355.4,370.8l-50.9,49.5l53.5,14.2L355.4,370.8z"/>
	</g>
	<g>
		<path fill="#F4F3F3" d="M270.1,462.8l33.7-42.7l56,14.9l-1.2,0.4L270.1,462.8z M304,421l-32,40.5l85.1-26.3L304,421z"/>
	</g>
	<g>
		<path fill="#F4F3F3" d="M358,434.9l35.9-13.1l-12,61.2L358,434.9z M393,422.9l-34,12.4l22.6,45.6L393,422.9z"/>
	</g>
	<g>
		<path fill="#F4F3F3" d="M351,462.8l7.4-28.7l24.2,48.9L351,462.8z M358.6,436.1l-6.8,26.4l29,18.5L358.6,436.1z"/>
	</g>
	<g>
		<path fill="#F4F3F3" d="M268.2,462.7l91.5-28.3l-22.9,24.2l-0.1,0L268.2,462.7z M357.3,435.8L274,461.6l62.5-3.8L357.3,435.8z"/>
	</g>
	<g>
		<path fill="#F4F3F3" d="M336,458.4l23.2-24.5l-7.5,29.2L336,458.4z M357.8,436.3L337.3,458l13.9,4.2L357.8,436.3z"/>
	</g>
	<g>
		<path fill="#F4F3F3" d="M358.4,437.1c-1,0.1-1.9-0.6-2.1-1.6c-0.1-1,0.6-1.9,1.7-2.1c1-0.1,1.9,0.6,2.1,1.6
			C360.2,436.1,359.5,437,358.4,437.1z"/>
	</g>
	<g>
		<path fill="#F4F3F3" d="M336.8,460c-1,0.1-1.9-0.6-2.1-1.6c-0.1-1,0.6-1.9,1.7-2.1c1-0.1,1.9,0.6,2.1,1.6
			C338.6,459,337.9,459.9,336.8,460z"/>
	</g>
	<g>
		<path fill="#F4F3F3" d="M351.6,464.5c-1,0.1-1.9-0.6-2.1-1.6c-0.1-1,0.6-1.9,1.7-2.1c1-0.1,1.9,0.6,2.1,1.6
			C353.4,463.4,352.7,464.3,351.6,464.5z"/>
	</g>
	<g>
		<path fill="#F4F3F3" d="M381.9,483.8c-1,0.1-1.9-0.6-2.1-1.6c-0.1-1,0.6-1.9,1.7-2.1c1-0.1,1.9,0.6,2.1,1.6
			C383.7,482.7,383,483.7,381.9,483.8z"/>
	</g>
	<g>
		<path fill="#F4F3F3" d="M393.7,424.2c-1,0.1-1.9-0.6-2.1-1.6c-0.1-1,0.6-1.9,1.7-2.1c1-0.1,1.9,0.6,2.1,1.6
			C395.4,423.1,394.7,424.1,393.7,424.2z"/>
	</g>
	<g>
		<path fill="#F4F3F3" d="M356,371.9c-1,0.1-1.9-0.6-2.1-1.6c-0.1-1,0.6-1.9,1.7-2.1c1-0.1,1.9,0.6,2.1,1.6S357,371.8,356,371.9z"/>
	</g>
	<g>
		<path fill="#F4F3F3" d="M304.1,422.4c-1,0.1-1.9-0.6-2.1-1.6c-0.1-1,0.6-1.9,1.7-2.1c1-0.1,1.9,0.6,2.1,1.6
			C305.9,421.4,305.1,422.3,304.1,422.4z"/>
	</g>
	<g>
		<path fill="#F4F3F3" d="M295.4,342.4c-1,0.1-1.9-0.6-2.1-1.6c-0.1-1,0.6-1.9,1.7-2.1c1-0.1,1.9,0.6,2.1,1.6
			C297.2,341.3,296.4,342.2,295.4,342.4z"/>
	</g>
	<g>
		<path fill="#F4F3F3" d="M271.3,464c-1,0.1-1.9-0.6-2.1-1.6c-0.1-1,0.6-1.9,1.7-2.1c1-0.1,1.9,0.6,2.1,1.6
			C273,462.9,272.3,463.9,271.3,464z"/>
	</g>
	<g>
		<path fill="#F4F3F3" d="M226.1,355.3c-1,0.1-1.9-0.6-2.1-1.6c-0.1-1,0.6-1.9,1.7-2.1c1-0.1,1.9,0.6,2.1,1.6
			C227.8,354.3,227.1,355.2,226.1,355.3z"/>
	</g>
</g>
</svg>
