<?xml version="1.0" encoding="utf-8"?>
<!-- Generator: Adobe Illustrator 18.1.1, SVG Export Plug-In . SVG Version: 6.00 Build 0)  -->
<svg version="1.1" id="Layer_1" xmlns="http://www.w3.org/2000/svg" xmlns:xlink="http://www.w3.org/1999/xlink" x="0px" y="0px"
	 viewBox="0 0 700 700" enable-background="new 0 0 700 700" xml:space="preserve">
<g>
	<path opacity="0.15" fill="#FFFDC0" d="M602.3,358.7c-49-20.1-143.4-33.6-251.8-33.6c-108.4,0-276,12.3-325,32.3
		c49,20.1,216.6,35,325,35C458.9,392.4,553.3,378.8,602.3,358.7z"/>
	<g>
		<path fill="#FFFDC0" d="M408.1,325.8c-61.9,0.7-115.3,14.6-140.2,34.3c25.3,19.1,79,32,140.9,31.3c61.9-0.7,115.3-14.6,140.2-34.3
			C523.7,338,470.1,325.2,408.1,325.8z"/>
		<path fill="#FF7B57" d="M461.2,339.5c-36.2,0.4-67.4,8.5-81.9,20c14.8,11.2,46.2,18.7,82.3,18.3c36.2-0.4,67.4-8.6,81.9-20
			C528.8,346.6,497.4,339.1,461.2,339.5z"/>
		<g>
			<path fill="#C31B33" d="M441.1,304.9c-17.3,0-33.3,5.7-46.2,15.4C405.2,289.9,434,268,468,268c41.1,0,74.7,32.2,77,72.7h-38.8
				C492.5,319.2,468.5,304.9,441.1,304.9z M441.1,415.9c-17.3,0-33.3-5.7-46.2-15.4c10.4,30.4,39.2,52.3,73.1,52.3
				c41.1,0,74.7-32.2,77-72.7l-38.8,0C492.5,401.7,468.5,415.9,441.1,415.9z"/>
			<g opacity="0.1">
				<path d="M506.2,340.7H545c-0.8-13.4-4.9-25.8-11.6-36.5c-7.5-0.4-15.2-0.6-22.9-0.6c-18.2,0-35.9,1-53,3
					C478,311.1,495.4,323.6,506.2,340.7z"/>
				<path d="M533.8,415.9c6.4-10.5,10.4-22.7,11.2-35.7l-38.8,0c-10.5,16.5-27.1,28.7-46.6,33.5c16.4,1.8,33.4,2.8,50.9,2.8
					C518.4,416.5,526.1,416.3,533.8,415.9z"/>
			</g>
			<path fill="#FFFEE6" d="M473.7,396c17.2,3,35.6,4.6,54.7,4.6c60.4,0,113.9-16,146.4-40.5c-32.5-24.5-85.9-40.5-146.4-40.5
				c-19.1,0-37.5,1.6-54.7,4.6L473.7,396z"/>
			<path fill="#E84550" d="M614.3,388.8c24.1-7,44.4-16.9,60.1-28.7c-15.7-11.8-36-21.7-60.1-28.7L614.3,388.8z"/>
			<polygon fill="#C31B33" points="543.9,353.8 543.9,366.6 393.9,360.2 			"/>
			<circle fill="#E84550" cx="574.3" cy="360.1" r="20.9"/>
			<circle fill="#4BB4BF" cx="574.3" cy="360.1" r="12"/>
			<path opacity="0.1" d="M547.4,377.5c-25.6,0-50.3-2-73.7-5.7l0,24.3c17.2,3,35.6,4.6,54.7,4.6c60.4,0,113.9-16,146.4-40.5
				c-0.2-0.1-0.4-0.3-0.5-0.4C636.8,371,593.5,377.5,547.4,377.5z"/>
		</g>
	</g>
</g>
</svg>
