<?xml version="1.0" encoding="utf-8"?>
<!-- Generator: Adobe Illustrator 18.1.1, SVG Export Plug-In . SVG Version: 6.00 Build 0)  -->
<svg version="1.1" id="Layer_2" xmlns="http://www.w3.org/2000/svg" xmlns:xlink="http://www.w3.org/1999/xlink" x="0px" y="0px"
	 viewBox="0 0 500 500" enable-background="new 0 0 500 500" xml:space="preserve">
<g opacity="0.4">
	<g>
		<rect x="71.2" y="103.2" fill="#364870" width="307.7" height="324.5"/>
	</g>
	<g>
		<rect x="71.7" y="103.7" fill="#364870" width="307.7" height="324.5"/>
	</g>
	<g>
		<rect x="72.2" y="104.2" fill="#364870" width="307.7" height="324.5"/>
	</g>
	<g>
		<rect x="72.7" y="104.7" fill="#364870" width="307.7" height="324.5"/>
	</g>
	<g>
		<rect x="73.2" y="105.2" fill="#364870" width="307.7" height="324.5"/>
	</g>
	<g>
		<rect x="73.7" y="105.7" fill="#364870" width="307.7" height="324.5"/>
	</g>
	<g>
		<rect x="74.2" y="106.2" fill="#364870" width="307.7" height="324.5"/>
	</g>
	<g>
		<rect x="74.7" y="106.7" fill="#364870" width="307.7" height="324.5"/>
	</g>
	<g>
		<rect x="75.2" y="107.2" fill="#364870" width="307.7" height="324.5"/>
	</g>
	<g>
		<rect x="75.7" y="107.7" fill="#364870" width="307.7" height="324.5"/>
	</g>
	<g>
		<rect x="76.2" y="108.2" fill="#364870" width="307.7" height="324.5"/>
	</g>
	<g>
		<rect x="76.7" y="108.7" fill="#364870" width="307.7" height="324.5"/>
	</g>
	<g>
		<rect x="77.2" y="109.2" fill="#364870" width="307.7" height="324.5"/>
	</g>
	<g>
		<rect x="77.7" y="109.7" fill="#364870" width="307.7" height="324.5"/>
	</g>
	<g>
		<rect x="78.2" y="110.2" fill="#364870" width="307.7" height="324.5"/>
	</g>
	<g>
		<rect x="78.7" y="110.7" fill="#364870" width="307.7" height="324.5"/>
	</g>
	<g>
		<rect x="79.2" y="111.2" fill="#364870" width="307.7" height="324.5"/>
	</g>
	<g>
		<rect x="79.7" y="111.7" fill="#364870" width="307.7" height="324.5"/>
	</g>
	<g>
		<rect x="80.2" y="112.2" fill="#364870" width="307.7" height="324.5"/>
	</g>
	<g>
		<rect x="80.7" y="112.7" fill="#364870" width="307.7" height="324.5"/>
	</g>
	<g>
		<rect x="81.2" y="113.2" fill="#364870" width="307.7" height="324.5"/>
	</g>
	<g>
		<rect x="81.7" y="113.7" fill="#364870" width="307.7" height="324.5"/>
	</g>
	<g>
		<rect x="82.2" y="114.2" fill="#364870" width="307.7" height="324.5"/>
	</g>
	<g>
		<rect x="82.7" y="114.7" fill="#364870" width="307.7" height="324.5"/>
	</g>
	<g>
		<rect x="83.2" y="115.2" fill="#364870" width="307.7" height="324.5"/>
	</g>
	<g>
		<rect x="83.7" y="115.7" fill="#364870" width="307.7" height="324.5"/>
	</g>
	<g>
		<rect x="84.2" y="116.2" fill="#364870" width="307.7" height="324.5"/>
	</g>
	<g>
		<rect x="84.7" y="116.7" fill="#364870" width="307.7" height="324.5"/>
	</g>
	<g>
		<rect x="85.2" y="117.2" fill="#364870" width="307.7" height="324.5"/>
	</g>
	<g>
		<rect x="85.7" y="117.7" fill="#364870" width="307.7" height="324.5"/>
	</g>
	<g>
		<rect x="86.2" y="118.2" fill="#364870" width="307.7" height="324.5"/>
	</g>
	<g>
		<rect x="86.7" y="118.7" fill="#364870" width="307.7" height="324.5"/>
	</g>
	<g>
		<rect x="87.2" y="119.2" fill="#364870" width="307.7" height="324.5"/>
	</g>
	<g>
		<rect x="87.7" y="119.7" fill="#364870" width="307.7" height="324.5"/>
	</g>
	<g>
		<rect x="88.2" y="120.2" fill="#364870" width="307.7" height="324.5"/>
	</g>
	<g>
		<rect x="88.7" y="120.7" fill="#364870" width="307.7" height="324.5"/>
	</g>
	<g>
		<rect x="89.2" y="121.2" fill="#364870" width="307.7" height="324.5"/>
	</g>
	<g>
		<rect x="89.7" y="121.7" fill="#364870" width="307.7" height="324.5"/>
	</g>
	<g>
		<rect x="90.2" y="122.2" fill="#364870" width="307.7" height="324.5"/>
	</g>
	<g>
		<rect x="90.7" y="122.7" fill="#364870" width="307.7" height="324.5"/>
	</g>
	<g>
		<rect x="91.2" y="123.2" fill="#364870" width="307.7" height="324.5"/>
	</g>
	<g>
		<rect x="91.7" y="123.7" fill="#364870" width="307.7" height="324.5"/>
	</g>
	<g>
		<rect x="92.2" y="124.2" fill="#364870" width="307.7" height="324.5"/>
	</g>
	<g>
		<rect x="92.7" y="124.7" fill="#364870" width="307.7" height="324.5"/>
	</g>
	<g>
		<rect x="93.2" y="125.2" fill="#364870" width="307.7" height="324.5"/>
	</g>
	<g>
		<rect x="93.7" y="125.7" fill="#364870" width="307.7" height="324.5"/>
	</g>
	<g>
		<rect x="94.2" y="126.2" fill="#364870" width="307.7" height="324.5"/>
	</g>
	<g>
		<rect x="94.7" y="126.7" fill="#364870" width="307.7" height="324.5"/>
	</g>
	<g>
		<rect x="95.2" y="127.2" fill="#364870" width="307.7" height="324.5"/>
	</g>
	<g>
		<rect x="95.7" y="127.7" fill="#364870" width="307.7" height="324.5"/>
	</g>
	<g>
		<rect x="96.2" y="128.2" fill="#364870" width="307.7" height="324.5"/>
	</g>
	<g>
		<rect x="96.7" y="128.7" fill="#364870" width="307.7" height="324.5"/>
	</g>
	<g>
		<rect x="97.2" y="129.2" fill="#364870" width="307.7" height="324.5"/>
	</g>
	<g>
		<rect x="97.7" y="129.7" fill="#364870" width="307.7" height="324.5"/>
	</g>
	<g>
		<rect x="98.2" y="130.2" fill="#364870" width="307.7" height="324.5"/>
	</g>
	<g>
		<rect x="98.7" y="130.7" fill="#364870" width="307.7" height="324.5"/>
	</g>
	<g>
		<rect x="99.2" y="131.2" fill="#364870" width="307.7" height="324.5"/>
	</g>
	<g>
		<rect x="99.7" y="131.7" fill="#364870" width="307.7" height="324.5"/>
	</g>
	<g>
		<rect x="100.2" y="132.2" fill="#364870" width="307.7" height="324.5"/>
	</g>
	<g>
		<rect x="100.7" y="132.7" fill="#364870" width="307.7" height="324.5"/>
	</g>
	<g>
		<rect x="101.2" y="133.2" fill="#364870" width="307.7" height="324.5"/>
	</g>
	<g>
		<rect x="101.7" y="133.7" fill="#364870" width="307.7" height="324.5"/>
	</g>
	<g>
		<rect x="102.2" y="134.2" fill="#364870" width="307.7" height="324.5"/>
	</g>
	<g>
		<rect x="102.7" y="134.7" fill="#364870" width="307.7" height="324.5"/>
	</g>
	<g>
		<rect x="103.2" y="135.2" fill="#364870" width="307.7" height="324.5"/>
	</g>
	<g>
		<rect x="103.7" y="135.7" fill="#364870" width="307.7" height="324.5"/>
	</g>
	<g>
		<rect x="104.2" y="136.2" fill="#364870" width="307.7" height="324.5"/>
	</g>
	<g>
		<rect x="104.7" y="136.7" fill="#364870" width="307.7" height="324.5"/>
	</g>
	<g>
		<rect x="105.2" y="137.2" fill="#364870" width="307.7" height="324.5"/>
	</g>
	<g>
		<rect x="105.7" y="137.7" fill="#364870" width="307.7" height="324.5"/>
	</g>
	<g>
		<rect x="106.2" y="138.2" fill="#364870" width="307.7" height="324.5"/>
	</g>
	<g>
		<rect x="106.7" y="138.7" fill="#364870" width="307.7" height="324.5"/>
	</g>
	<g>
		<rect x="107.2" y="139.2" fill="#364870" width="307.7" height="324.5"/>
	</g>
	<g>
		<rect x="107.7" y="139.7" fill="#364870" width="307.7" height="324.5"/>
	</g>
	<g>
		<rect x="108.2" y="140.2" fill="#364870" width="307.7" height="324.5"/>
	</g>
	<g>
		<rect x="108.7" y="140.7" fill="#364870" width="307.7" height="324.5"/>
	</g>
</g>
<g opacity="0.4">
	<g>
		<rect x="73.7" y="430.1" fill="#32445E" width="308.8" height="34.9"/>
	</g>
	<g>
		<rect x="74.2" y="430.6" fill="#32445E" width="308.8" height="34.9"/>
	</g>
	<g>
		<rect x="74.7" y="431.1" fill="#32445E" width="308.8" height="34.9"/>
	</g>
	<g>
		<rect x="75.2" y="431.6" fill="#32445E" width="308.8" height="34.9"/>
	</g>
	<g>
		<rect x="75.7" y="432.1" fill="#32445E" width="308.8" height="34.9"/>
	</g>
	<g>
		<rect x="76.2" y="432.6" fill="#32445E" width="308.8" height="34.9"/>
	</g>
	<g>
		<rect x="76.7" y="433.1" fill="#32445E" width="308.8" height="34.9"/>
	</g>
	<g>
		<rect x="77.2" y="433.6" fill="#32445E" width="308.8" height="34.9"/>
	</g>
	<g>
		<rect x="77.7" y="434.1" fill="#32445E" width="308.8" height="34.9"/>
	</g>
	<g>
		<rect x="78.2" y="434.6" fill="#32445E" width="308.8" height="34.9"/>
	</g>
	<g>
		<rect x="78.7" y="435.1" fill="#32445E" width="308.8" height="34.9"/>
	</g>
	<g>
		<rect x="79.2" y="435.6" fill="#32445E" width="308.8" height="34.9"/>
	</g>
	<g>
		<rect x="79.7" y="436.1" fill="#32445E" width="308.8" height="34.9"/>
	</g>
	<g>
		<rect x="80.2" y="436.6" fill="#32445E" width="308.8" height="34.9"/>
	</g>
	<g>
		<rect x="80.7" y="437.1" fill="#32445E" width="308.8" height="34.9"/>
	</g>
	<g>
		<rect x="81.2" y="437.6" fill="#32445E" width="308.8" height="34.9"/>
	</g>
	<g>
		<rect x="81.7" y="438.1" fill="#32445E" width="308.8" height="34.9"/>
	</g>
	<g>
		<rect x="82.2" y="438.6" fill="#32445E" width="308.8" height="34.9"/>
	</g>
	<g>
		<rect x="82.7" y="439.1" fill="#32445E" width="308.8" height="34.9"/>
	</g>
	<g>
		<rect x="83.2" y="439.6" fill="#32445E" width="308.8" height="34.9"/>
	</g>
	<g>
		<rect x="83.7" y="440.1" fill="#32445E" width="308.8" height="34.9"/>
	</g>
	<g>
		<rect x="84.2" y="440.6" fill="#32445E" width="308.8" height="34.9"/>
	</g>
	<g>
		<rect x="84.7" y="441.1" fill="#32445E" width="308.8" height="34.9"/>
	</g>
	<g>
		<rect x="85.2" y="441.6" fill="#32445E" width="308.8" height="34.9"/>
	</g>
	<g>
		<rect x="85.7" y="442.1" fill="#32445E" width="308.8" height="34.9"/>
	</g>
	<g>
		<rect x="86.2" y="442.6" fill="#32445E" width="308.8" height="34.9"/>
	</g>
	<g>
		<rect x="86.7" y="443.1" fill="#32445E" width="308.8" height="34.9"/>
	</g>
	<g>
		<rect x="87.2" y="443.6" fill="#32445E" width="308.8" height="34.9"/>
	</g>
	<g>
		<rect x="87.7" y="444.1" fill="#32445E" width="308.8" height="34.9"/>
	</g>
	<g>
		<rect x="88.2" y="444.6" fill="#32445E" width="308.8" height="34.9"/>
	</g>
	<g>
		<rect x="88.7" y="445.1" fill="#32445E" width="308.8" height="34.9"/>
	</g>
	<g>
		<rect x="89.2" y="445.6" fill="#32445E" width="308.8" height="34.9"/>
	</g>
	<g>
		<rect x="89.7" y="446.1" fill="#32445E" width="308.8" height="34.9"/>
	</g>
	<g>
		<rect x="90.2" y="446.6" fill="#32445E" width="308.8" height="34.9"/>
	</g>
	<g>
		<rect x="90.7" y="447.1" fill="#32445E" width="308.8" height="34.9"/>
	</g>
	<g>
		<rect x="91.2" y="447.6" fill="#32445E" width="308.8" height="34.9"/>
	</g>
	<g>
		<rect x="91.7" y="448.1" fill="#32445E" width="308.8" height="34.9"/>
	</g>
	<g>
		<rect x="92.2" y="448.6" fill="#32445E" width="308.8" height="34.9"/>
	</g>
	<g>
		<rect x="92.7" y="449.1" fill="#32445E" width="308.8" height="34.9"/>
	</g>
	<g>
		<rect x="93.2" y="449.6" fill="#32445E" width="308.8" height="34.9"/>
	</g>
	<g>
		<rect x="93.7" y="450.1" fill="#32445E" width="308.8" height="34.9"/>
	</g>
	<g>
		<rect x="94.2" y="450.6" fill="#32445E" width="308.8" height="34.9"/>
	</g>
	<g>
		<rect x="94.7" y="451.1" fill="#32445E" width="308.8" height="34.9"/>
	</g>
	<g>
		<rect x="95.2" y="451.6" fill="#32445E" width="308.8" height="34.9"/>
	</g>
	<g>
		<rect x="95.7" y="452.1" fill="#32445E" width="308.8" height="34.9"/>
	</g>
	<g>
		<rect x="96.2" y="452.6" fill="#32445E" width="308.8" height="34.9"/>
	</g>
	<g>
		<rect x="96.7" y="453.1" fill="#32445E" width="308.8" height="34.9"/>
	</g>
	<g>
		<rect x="97.2" y="453.6" fill="#32445E" width="308.8" height="34.9"/>
	</g>
	<g>
		<rect x="97.7" y="454.1" fill="#32445E" width="308.8" height="34.9"/>
	</g>
	<g>
		<rect x="98.2" y="454.6" fill="#32445E" width="308.8" height="34.9"/>
	</g>
	<g>
		<rect x="98.7" y="455.1" fill="#32445E" width="308.8" height="34.9"/>
	</g>
	<g>
		<rect x="99.2" y="455.6" fill="#32445E" width="308.8" height="34.9"/>
	</g>
	<g>
		<rect x="99.7" y="456.1" fill="#32445E" width="308.8" height="34.9"/>
	</g>
	<g>
		<rect x="100.2" y="456.6" fill="#32445E" width="308.8" height="34.9"/>
	</g>
	<g>
		<rect x="100.7" y="457.1" fill="#32445E" width="308.8" height="34.9"/>
	</g>
	<g>
		<rect x="101.2" y="457.6" fill="#32445E" width="308.8" height="34.9"/>
	</g>
	<g>
		<rect x="101.7" y="458.1" fill="#32445E" width="308.8" height="34.9"/>
	</g>
	<g>
		<rect x="102.2" y="458.6" fill="#32445E" width="308.8" height="34.9"/>
	</g>
	<g>
		<rect x="102.7" y="459.1" fill="#32445E" width="308.8" height="34.9"/>
	</g>
	<g>
		<rect x="103.2" y="459.6" fill="#32445E" width="308.8" height="34.9"/>
	</g>
	<g>
		<rect x="103.7" y="460.1" fill="#32445E" width="308.8" height="34.9"/>
	</g>
	<g>
		<rect x="104.2" y="460.6" fill="#32445E" width="308.8" height="34.9"/>
	</g>
	<g>
		<rect x="104.7" y="461.1" fill="#32445E" width="308.8" height="34.9"/>
	</g>
	<g>
		<rect x="105.2" y="461.6" fill="#32445E" width="308.8" height="34.9"/>
	</g>
	<g>
		<rect x="105.7" y="462.1" fill="#32445E" width="308.8" height="34.9"/>
	</g>
	<g>
		<rect x="106.2" y="462.6" fill="#32445E" width="308.8" height="34.9"/>
	</g>
	<g>
		<rect x="106.7" y="463.1" fill="#32445E" width="308.8" height="34.9"/>
	</g>
	<g>
		<rect x="107.2" y="463.6" fill="#32445E" width="308.8" height="34.9"/>
	</g>
	<g>
		<rect x="107.7" y="464.1" fill="#32445E" width="308.8" height="34.9"/>
	</g>
	<g>
		<rect x="108.2" y="464.6" fill="#32445E" width="308.8" height="34.9"/>
	</g>
	<g>
		<rect x="108.7" y="465.1" fill="#32445E" width="308.8" height="34.9"/>
	</g>
</g>
<rect x="108.7" y="465.1" fill="#32445E" width="308.8" height="34.9"/>
<g opacity="0.4">
	<g>
		<text transform="matrix(1 0 0 1 177.3076 397.7109)" fill="#7B87DB" font-family="'MyriadPro-Regular'" font-size="230.1257">jQ</text>
	</g>
	<g>
		<text transform="matrix(1 0 0 1 177.8076 398.2109)" fill="#7B87DB" font-family="'MyriadPro-Regular'" font-size="230.1257">jQ</text>
	</g>
	<g>
		<text transform="matrix(1 0 0 1 178.3076 398.7109)" fill="#7B87DB" font-family="'MyriadPro-Regular'" font-size="230.1257">jQ</text>
	</g>
	<g>
		<text transform="matrix(1 0 0 1 178.8076 399.2109)" fill="#7B87DB" font-family="'MyriadPro-Regular'" font-size="230.1257">jQ</text>
	</g>
	<g>
		<text transform="matrix(1 0 0 1 179.3076 399.7109)" fill="#7B87DB" font-family="'MyriadPro-Regular'" font-size="230.1257">jQ</text>
	</g>
	<g>
		<text transform="matrix(1 0 0 1 179.8076 400.2109)" fill="#7B87DB" font-family="'MyriadPro-Regular'" font-size="230.1257">jQ</text>
	</g>
	<g>
		<text transform="matrix(1 0 0 1 180.3076 400.7109)" fill="#7B87DB" font-family="'MyriadPro-Regular'" font-size="230.1257">jQ</text>
	</g>
	<g>
		<text transform="matrix(1 0 0 1 180.8076 401.2109)" fill="#7B87DB" font-family="'MyriadPro-Regular'" font-size="230.1257">jQ</text>
	</g>
	<g>
		<text transform="matrix(1 0 0 1 181.3076 401.7109)" fill="#7B87DB" font-family="'MyriadPro-Regular'" font-size="230.1257">jQ</text>
	</g>
	<g>
		<text transform="matrix(1 0 0 1 181.8076 402.2109)" fill="#7B87DB" font-family="'MyriadPro-Regular'" font-size="230.1257">jQ</text>
	</g>
	<g>
		<text transform="matrix(1 0 0 1 182.3076 402.7109)" fill="#7B87DB" font-family="'MyriadPro-Regular'" font-size="230.1257">jQ</text>
	</g>
	<g>
		<text transform="matrix(1 0 0 1 182.8076 403.2109)" fill="#7B87DB" font-family="'MyriadPro-Regular'" font-size="230.1257">jQ</text>
	</g>
	<g>
		<text transform="matrix(1 0 0 1 183.3076 403.7109)" fill="#7B87DB" font-family="'MyriadPro-Regular'" font-size="230.1257">jQ</text>
	</g>
	<g>
		<text transform="matrix(1 0 0 1 183.8076 404.2109)" fill="#7B87DB" font-family="'MyriadPro-Regular'" font-size="230.1257">jQ</text>
	</g>
	<g>
		<text transform="matrix(1 0 0 1 184.3076 404.7109)" fill="#7B87DB" font-family="'MyriadPro-Regular'" font-size="230.1257">jQ</text>
	</g>
	<g>
		<text transform="matrix(1 0 0 1 184.8076 405.2109)" fill="#7B87DB" font-family="'MyriadPro-Regular'" font-size="230.1257">jQ</text>
	</g>
	<g>
		<text transform="matrix(1 0 0 1 185.3076 405.7109)" fill="#7B87DB" font-family="'MyriadPro-Regular'" font-size="230.1257">jQ</text>
	</g>
	<g>
		<text transform="matrix(1 0 0 1 185.8076 406.2109)" fill="#7B87DB" font-family="'MyriadPro-Regular'" font-size="230.1257">jQ</text>
	</g>
	<g>
		<text transform="matrix(1 0 0 1 186.3076 406.7109)" fill="#7B87DB" font-family="'MyriadPro-Regular'" font-size="230.1257">jQ</text>
	</g>
	<g>
		<text transform="matrix(1 0 0 1 186.8076 407.2109)" fill="#7B87DB" font-family="'MyriadPro-Regular'" font-size="230.1257">jQ</text>
	</g>
	<g>
		<text transform="matrix(1 0 0 1 187.3076 407.7109)" fill="#7B87DB" font-family="'MyriadPro-Regular'" font-size="230.1257">jQ</text>
	</g>
	<g>
		<text transform="matrix(1 0 0 1 187.8076 408.2109)" fill="#7B87DB" font-family="'MyriadPro-Regular'" font-size="230.1257">jQ</text>
	</g>
	<g>
		<text transform="matrix(1 0 0 1 188.3076 408.7109)" fill="#7B87DB" font-family="'MyriadPro-Regular'" font-size="230.1257">jQ</text>
	</g>
	<g>
		<text transform="matrix(1 0 0 1 188.8076 409.2109)" fill="#7B87DB" font-family="'MyriadPro-Regular'" font-size="230.1257">jQ</text>
	</g>
	<g>
		<text transform="matrix(1 0 0 1 189.3076 409.7109)" fill="#7B87DB" font-family="'MyriadPro-Regular'" font-size="230.1257">jQ</text>
	</g>
	<g>
		<text transform="matrix(1 0 0 1 189.8076 410.2109)" fill="#7B87DB" font-family="'MyriadPro-Regular'" font-size="230.1257">jQ</text>
	</g>
	<g>
		<text transform="matrix(1 0 0 1 190.3076 410.7109)" fill="#7B87DB" font-family="'MyriadPro-Regular'" font-size="230.1257">jQ</text>
	</g>
	<g>
		<text transform="matrix(1 0 0 1 190.8076 411.2109)" fill="#7B87DB" font-family="'MyriadPro-Regular'" font-size="230.1257">jQ</text>
	</g>
	<g>
		<text transform="matrix(1 0 0 1 191.3076 411.7109)" fill="#7B87DB" font-family="'MyriadPro-Regular'" font-size="230.1257">jQ</text>
	</g>
	<g>
		<text transform="matrix(1 0 0 1 191.8076 412.2109)" fill="#7B87DB" font-family="'MyriadPro-Regular'" font-size="230.1257">jQ</text>
	</g>
	<g>
		<text transform="matrix(1 0 0 1 192.3076 412.7109)" fill="#7B87DB" font-family="'MyriadPro-Regular'" font-size="230.1257">jQ</text>
	</g>
</g>
<g>
	<text transform="matrix(1 0 0 1 192.3076 412.7109)" fill="#364870" font-family="'MyriadPro-Regular'" font-size="230.1257">jQ</text>
</g>
</svg>
