<?xml version="1.0" encoding="utf-8"?>
<!-- Generator: Adobe Illustrator 18.1.1, SVG Export Plug-In . SVG Version: 6.00 Build 0)  -->
<svg version="1.1" id="Layer_1" xmlns="http://www.w3.org/2000/svg" xmlns:xlink="http://www.w3.org/1999/xlink" x="0px" y="0px"
	 viewBox="0 0 500 500" enable-background="new 0 0 500 500" xml:space="preserve">
<g opacity="0.4">
	<g>
		<rect x="70" y="103" fill="#EAA063" width="308.9" height="324.7"/>
	</g>
	<g>
		<rect x="70.5" y="103.5" fill="#EAA063" width="308.9" height="324.7"/>
	</g>
	<g>
		<rect x="71" y="104" fill="#EAA063" width="308.9" height="324.7"/>
	</g>
	<g>
		<rect x="71.5" y="104.5" fill="#EAA063" width="308.9" height="324.7"/>
	</g>
	<g>
		<rect x="72" y="105" fill="#EAA063" width="308.9" height="324.7"/>
	</g>
	<g>
		<rect x="72.5" y="105.5" fill="#EAA063" width="308.9" height="324.7"/>
	</g>
	<g>
		<rect x="73" y="106" fill="#EAA063" width="308.9" height="324.7"/>
	</g>
	<g>
		<rect x="73.5" y="106.5" fill="#EAA063" width="308.9" height="324.7"/>
	</g>
	<g>
		<rect x="74" y="107" fill="#EAA063" width="308.9" height="324.7"/>
	</g>
	<g>
		<rect x="74.5" y="107.5" fill="#EAA063" width="308.9" height="324.7"/>
	</g>
	<g>
		<rect x="75" y="108" fill="#EAA063" width="308.9" height="324.7"/>
	</g>
	<g>
		<rect x="75.5" y="108.5" fill="#EAA063" width="308.9" height="324.7"/>
	</g>
	<g>
		<rect x="76" y="109" fill="#EAA063" width="308.9" height="324.7"/>
	</g>
	<g>
		<rect x="76.5" y="109.5" fill="#EAA063" width="308.9" height="324.7"/>
	</g>
	<g>
		<rect x="77" y="110" fill="#EAA063" width="308.9" height="324.7"/>
	</g>
	<g>
		<rect x="77.5" y="110.5" fill="#EAA063" width="308.9" height="324.7"/>
	</g>
	<g>
		<rect x="78" y="111" fill="#EAA063" width="308.9" height="324.7"/>
	</g>
	<g>
		<rect x="78.5" y="111.5" fill="#EAA063" width="308.9" height="324.7"/>
	</g>
	<g>
		<rect x="79" y="112" fill="#EAA063" width="308.9" height="324.7"/>
	</g>
	<g>
		<rect x="79.5" y="112.5" fill="#EAA063" width="308.9" height="324.7"/>
	</g>
	<g>
		<rect x="80" y="113" fill="#EAA063" width="308.9" height="324.7"/>
	</g>
	<g>
		<rect x="80.5" y="113.5" fill="#EAA063" width="308.9" height="324.7"/>
	</g>
	<g>
		<rect x="81" y="114" fill="#EAA063" width="308.9" height="324.7"/>
	</g>
	<g>
		<rect x="81.5" y="114.5" fill="#EAA063" width="308.9" height="324.7"/>
	</g>
	<g>
		<rect x="82" y="115" fill="#EAA063" width="308.9" height="324.7"/>
	</g>
	<g>
		<rect x="82.5" y="115.5" fill="#EAA063" width="308.9" height="324.7"/>
	</g>
	<g>
		<rect x="83" y="116" fill="#EAA063" width="308.9" height="324.7"/>
	</g>
	<g>
		<rect x="83.5" y="116.5" fill="#EAA063" width="308.9" height="324.7"/>
	</g>
	<g>
		<rect x="84" y="117" fill="#EAA063" width="308.9" height="324.7"/>
	</g>
	<g>
		<rect x="84.5" y="117.5" fill="#EAA063" width="308.9" height="324.7"/>
	</g>
	<g>
		<rect x="85" y="118" fill="#EAA063" width="308.9" height="324.7"/>
	</g>
	<g>
		<rect x="85.5" y="118.5" fill="#EAA063" width="308.9" height="324.7"/>
	</g>
	<g>
		<rect x="86" y="119" fill="#EAA063" width="308.9" height="324.7"/>
	</g>
	<g>
		<rect x="86.5" y="119.5" fill="#EAA063" width="308.9" height="324.7"/>
	</g>
	<g>
		<rect x="87" y="120" fill="#EAA063" width="308.9" height="324.7"/>
	</g>
	<g>
		<rect x="87.5" y="120.5" fill="#EAA063" width="308.9" height="324.7"/>
	</g>
	<g>
		<rect x="88" y="121" fill="#EAA063" width="308.9" height="324.7"/>
	</g>
	<g>
		<rect x="88.5" y="121.5" fill="#EAA063" width="308.9" height="324.7"/>
	</g>
	<g>
		<rect x="89" y="122" fill="#EAA063" width="308.9" height="324.7"/>
	</g>
	<g>
		<rect x="89.5" y="122.5" fill="#EAA063" width="308.9" height="324.7"/>
	</g>
	<g>
		<rect x="90" y="123" fill="#EAA063" width="308.9" height="324.7"/>
	</g>
	<g>
		<rect x="90.5" y="123.5" fill="#EAA063" width="308.9" height="324.7"/>
	</g>
	<g>
		<rect x="91" y="124" fill="#EAA063" width="308.9" height="324.7"/>
	</g>
	<g>
		<rect x="91.5" y="124.5" fill="#EAA063" width="308.9" height="324.7"/>
	</g>
	<g>
		<rect x="92" y="125" fill="#EAA063" width="308.9" height="324.7"/>
	</g>
	<g>
		<rect x="92.5" y="125.5" fill="#EAA063" width="308.9" height="324.7"/>
	</g>
	<g>
		<rect x="93" y="126" fill="#EAA063" width="308.9" height="324.7"/>
	</g>
	<g>
		<rect x="93.5" y="126.5" fill="#EAA063" width="308.9" height="324.7"/>
	</g>
	<g>
		<rect x="94" y="127" fill="#EAA063" width="308.9" height="324.7"/>
	</g>
	<g>
		<rect x="94.5" y="127.5" fill="#EAA063" width="308.9" height="324.7"/>
	</g>
	<g>
		<rect x="95" y="128" fill="#EAA063" width="308.9" height="324.7"/>
	</g>
	<g>
		<rect x="95.5" y="128.5" fill="#EAA063" width="308.9" height="324.7"/>
	</g>
	<g>
		<rect x="96" y="129" fill="#EAA063" width="308.9" height="324.7"/>
	</g>
	<g>
		<rect x="96.5" y="129.5" fill="#EAA063" width="308.9" height="324.7"/>
	</g>
	<g>
		<rect x="97" y="130" fill="#EAA063" width="308.9" height="324.7"/>
	</g>
	<g>
		<rect x="97.5" y="130.5" fill="#EAA063" width="308.9" height="324.7"/>
	</g>
	<g>
		<rect x="98" y="131" fill="#EAA063" width="308.9" height="324.7"/>
	</g>
	<g>
		<rect x="98.5" y="131.5" fill="#EAA063" width="308.9" height="324.7"/>
	</g>
	<g>
		<rect x="99" y="132" fill="#EAA063" width="308.9" height="324.7"/>
	</g>
	<g>
		<rect x="99.5" y="132.5" fill="#EAA063" width="308.9" height="324.7"/>
	</g>
	<g>
		<rect x="100" y="133" fill="#EAA063" width="308.9" height="324.7"/>
	</g>
	<g>
		<rect x="100.5" y="133.5" fill="#EAA063" width="308.9" height="324.7"/>
	</g>
	<g>
		<rect x="101" y="134" fill="#EAA063" width="308.9" height="324.7"/>
	</g>
	<g>
		<rect x="101.5" y="134.5" fill="#EAA063" width="308.9" height="324.7"/>
	</g>
	<g>
		<rect x="102" y="135" fill="#EAA063" width="308.9" height="324.7"/>
	</g>
	<g>
		<rect x="102.5" y="135.5" fill="#EAA063" width="308.9" height="324.7"/>
	</g>
	<g>
		<rect x="103" y="136" fill="#EAA063" width="308.9" height="324.7"/>
	</g>
	<g>
		<rect x="103.5" y="136.5" fill="#EAA063" width="308.9" height="324.7"/>
	</g>
	<g>
		<rect x="104" y="137" fill="#EAA063" width="308.9" height="324.7"/>
	</g>
	<g>
		<rect x="104.5" y="137.5" fill="#EAA063" width="308.9" height="324.7"/>
	</g>
	<g>
		<rect x="105" y="138" fill="#EAA063" width="308.9" height="324.7"/>
	</g>
	<g>
		<rect x="105.5" y="138.5" fill="#EAA063" width="308.9" height="324.7"/>
	</g>
	<g>
		<rect x="106" y="139" fill="#EAA063" width="308.9" height="324.7"/>
	</g>
	<g>
		<rect x="106.5" y="139.5" fill="#EAA063" width="308.9" height="324.7"/>
	</g>
	<g>
		<rect x="107" y="140" fill="#EAA063" width="308.9" height="324.7"/>
	</g>
	<g>
		<rect x="107.5" y="140.5" fill="#EAA063" width="308.9" height="324.7"/>
	</g>
</g>
<g opacity="0.4">
	<g>
		<rect x="72.5" y="430.1" fill="#C4743D" width="308.9" height="34.9"/>
	</g>
	<g>
		<rect x="73" y="430.6" fill="#C4743D" width="308.9" height="34.9"/>
	</g>
	<g>
		<rect x="73.5" y="431.1" fill="#C4743D" width="308.9" height="34.9"/>
	</g>
	<g>
		<rect x="74" y="431.6" fill="#C4743D" width="308.9" height="34.9"/>
	</g>
	<g>
		<rect x="74.5" y="432.1" fill="#C4743D" width="308.9" height="34.9"/>
	</g>
	<g>
		<rect x="75" y="432.6" fill="#C4743D" width="308.9" height="34.9"/>
	</g>
	<g>
		<rect x="75.5" y="433.1" fill="#C4743D" width="308.9" height="34.9"/>
	</g>
	<g>
		<rect x="76" y="433.6" fill="#C4743D" width="308.9" height="34.9"/>
	</g>
	<g>
		<rect x="76.5" y="434.1" fill="#C4743D" width="308.9" height="34.9"/>
	</g>
	<g>
		<rect x="77" y="434.6" fill="#C4743D" width="308.9" height="34.9"/>
	</g>
	<g>
		<rect x="77.5" y="435.1" fill="#C4743D" width="308.9" height="34.9"/>
	</g>
	<g>
		<rect x="78" y="435.6" fill="#C4743D" width="308.9" height="34.9"/>
	</g>
	<g>
		<rect x="78.5" y="436.1" fill="#C4743D" width="308.9" height="34.9"/>
	</g>
	<g>
		<rect x="79" y="436.6" fill="#C4743D" width="308.9" height="34.9"/>
	</g>
	<g>
		<rect x="79.5" y="437.1" fill="#C4743D" width="308.9" height="34.9"/>
	</g>
	<g>
		<rect x="80" y="437.6" fill="#C4743D" width="308.9" height="34.9"/>
	</g>
	<g>
		<rect x="80.5" y="438.1" fill="#C4743D" width="308.9" height="34.9"/>
	</g>
	<g>
		<rect x="81" y="438.6" fill="#C4743D" width="308.9" height="34.9"/>
	</g>
	<g>
		<rect x="81.5" y="439.1" fill="#C4743D" width="308.9" height="34.9"/>
	</g>
	<g>
		<rect x="82" y="439.6" fill="#C4743D" width="308.9" height="34.9"/>
	</g>
	<g>
		<rect x="82.5" y="440.1" fill="#C4743D" width="308.9" height="34.9"/>
	</g>
	<g>
		<rect x="83" y="440.6" fill="#C4743D" width="308.9" height="34.9"/>
	</g>
	<g>
		<rect x="83.5" y="441.1" fill="#C4743D" width="308.9" height="34.9"/>
	</g>
	<g>
		<rect x="84" y="441.6" fill="#C4743D" width="308.9" height="34.9"/>
	</g>
	<g>
		<rect x="84.5" y="442.1" fill="#C4743D" width="308.9" height="34.9"/>
	</g>
	<g>
		<rect x="85" y="442.6" fill="#C4743D" width="308.9" height="34.9"/>
	</g>
	<g>
		<rect x="85.5" y="443.1" fill="#C4743D" width="308.9" height="34.9"/>
	</g>
	<g>
		<rect x="86" y="443.6" fill="#C4743D" width="308.9" height="34.9"/>
	</g>
	<g>
		<rect x="86.5" y="444.1" fill="#C4743D" width="308.9" height="34.9"/>
	</g>
	<g>
		<rect x="87" y="444.6" fill="#C4743D" width="308.9" height="34.9"/>
	</g>
	<g>
		<rect x="87.5" y="445.1" fill="#C4743D" width="308.9" height="34.9"/>
	</g>
	<g>
		<rect x="88" y="445.6" fill="#C4743D" width="308.9" height="34.9"/>
	</g>
	<g>
		<rect x="88.5" y="446.1" fill="#C4743D" width="308.9" height="34.9"/>
	</g>
	<g>
		<rect x="89" y="446.6" fill="#C4743D" width="308.9" height="34.9"/>
	</g>
	<g>
		<rect x="89.5" y="447.1" fill="#C4743D" width="308.9" height="34.9"/>
	</g>
	<g>
		<rect x="90" y="447.6" fill="#C4743D" width="308.9" height="34.9"/>
	</g>
	<g>
		<rect x="90.5" y="448.1" fill="#C4743D" width="308.9" height="34.9"/>
	</g>
	<g>
		<rect x="91" y="448.6" fill="#C4743D" width="308.9" height="34.9"/>
	</g>
	<g>
		<rect x="91.5" y="449.1" fill="#C4743D" width="308.9" height="34.9"/>
	</g>
	<g>
		<rect x="92" y="449.6" fill="#C4743D" width="308.9" height="34.9"/>
	</g>
	<g>
		<rect x="92.5" y="450.1" fill="#C4743D" width="308.9" height="34.9"/>
	</g>
	<g>
		<rect x="93" y="450.6" fill="#C4743D" width="308.9" height="34.9"/>
	</g>
	<g>
		<rect x="93.5" y="451.1" fill="#C4743D" width="308.9" height="34.9"/>
	</g>
	<g>
		<rect x="94" y="451.6" fill="#C4743D" width="308.9" height="34.9"/>
	</g>
	<g>
		<rect x="94.5" y="452.1" fill="#C4743D" width="308.9" height="34.9"/>
	</g>
	<g>
		<rect x="95" y="452.6" fill="#C4743D" width="308.9" height="34.9"/>
	</g>
	<g>
		<rect x="95.5" y="453.1" fill="#C4743D" width="308.9" height="34.9"/>
	</g>
	<g>
		<rect x="96" y="453.6" fill="#C4743D" width="308.9" height="34.9"/>
	</g>
	<g>
		<rect x="96.5" y="454.1" fill="#C4743D" width="308.9" height="34.9"/>
	</g>
	<g>
		<rect x="97" y="454.6" fill="#C4743D" width="308.9" height="34.9"/>
	</g>
	<g>
		<rect x="97.5" y="455.1" fill="#C4743D" width="308.9" height="34.9"/>
	</g>
	<g>
		<rect x="98" y="455.6" fill="#C4743D" width="308.9" height="34.9"/>
	</g>
	<g>
		<rect x="98.5" y="456.1" fill="#C4743D" width="308.9" height="34.9"/>
	</g>
	<g>
		<rect x="99" y="456.6" fill="#C4743D" width="308.9" height="34.9"/>
	</g>
	<g>
		<rect x="99.5" y="457.1" fill="#C4743D" width="308.9" height="34.9"/>
	</g>
	<g>
		<rect x="100" y="457.6" fill="#C4743D" width="308.9" height="34.9"/>
	</g>
	<g>
		<rect x="100.5" y="458.1" fill="#C4743D" width="308.9" height="34.9"/>
	</g>
	<g>
		<rect x="101" y="458.6" fill="#C4743D" width="308.9" height="34.9"/>
	</g>
	<g>
		<rect x="101.5" y="459.1" fill="#C4743D" width="308.9" height="34.9"/>
	</g>
	<g>
		<rect x="102" y="459.6" fill="#C4743D" width="308.9" height="34.9"/>
	</g>
	<g>
		<rect x="102.5" y="460.1" fill="#C4743D" width="308.9" height="34.9"/>
	</g>
	<g>
		<rect x="103" y="460.6" fill="#C4743D" width="308.9" height="34.9"/>
	</g>
	<g>
		<rect x="103.5" y="461.1" fill="#C4743D" width="308.9" height="34.9"/>
	</g>
	<g>
		<rect x="104" y="461.6" fill="#C4743D" width="308.9" height="34.9"/>
	</g>
	<g>
		<rect x="104.5" y="462.1" fill="#C4743D" width="308.9" height="34.9"/>
	</g>
	<g>
		<rect x="105" y="462.6" fill="#C4743D" width="308.9" height="34.9"/>
	</g>
	<g>
		<rect x="105.5" y="463.1" fill="#C4743D" width="308.9" height="34.9"/>
	</g>
	<g>
		<rect x="106" y="463.6" fill="#C4743D" width="308.9" height="34.9"/>
	</g>
	<g>
		<rect x="106.5" y="464.1" fill="#C4743D" width="308.9" height="34.9"/>
	</g>
	<g>
		<rect x="107" y="464.6" fill="#C4743D" width="308.9" height="34.9"/>
	</g>
	<g>
		<rect x="107.5" y="465.1" fill="#C4743D" width="308.9" height="34.9"/>
	</g>
</g>
<rect x="107.5" y="465.1" fill="#D1854B" width="308.9" height="34.9"/>
<text transform="matrix(1 0 0 1 211.1154 451.1022)" fill="#B27D59" font-family="'MyriadPro-Regular'" font-size="230.2497">JS</text>
<g opacity="0.4">
	<g>
		<text transform="matrix(1 0 0 1 196.1154 436.1022)" fill="#DDA27A" font-family="'MyriadPro-Regular'" font-size="230.2497">JS</text>
	</g>
	<g>
		<text transform="matrix(1 0 0 1 196.6154 436.6022)" fill="#DDA27A" font-family="'MyriadPro-Regular'" font-size="230.2497">JS</text>
	</g>
	<g>
		<text transform="matrix(1 0 0 1 197.1154 437.1022)" fill="#DDA27A" font-family="'MyriadPro-Regular'" font-size="230.2497">JS</text>
	</g>
	<g>
		<text transform="matrix(1 0 0 1 197.6154 437.6022)" fill="#DDA27A" font-family="'MyriadPro-Regular'" font-size="230.2497">JS</text>
	</g>
	<g>
		<text transform="matrix(1 0 0 1 198.1154 438.1022)" fill="#DDA27A" font-family="'MyriadPro-Regular'" font-size="230.2497">JS</text>
	</g>
	<g>
		<text transform="matrix(1 0 0 1 198.6154 438.6022)" fill="#DDA27A" font-family="'MyriadPro-Regular'" font-size="230.2497">JS</text>
	</g>
	<g>
		<text transform="matrix(1 0 0 1 199.1154 439.1022)" fill="#DDA27A" font-family="'MyriadPro-Regular'" font-size="230.2497">JS</text>
	</g>
	<g>
		<text transform="matrix(1 0 0 1 199.6154 439.6022)" fill="#DDA27A" font-family="'MyriadPro-Regular'" font-size="230.2497">JS</text>
	</g>
	<g>
		<text transform="matrix(1 0 0 1 200.1154 440.1022)" fill="#DDA27A" font-family="'MyriadPro-Regular'" font-size="230.2497">JS</text>
	</g>
	<g>
		<text transform="matrix(1 0 0 1 200.6154 440.6022)" fill="#DDA27A" font-family="'MyriadPro-Regular'" font-size="230.2497">JS</text>
	</g>
	<g>
		<text transform="matrix(1 0 0 1 201.1154 441.1022)" fill="#DDA27A" font-family="'MyriadPro-Regular'" font-size="230.2497">JS</text>
	</g>
	<g>
		<text transform="matrix(1 0 0 1 201.6154 441.6022)" fill="#DDA27A" font-family="'MyriadPro-Regular'" font-size="230.2497">JS</text>
	</g>
	<g>
		<text transform="matrix(1 0 0 1 202.1154 442.1022)" fill="#DDA27A" font-family="'MyriadPro-Regular'" font-size="230.2497">JS</text>
	</g>
	<g>
		<text transform="matrix(1 0 0 1 202.6154 442.6022)" fill="#DDA27A" font-family="'MyriadPro-Regular'" font-size="230.2497">JS</text>
	</g>
	<g>
		<text transform="matrix(1 0 0 1 203.1154 443.1022)" fill="#DDA27A" font-family="'MyriadPro-Regular'" font-size="230.2497">JS</text>
	</g>
	<g>
		<text transform="matrix(1 0 0 1 203.6154 443.6022)" fill="#DDA27A" font-family="'MyriadPro-Regular'" font-size="230.2497">JS</text>
	</g>
	<g>
		<text transform="matrix(1 0 0 1 204.1154 444.1022)" fill="#DDA27A" font-family="'MyriadPro-Regular'" font-size="230.2497">JS</text>
	</g>
	<g>
		<text transform="matrix(1 0 0 1 204.6154 444.6022)" fill="#DDA27A" font-family="'MyriadPro-Regular'" font-size="230.2497">JS</text>
	</g>
	<g>
		<text transform="matrix(1 0 0 1 205.1154 445.1022)" fill="#DDA27A" font-family="'MyriadPro-Regular'" font-size="230.2497">JS</text>
	</g>
	<g>
		<text transform="matrix(1 0 0 1 205.6154 445.6022)" fill="#DDA27A" font-family="'MyriadPro-Regular'" font-size="230.2497">JS</text>
	</g>
	<g>
		<text transform="matrix(1 0 0 1 206.1154 446.1022)" fill="#DDA27A" font-family="'MyriadPro-Regular'" font-size="230.2497">JS</text>
	</g>
	<g>
		<text transform="matrix(1 0 0 1 206.6154 446.6022)" fill="#DDA27A" font-family="'MyriadPro-Regular'" font-size="230.2497">JS</text>
	</g>
	<g>
		<text transform="matrix(1 0 0 1 207.1154 447.1022)" fill="#DDA27A" font-family="'MyriadPro-Regular'" font-size="230.2497">JS</text>
	</g>
	<g>
		<text transform="matrix(1 0 0 1 207.6154 447.6022)" fill="#DDA27A" font-family="'MyriadPro-Regular'" font-size="230.2497">JS</text>
	</g>
	<g>
		<text transform="matrix(1 0 0 1 208.1154 448.1022)" fill="#DDA27A" font-family="'MyriadPro-Regular'" font-size="230.2497">JS</text>
	</g>
	<g>
		<text transform="matrix(1 0 0 1 208.6154 448.6022)" fill="#DDA27A" font-family="'MyriadPro-Regular'" font-size="230.2497">JS</text>
	</g>
	<g>
		<text transform="matrix(1 0 0 1 209.1154 449.1022)" fill="#DDA27A" font-family="'MyriadPro-Regular'" font-size="230.2497">JS</text>
	</g>
	<g>
		<text transform="matrix(1 0 0 1 209.6154 449.6022)" fill="#DDA27A" font-family="'MyriadPro-Regular'" font-size="230.2497">JS</text>
	</g>
	<g>
		<text transform="matrix(1 0 0 1 210.1154 450.1022)" fill="#DDA27A" font-family="'MyriadPro-Regular'" font-size="230.2497">JS</text>
	</g>
	<g>
		<text transform="matrix(1 0 0 1 210.6154 450.6022)" fill="#DDA27A" font-family="'MyriadPro-Regular'" font-size="230.2497">JS</text>
	</g>
	<g>
		<text transform="matrix(1 0 0 1 211.1154 451.1022)" fill="#DDA27A" font-family="'MyriadPro-Regular'" font-size="230.2497">JS</text>
	</g>
</g>
</svg>
