<?xml version="1.0" encoding="utf-8"?>
<!-- Generator: Adobe Illustrator 18.1.1, SVG Export Plug-In . SVG Version: 6.00 Build 0)  -->
<svg version="1.1" id="Layer_3" xmlns="http://www.w3.org/2000/svg" xmlns:xlink="http://www.w3.org/1999/xlink" x="0px" y="0px"
	 viewBox="0 0 500 500" enable-background="new 0 0 500 500" xml:space="preserve">
<g opacity="0.4">
	<g>
		<rect x="71.2" y="100.7" fill="#31A02B" width="307.7" height="326.7"/>
	</g>
	<g>
		<rect x="71.7" y="101.2" fill="#31A02B" width="307.7" height="326.7"/>
	</g>
	<g>
		<rect x="72.2" y="101.7" fill="#31A02B" width="307.7" height="326.7"/>
	</g>
	<g>
		<rect x="72.7" y="102.2" fill="#31A02B" width="307.7" height="326.7"/>
	</g>
	<g>
		<rect x="73.2" y="102.7" fill="#31A02B" width="307.7" height="326.7"/>
	</g>
	<g>
		<rect x="73.7" y="103.2" fill="#31A02B" width="307.7" height="326.7"/>
	</g>
	<g>
		<rect x="74.2" y="103.7" fill="#31A02B" width="307.7" height="326.7"/>
	</g>
	<g>
		<rect x="74.7" y="104.2" fill="#31A02B" width="307.7" height="326.7"/>
	</g>
	<g>
		<rect x="75.2" y="104.7" fill="#31A02B" width="307.7" height="326.7"/>
	</g>
	<g>
		<rect x="75.7" y="105.2" fill="#31A02B" width="307.7" height="326.7"/>
	</g>
	<g>
		<rect x="76.2" y="105.7" fill="#31A02B" width="307.7" height="326.7"/>
	</g>
	<g>
		<rect x="76.7" y="106.2" fill="#31A02B" width="307.7" height="326.7"/>
	</g>
	<g>
		<rect x="77.2" y="106.7" fill="#31A02B" width="307.7" height="326.7"/>
	</g>
	<g>
		<rect x="77.7" y="107.2" fill="#31A02B" width="307.7" height="326.7"/>
	</g>
	<g>
		<rect x="78.2" y="107.7" fill="#31A02B" width="307.7" height="326.7"/>
	</g>
	<g>
		<rect x="78.7" y="108.2" fill="#31A02B" width="307.7" height="326.7"/>
	</g>
	<g>
		<rect x="79.2" y="108.7" fill="#31A02B" width="307.7" height="326.7"/>
	</g>
	<g>
		<rect x="79.7" y="109.2" fill="#31A02B" width="307.7" height="326.7"/>
	</g>
	<g>
		<rect x="80.2" y="109.7" fill="#31A02B" width="307.7" height="326.7"/>
	</g>
	<g>
		<rect x="80.7" y="110.2" fill="#31A02B" width="307.7" height="326.7"/>
	</g>
	<g>
		<rect x="81.2" y="110.7" fill="#31A02B" width="307.7" height="326.7"/>
	</g>
	<g>
		<rect x="81.7" y="111.2" fill="#31A02B" width="307.7" height="326.7"/>
	</g>
	<g>
		<rect x="82.2" y="111.7" fill="#31A02B" width="307.7" height="326.7"/>
	</g>
	<g>
		<rect x="82.7" y="112.2" fill="#31A02B" width="307.7" height="326.7"/>
	</g>
	<g>
		<rect x="83.2" y="112.7" fill="#31A02B" width="307.7" height="326.7"/>
	</g>
	<g>
		<rect x="83.7" y="113.2" fill="#31A02B" width="307.7" height="326.7"/>
	</g>
	<g>
		<rect x="84.2" y="113.7" fill="#31A02B" width="307.7" height="326.7"/>
	</g>
	<g>
		<rect x="84.7" y="114.2" fill="#31A02B" width="307.7" height="326.7"/>
	</g>
	<g>
		<rect x="85.2" y="114.7" fill="#31A02B" width="307.7" height="326.7"/>
	</g>
	<g>
		<rect x="85.7" y="115.2" fill="#31A02B" width="307.7" height="326.7"/>
	</g>
	<g>
		<rect x="86.2" y="115.7" fill="#31A02B" width="307.7" height="326.7"/>
	</g>
	<g>
		<rect x="86.7" y="116.2" fill="#31A02B" width="307.7" height="326.7"/>
	</g>
	<g>
		<rect x="87.2" y="116.7" fill="#31A02B" width="307.7" height="326.7"/>
	</g>
	<g>
		<rect x="87.7" y="117.2" fill="#31A02B" width="307.7" height="326.7"/>
	</g>
	<g>
		<rect x="88.2" y="117.7" fill="#31A02B" width="307.7" height="326.7"/>
	</g>
	<g>
		<rect x="88.7" y="118.2" fill="#31A02B" width="307.7" height="326.7"/>
	</g>
	<g>
		<rect x="89.2" y="118.7" fill="#31A02B" width="307.7" height="326.7"/>
	</g>
	<g>
		<rect x="89.7" y="119.2" fill="#31A02B" width="307.7" height="326.7"/>
	</g>
	<g>
		<rect x="90.2" y="119.7" fill="#31A02B" width="307.7" height="326.7"/>
	</g>
	<g>
		<rect x="90.7" y="120.2" fill="#31A02B" width="307.7" height="326.7"/>
	</g>
	<g>
		<rect x="91.2" y="120.7" fill="#31A02B" width="307.7" height="326.7"/>
	</g>
	<g>
		<rect x="91.7" y="121.2" fill="#31A02B" width="307.7" height="326.7"/>
	</g>
	<g>
		<rect x="92.2" y="121.7" fill="#31A02B" width="307.7" height="326.7"/>
	</g>
	<g>
		<rect x="92.7" y="122.2" fill="#31A02B" width="307.7" height="326.7"/>
	</g>
	<g>
		<rect x="93.2" y="122.7" fill="#31A02B" width="307.7" height="326.7"/>
	</g>
	<g>
		<rect x="93.7" y="123.2" fill="#31A02B" width="307.7" height="326.7"/>
	</g>
	<g>
		<rect x="94.2" y="123.7" fill="#31A02B" width="307.7" height="326.7"/>
	</g>
	<g>
		<rect x="94.7" y="124.2" fill="#31A02B" width="307.7" height="326.7"/>
	</g>
	<g>
		<rect x="95.2" y="124.7" fill="#31A02B" width="307.7" height="326.7"/>
	</g>
	<g>
		<rect x="95.7" y="125.2" fill="#31A02B" width="307.7" height="326.7"/>
	</g>
	<g>
		<rect x="96.2" y="125.7" fill="#31A02B" width="307.7" height="326.7"/>
	</g>
	<g>
		<rect x="96.7" y="126.2" fill="#31A02B" width="307.7" height="326.7"/>
	</g>
	<g>
		<rect x="97.2" y="126.7" fill="#31A02B" width="307.7" height="326.7"/>
	</g>
	<g>
		<rect x="97.7" y="127.2" fill="#31A02B" width="307.7" height="326.7"/>
	</g>
	<g>
		<rect x="98.2" y="127.7" fill="#31A02B" width="307.7" height="326.7"/>
	</g>
	<g>
		<rect x="98.7" y="128.2" fill="#31A02B" width="307.7" height="326.7"/>
	</g>
	<g>
		<rect x="99.2" y="128.7" fill="#31A02B" width="307.7" height="326.7"/>
	</g>
	<g>
		<rect x="99.7" y="129.2" fill="#31A02B" width="307.7" height="326.7"/>
	</g>
	<g>
		<rect x="100.2" y="129.7" fill="#31A02B" width="307.7" height="326.7"/>
	</g>
	<g>
		<rect x="100.7" y="130.2" fill="#31A02B" width="307.7" height="326.7"/>
	</g>
	<g>
		<rect x="101.2" y="130.7" fill="#31A02B" width="307.7" height="326.7"/>
	</g>
	<g>
		<rect x="101.7" y="131.2" fill="#31A02B" width="307.7" height="326.7"/>
	</g>
	<g>
		<rect x="102.2" y="131.7" fill="#31A02B" width="307.7" height="326.7"/>
	</g>
	<g>
		<rect x="102.7" y="132.2" fill="#31A02B" width="307.7" height="326.7"/>
	</g>
	<g>
		<rect x="103.2" y="132.7" fill="#31A02B" width="307.7" height="326.7"/>
	</g>
	<g>
		<rect x="103.7" y="133.2" fill="#31A02B" width="307.7" height="326.7"/>
	</g>
	<g>
		<rect x="104.2" y="133.7" fill="#31A02B" width="307.7" height="326.7"/>
	</g>
	<g>
		<rect x="104.7" y="134.2" fill="#31A02B" width="307.7" height="326.7"/>
	</g>
	<g>
		<rect x="105.2" y="134.7" fill="#31A02B" width="307.7" height="326.7"/>
	</g>
	<g>
		<rect x="105.7" y="135.2" fill="#31A02B" width="307.7" height="326.7"/>
	</g>
	<g>
		<rect x="106.2" y="135.7" fill="#31A02B" width="307.7" height="326.7"/>
	</g>
	<g>
		<rect x="106.7" y="136.2" fill="#31A02B" width="307.7" height="326.7"/>
	</g>
	<g>
		<rect x="107.2" y="136.7" fill="#31A02B" width="307.7" height="326.7"/>
	</g>
	<g>
		<rect x="107.7" y="137.2" fill="#31A02B" width="307.7" height="326.7"/>
	</g>
	<g>
		<rect x="108.2" y="137.7" fill="#31A02B" width="307.7" height="326.7"/>
	</g>
	<g>
		<rect x="108.7" y="138.2" fill="#31A02B" width="307.7" height="326.7"/>
	</g>
</g>
<g opacity="0.4">
	<g>
		<rect x="73.7" y="429.9" fill="#31A02B" width="310.9" height="35.1"/>
	</g>
	<g>
		<rect x="74.2" y="430.4" fill="#31A02B" width="310.9" height="35.1"/>
	</g>
	<g>
		<rect x="74.7" y="430.9" fill="#31A02B" width="310.9" height="35.1"/>
	</g>
	<g>
		<rect x="75.2" y="431.4" fill="#31A02B" width="310.9" height="35.1"/>
	</g>
	<g>
		<rect x="75.7" y="431.9" fill="#31A02B" width="310.9" height="35.1"/>
	</g>
	<g>
		<rect x="76.2" y="432.4" fill="#31A02B" width="310.9" height="35.1"/>
	</g>
	<g>
		<rect x="76.7" y="432.9" fill="#31A02B" width="310.9" height="35.1"/>
	</g>
	<g>
		<rect x="77.2" y="433.4" fill="#31A02B" width="310.9" height="35.1"/>
	</g>
	<g>
		<rect x="77.7" y="433.9" fill="#31A02B" width="310.9" height="35.1"/>
	</g>
	<g>
		<rect x="78.2" y="434.4" fill="#31A02B" width="310.9" height="35.1"/>
	</g>
	<g>
		<rect x="78.7" y="434.9" fill="#31A02B" width="310.9" height="35.1"/>
	</g>
	<g>
		<rect x="79.2" y="435.4" fill="#31A02B" width="310.9" height="35.1"/>
	</g>
	<g>
		<rect x="79.7" y="435.9" fill="#31A02B" width="310.9" height="35.1"/>
	</g>
	<g>
		<rect x="80.2" y="436.4" fill="#31A02B" width="310.9" height="35.1"/>
	</g>
	<g>
		<rect x="80.7" y="436.9" fill="#31A02B" width="310.9" height="35.1"/>
	</g>
	<g>
		<rect x="81.2" y="437.4" fill="#31A02B" width="310.9" height="35.1"/>
	</g>
	<g>
		<rect x="81.7" y="437.9" fill="#31A02B" width="310.9" height="35.1"/>
	</g>
	<g>
		<rect x="82.2" y="438.4" fill="#31A02B" width="310.9" height="35.1"/>
	</g>
	<g>
		<rect x="82.7" y="438.9" fill="#31A02B" width="310.9" height="35.1"/>
	</g>
	<g>
		<rect x="83.2" y="439.4" fill="#31A02B" width="310.9" height="35.1"/>
	</g>
	<g>
		<rect x="83.7" y="439.9" fill="#31A02B" width="310.9" height="35.1"/>
	</g>
	<g>
		<rect x="84.2" y="440.4" fill="#31A02B" width="310.9" height="35.1"/>
	</g>
	<g>
		<rect x="84.7" y="440.9" fill="#31A02B" width="310.9" height="35.1"/>
	</g>
	<g>
		<rect x="85.2" y="441.4" fill="#31A02B" width="310.9" height="35.1"/>
	</g>
	<g>
		<rect x="85.7" y="441.9" fill="#31A02B" width="310.9" height="35.1"/>
	</g>
	<g>
		<rect x="86.2" y="442.4" fill="#31A02B" width="310.9" height="35.1"/>
	</g>
	<g>
		<rect x="86.7" y="442.9" fill="#31A02B" width="310.9" height="35.1"/>
	</g>
	<g>
		<rect x="87.2" y="443.4" fill="#31A02B" width="310.9" height="35.1"/>
	</g>
	<g>
		<rect x="87.7" y="443.9" fill="#31A02B" width="310.9" height="35.1"/>
	</g>
	<g>
		<rect x="88.2" y="444.4" fill="#31A02B" width="310.9" height="35.1"/>
	</g>
	<g>
		<rect x="88.7" y="444.9" fill="#31A02B" width="310.9" height="35.1"/>
	</g>
	<g>
		<rect x="89.2" y="445.4" fill="#31A02B" width="310.9" height="35.1"/>
	</g>
	<g>
		<rect x="89.7" y="445.9" fill="#31A02B" width="310.9" height="35.1"/>
	</g>
	<g>
		<rect x="90.2" y="446.4" fill="#31A02B" width="310.9" height="35.1"/>
	</g>
	<g>
		<rect x="90.7" y="446.9" fill="#31A02B" width="310.9" height="35.1"/>
	</g>
	<g>
		<rect x="91.2" y="447.4" fill="#31A02B" width="310.9" height="35.1"/>
	</g>
	<g>
		<rect x="91.7" y="447.9" fill="#31A02B" width="310.9" height="35.1"/>
	</g>
	<g>
		<rect x="92.2" y="448.4" fill="#31A02B" width="310.9" height="35.1"/>
	</g>
	<g>
		<rect x="92.7" y="448.9" fill="#31A02B" width="310.9" height="35.1"/>
	</g>
	<g>
		<rect x="93.2" y="449.4" fill="#31A02B" width="310.9" height="35.1"/>
	</g>
	<g>
		<rect x="93.7" y="449.9" fill="#31A02B" width="310.9" height="35.1"/>
	</g>
	<g>
		<rect x="94.2" y="450.4" fill="#31A02B" width="310.9" height="35.1"/>
	</g>
	<g>
		<rect x="94.7" y="450.9" fill="#31A02B" width="310.9" height="35.1"/>
	</g>
	<g>
		<rect x="95.2" y="451.4" fill="#31A02B" width="310.9" height="35.1"/>
	</g>
	<g>
		<rect x="95.7" y="451.9" fill="#31A02B" width="310.9" height="35.1"/>
	</g>
	<g>
		<rect x="96.2" y="452.4" fill="#31A02B" width="310.9" height="35.1"/>
	</g>
	<g>
		<rect x="96.7" y="452.9" fill="#31A02B" width="310.9" height="35.1"/>
	</g>
	<g>
		<rect x="97.2" y="453.4" fill="#31A02B" width="310.9" height="35.1"/>
	</g>
	<g>
		<rect x="97.7" y="453.9" fill="#31A02B" width="310.9" height="35.1"/>
	</g>
	<g>
		<rect x="98.2" y="454.4" fill="#31A02B" width="310.9" height="35.1"/>
	</g>
	<g>
		<rect x="98.7" y="454.9" fill="#31A02B" width="310.9" height="35.1"/>
	</g>
	<g>
		<rect x="99.2" y="455.4" fill="#31A02B" width="310.9" height="35.1"/>
	</g>
	<g>
		<rect x="99.7" y="455.9" fill="#31A02B" width="310.9" height="35.1"/>
	</g>
	<g>
		<rect x="100.2" y="456.4" fill="#31A02B" width="310.9" height="35.1"/>
	</g>
	<g>
		<rect x="100.7" y="456.9" fill="#31A02B" width="310.9" height="35.1"/>
	</g>
	<g>
		<rect x="101.2" y="457.4" fill="#31A02B" width="310.9" height="35.1"/>
	</g>
	<g>
		<rect x="101.7" y="457.9" fill="#31A02B" width="310.9" height="35.1"/>
	</g>
	<g>
		<rect x="102.2" y="458.4" fill="#31A02B" width="310.9" height="35.1"/>
	</g>
	<g>
		<rect x="102.7" y="458.9" fill="#31A02B" width="310.9" height="35.1"/>
	</g>
	<g>
		<rect x="103.2" y="459.4" fill="#31A02B" width="310.9" height="35.1"/>
	</g>
	<g>
		<rect x="103.7" y="459.9" fill="#31A02B" width="310.9" height="35.1"/>
	</g>
	<g>
		<rect x="104.2" y="460.4" fill="#31A02B" width="310.9" height="35.1"/>
	</g>
	<g>
		<rect x="104.7" y="460.9" fill="#31A02B" width="310.9" height="35.1"/>
	</g>
	<g>
		<rect x="105.2" y="461.4" fill="#31A02B" width="310.9" height="35.1"/>
	</g>
	<g>
		<rect x="105.7" y="461.9" fill="#31A02B" width="310.9" height="35.1"/>
	</g>
	<g>
		<rect x="106.2" y="462.4" fill="#31A02B" width="310.9" height="35.1"/>
	</g>
	<g>
		<rect x="106.7" y="462.9" fill="#31A02B" width="310.9" height="35.1"/>
	</g>
	<g>
		<rect x="107.2" y="463.4" fill="#31A02B" width="310.9" height="35.1"/>
	</g>
	<g>
		<rect x="107.7" y="463.9" fill="#31A02B" width="310.9" height="35.1"/>
	</g>
	<g>
		<rect x="108.2" y="464.4" fill="#31A02B" width="310.9" height="35.1"/>
	</g>
	<g>
		<rect x="108.7" y="464.9" fill="#31A02B" width="310.9" height="35.1"/>
	</g>
</g>
<rect x="108.7" y="464.9" fill="#25821D" width="310.9" height="35.1"/>
<g>
	<text transform="matrix(1 0 0 1 167.7148 436.3516)" fill="#31A02B" font-family="'MyriadPro-Regular'" font-size="231.7006">&lt;?</text>
</g>
<g>
	<text transform="matrix(1 0 0 1 167.7148 436.3516)" fill="#31A02B" font-family="'MyriadPro-Regular'" font-size="231.7006">&lt;?</text>
</g>
<g opacity="0.4">
	<g>
		<text transform="matrix(1 0 0 1 152.7148 421.3516)" fill="#31A02B" font-family="'MyriadPro-Regular'" font-size="231.7006">&lt;?</text>
	</g>
	<g>
		<text transform="matrix(1 0 0 1 153.2148 421.8516)" fill="#31A02B" font-family="'MyriadPro-Regular'" font-size="231.7006">&lt;?</text>
	</g>
	<g>
		<text transform="matrix(1 0 0 1 153.7148 422.3516)" fill="#31A02B" font-family="'MyriadPro-Regular'" font-size="231.7006">&lt;?</text>
	</g>
	<g>
		<text transform="matrix(1 0 0 1 154.2148 422.8516)" fill="#31A02B" font-family="'MyriadPro-Regular'" font-size="231.7006">&lt;?</text>
	</g>
	<g>
		<text transform="matrix(1 0 0 1 154.7148 423.3516)" fill="#31A02B" font-family="'MyriadPro-Regular'" font-size="231.7006">&lt;?</text>
	</g>
	<g>
		<text transform="matrix(1 0 0 1 155.2148 423.8516)" fill="#31A02B" font-family="'MyriadPro-Regular'" font-size="231.7006">&lt;?</text>
	</g>
	<g>
		<text transform="matrix(1 0 0 1 155.7148 424.3516)" fill="#31A02B" font-family="'MyriadPro-Regular'" font-size="231.7006">&lt;?</text>
	</g>
	<g>
		<text transform="matrix(1 0 0 1 156.2148 424.8516)" fill="#31A02B" font-family="'MyriadPro-Regular'" font-size="231.7006">&lt;?</text>
	</g>
	<g>
		<text transform="matrix(1 0 0 1 156.7148 425.3516)" fill="#31A02B" font-family="'MyriadPro-Regular'" font-size="231.7006">&lt;?</text>
	</g>
	<g>
		<text transform="matrix(1 0 0 1 157.2148 425.8516)" fill="#31A02B" font-family="'MyriadPro-Regular'" font-size="231.7006">&lt;?</text>
	</g>
	<g>
		<text transform="matrix(1 0 0 1 157.7148 426.3516)" fill="#31A02B" font-family="'MyriadPro-Regular'" font-size="231.7006">&lt;?</text>
	</g>
	<g>
		<text transform="matrix(1 0 0 1 158.2148 426.8516)" fill="#31A02B" font-family="'MyriadPro-Regular'" font-size="231.7006">&lt;?</text>
	</g>
	<g>
		<text transform="matrix(1 0 0 1 158.7148 427.3516)" fill="#31A02B" font-family="'MyriadPro-Regular'" font-size="231.7006">&lt;?</text>
	</g>
	<g>
		<text transform="matrix(1 0 0 1 159.2148 427.8516)" fill="#31A02B" font-family="'MyriadPro-Regular'" font-size="231.7006">&lt;?</text>
	</g>
	<g>
		<text transform="matrix(1 0 0 1 159.7148 428.3516)" fill="#31A02B" font-family="'MyriadPro-Regular'" font-size="231.7006">&lt;?</text>
	</g>
	<g>
		<text transform="matrix(1 0 0 1 160.2148 428.8516)" fill="#31A02B" font-family="'MyriadPro-Regular'" font-size="231.7006">&lt;?</text>
	</g>
	<g>
		<text transform="matrix(1 0 0 1 160.7148 429.3516)" fill="#31A02B" font-family="'MyriadPro-Regular'" font-size="231.7006">&lt;?</text>
	</g>
	<g>
		<text transform="matrix(1 0 0 1 161.2148 429.8516)" fill="#31A02B" font-family="'MyriadPro-Regular'" font-size="231.7006">&lt;?</text>
	</g>
	<g>
		<text transform="matrix(1 0 0 1 161.7148 430.3516)" fill="#31A02B" font-family="'MyriadPro-Regular'" font-size="231.7006">&lt;?</text>
	</g>
	<g>
		<text transform="matrix(1 0 0 1 162.2148 430.8516)" fill="#31A02B" font-family="'MyriadPro-Regular'" font-size="231.7006">&lt;?</text>
	</g>
	<g>
		<text transform="matrix(1 0 0 1 162.7148 431.3516)" fill="#31A02B" font-family="'MyriadPro-Regular'" font-size="231.7006">&lt;?</text>
	</g>
	<g>
		<text transform="matrix(1 0 0 1 163.2148 431.8516)" fill="#31A02B" font-family="'MyriadPro-Regular'" font-size="231.7006">&lt;?</text>
	</g>
	<g>
		<text transform="matrix(1 0 0 1 163.7148 432.3516)" fill="#31A02B" font-family="'MyriadPro-Regular'" font-size="231.7006">&lt;?</text>
	</g>
	<g>
		<text transform="matrix(1 0 0 1 164.2148 432.8516)" fill="#31A02B" font-family="'MyriadPro-Regular'" font-size="231.7006">&lt;?</text>
	</g>
	<g>
		<text transform="matrix(1 0 0 1 164.7148 433.3516)" fill="#31A02B" font-family="'MyriadPro-Regular'" font-size="231.7006">&lt;?</text>
	</g>
	<g>
		<text transform="matrix(1 0 0 1 165.2148 433.8516)" fill="#31A02B" font-family="'MyriadPro-Regular'" font-size="231.7006">&lt;?</text>
	</g>
	<g>
		<text transform="matrix(1 0 0 1 165.7148 434.3516)" fill="#31A02B" font-family="'MyriadPro-Regular'" font-size="231.7006">&lt;?</text>
	</g>
	<g>
		<text transform="matrix(1 0 0 1 166.2148 434.8516)" fill="#31A02B" font-family="'MyriadPro-Regular'" font-size="231.7006">&lt;?</text>
	</g>
	<g>
		<text transform="matrix(1 0 0 1 166.7148 435.3516)" fill="#31A02B" font-family="'MyriadPro-Regular'" font-size="231.7006">&lt;?</text>
	</g>
	<g>
		<text transform="matrix(1 0 0 1 167.2148 435.8516)" fill="#31A02B" font-family="'MyriadPro-Regular'" font-size="231.7006">&lt;?</text>
	</g>
	<g>
		<text transform="matrix(1 0 0 1 167.7148 436.3516)" fill="#31A02B" font-family="'MyriadPro-Regular'" font-size="231.7006">&lt;?</text>
	</g>
</g>
</svg>
