<?xml version="1.0" encoding="utf-8"?>
<!-- Generator: Adobe Illustrator 18.1.1, SVG Export Plug-In . SVG Version: 6.00 Build 0)  -->
<svg version="1.1" id="Layer_1" xmlns="http://www.w3.org/2000/svg" xmlns:xlink="http://www.w3.org/1999/xlink" x="0px" y="0px"
	 viewBox="0 0 32 32" enable-background="new 0 0 32 32" xml:space="preserve">
<rect display="none" fill="#54B586" width="32" height="32"/>
<rect x="0" fill="#CC4E4E" width="32" height="32"/>
<g>
	<polygon fill="#B3B3B3" points="31.3,0.7 28.4,1.7 28.9,5.4 31.3,6.7 33.7,5.4 34.1,1.7 	"/>
	<polygon fill="#A6120D" points="33.9,1.9 31.3,1 31.3,6.4 33.4,5.2 	"/>
	<polygon fill="#DD1B16" points="28.8,1.9 29.1,5.2 31.3,6.4 31.3,1 	"/>
	<path fill="#F2F2F2" d="M32,3.9l-0.7,0.3h-0.7l-0.4,0.9l-0.7,0l1.8-3.9L32,3.9z M31.9,3.7l-0.6-1.3l-0.5,1.2h0.5L31.9,3.7z"/>
	<polygon fill="#B3B3B3" points="31.3,1.2 31.3,2.5 31.9,3.7 31.3,3.7 31.3,4.2 32.1,4.2 32.5,5.1 33.1,5.1 	"/>
</g>
</svg>
