<?xml version="1.0" encoding="utf-8"?>
<!-- Generator: Adobe Illustrator 18.1.1, SVG Export Plug-In . SVG Version: 6.00 Build 0)  -->
<svg version="1.1" id="Layer_1" xmlns="http://www.w3.org/2000/svg" xmlns:xlink="http://www.w3.org/1999/xlink" x="0px" y="0px"
	 viewBox="0 0 700 700" enable-background="new 0 0 700 700" xml:space="preserve">
<rect fill="#54B586" width="700" height="700"/>
<g>
	<g>
		<polygon fill="#00A36B" points="701.7,11.4 668.7,59.7 638.7,27.8 		"/>
		<polygon fill="#056347" points="638.7,27.8 604,86.5 668.7,59.7 		"/>
		<polygon fill="#35AE76" points="668.7,59.7 728.6,47 701.7,11.4 		"/>
		<polygon fill="#06A16B" points="728.6,47 705.2,99 668.7,59.7 		"/>
		<polygon fill="#A2CFA2" points="701.7,11.4 722.3,12.9 728.6,47 		"/>
		<polygon fill="#70BC88" points="638.7,27.8 643.7,-15.2 701.7,11.4 		"/>
		<polygon fill="#118263" points="604,86.5 597.4,26.4 638.7,27.8 		"/>
		<polygon fill="#0E694D" points="643.7,-15.2 597.4,26.4 638.7,27.8 		"/>
		<polygon fill="#C6E1C7" points="701.7,11.4 687.5,-20.6 722.3,12.9 		"/>
		<polygon fill="#35AE76" points="643.7,-15.2 687.5,-20.6 701.7,11.4 		"/>
		<polygon fill="#02A26C" points="597.4,26.4 599,-20 643.7,-15.2 		"/>
		<polygon fill="#6EBB84" points="687.5,-20.6 643.6,-31.6 643.7,-15.2 		"/>
		<polygon fill="#118263" points="599,-20 643.6,-31.6 643.7,-15.2 		"/>
		<polygon fill="#54B586" points="597.4,26.4 568.2,67.1 604,86.5 		"/>
		<polygon fill="#056347" points="599,-20 561.1,21.9 597.4,26.4 		"/>
		<polygon fill="#02A26C" points="568.2,67.1 561.1,21.9 597.4,26.4 		"/>
		<polygon fill="#35AE76" points="728.6,47 783.3,33.5 722.3,12.9 		"/>
		<polygon fill="#007B56" points="604,86.5 584.4,134.4 668.7,59.7 		"/>
		<polygon fill="#36B08A" points="568.2,67.1 604,86.5 584.4,134.4 		"/>
		<polygon fill="#71BD89" points="668.7,59.7 584.4,134.4 705.2,99 		"/>
		<polygon fill="#0E694D" points="783.3,33.5 705.2,99 728.6,47 		"/>
	</g>
	<g>
		<polygon fill="#00A36B" points="701.7,11.4 668.7,59.7 638.7,27.8 		"/>
		<polygon fill="#056347" points="638.7,27.8 604,86.5 668.7,59.7 		"/>
		<polygon fill="#35AE76" points="668.7,59.7 728.6,47 701.7,11.4 		"/>
		<polygon fill="#06A16B" points="728.6,47 705.2,99 668.7,59.7 		"/>
		<polygon fill="#A2CFA2" points="701.7,11.4 722.3,12.9 728.6,47 		"/>
		<polygon fill="#70BC88" points="638.7,27.8 643.7,-15.2 701.7,11.4 		"/>
		<polygon fill="#118263" points="604,86.5 597.4,26.4 638.7,27.8 		"/>
		<polygon fill="#0E694D" points="643.7,-15.2 597.4,26.4 638.7,27.8 		"/>
		<polygon fill="#C6E1C7" points="701.7,11.4 687.5,-20.6 722.3,12.9 		"/>
		<polygon fill="#35AE76" points="643.7,-15.2 687.5,-20.6 701.7,11.4 		"/>
		<polygon fill="#02A26C" points="597.4,26.4 599,-20 643.7,-15.2 		"/>
		<polygon fill="#6EBB84" points="687.5,-20.6 643.6,-31.6 643.7,-15.2 		"/>
		<polygon fill="#118263" points="599,-20 643.6,-31.6 643.7,-15.2 		"/>
		<polygon fill="#54B586" points="597.4,26.4 568.2,67.1 604,86.5 		"/>
		<polygon fill="#056347" points="599,-20 561.1,21.9 597.4,26.4 		"/>
		<polygon fill="#02A26C" points="568.2,67.1 561.1,21.9 597.4,26.4 		"/>
		<polygon fill="#35AE76" points="728.6,47 783.3,33.5 722.3,12.9 		"/>
		<polygon fill="#007B56" points="604,86.5 584.4,134.4 668.7,59.7 		"/>
		<polygon fill="#36B08A" points="568.2,67.1 604,86.5 584.4,134.4 		"/>
		<polygon fill="#71BD89" points="668.7,59.7 584.4,134.4 705.2,99 		"/>
		<polygon fill="#0E694D" points="783.3,33.5 705.2,99 728.6,47 		"/>
	</g>
</g>
<g>
	<g>
		<path fill="#F4F3F3" d="M532.2,36.9l73.4-137.4l-3,124.3L532.2,36.9z M604.8-97.5L533.5,36l68.4-12.8L604.8-97.5z"/>
	</g>
	<g>
		<path fill="#F4F3F3" d="M610.6,104.3l-8.8-81.4l61.6,30l-0.4,0.4L610.6,104.3z M602.6,24.1l8.5,78.7l51-49.6L602.6,24.1z"/>
	</g>
	<g>
		<path fill="#F4F3F3" d="M532.4,36.2l0.4-0.1l69.9-13.1l-24.5,123.3L532.4,36.2z M601.8,24l-68.4,12.8L578,143.9L601.8,24z"/>
	</g>
	<g>
		<path fill="#F4F3F3" d="M577.4,146.5l24.9-125.3l8.9,82.5l-0.1,0.1L577.4,146.5z M602.1,25.9l-23.4,117.9l31.8-40.3L602.1,25.9z"
			/>
	</g>
	<g>
		<path fill="#F4F3F3" d="M665.2,118.6l-2.8-66.7l38.7,53.7L665.2,118.6z M663.2,54.2l2.7,63.4l34.1-12.4L663.2,54.2z"/>
	</g>
	<g>
		<path fill="#F4F3F3" d="M610.2,103.7l52.9-51.5l2.8,66.3L610.2,103.7z M662.4,53.8l-50.9,49.5l53.5,14.2L662.4,53.8z"/>
	</g>
	<g>
		<path fill="#F4F3F3" d="M577.1,145.8l33.7-42.7l56,14.9l-1.2,0.4L577.1,145.8z M611,104l-32,40.5l85.1-26.3L611,104z"/>
	</g>
	<g>
		<path fill="#F4F3F3" d="M665,117.9l35.9-13.1l-12,61.2L665,117.9z M700,105.9l-34,12.4l22.6,45.6L700,105.9z"/>
	</g>
	<g>
		<path fill="#F4F3F3" d="M658,145.8l7.4-28.7l24.2,48.9L658,145.8z M665.6,119.1l-6.8,26.4l29,18.5L665.6,119.1z"/>
	</g>
	<g>
		<path fill="#F4F3F3" d="M575.2,145.7l91.5-28.3l-22.9,24.2l-0.1,0L575.2,145.7z M664.3,118.8L581,144.6l62.5-3.8L664.3,118.8z"/>
	</g>
	<g>
		<path fill="#F4F3F3" d="M643,141.4l23.2-24.5l-7.5,29.2L643,141.4z M664.8,119.3L644.3,141l13.9,4.2L664.8,119.3z"/>
	</g>
	<g>
		<path fill="#F4F3F3" d="M665.4,120.1c-1,0.1-1.9-0.6-2.1-1.6c-0.1-1,0.6-1.9,1.7-2.1c1-0.1,1.9,0.6,2.1,1.6
			C667.2,119.1,666.5,120,665.4,120.1z"/>
	</g>
	<g>
		<path fill="#F4F3F3" d="M643.8,143c-1,0.1-1.9-0.6-2.1-1.6c-0.1-1,0.6-1.9,1.7-2.1c1-0.1,1.9,0.6,2.1,1.6
			C645.6,142,644.9,142.9,643.8,143z"/>
	</g>
	<g>
		<path fill="#F4F3F3" d="M658.6,147.5c-1,0.1-1.9-0.6-2.1-1.6c-0.1-1,0.6-1.9,1.7-2.1c1-0.1,1.9,0.6,2.1,1.6
			C660.4,146.4,659.7,147.3,658.6,147.5z"/>
	</g>
	<g>
		<path fill="#F4F3F3" d="M688.9,166.8c-1,0.1-1.9-0.6-2.1-1.6c-0.1-1,0.6-1.9,1.7-2.1c1-0.1,1.9,0.6,2.1,1.6
			C690.7,165.7,690,166.7,688.9,166.8z"/>
	</g>
	<g>
		<path fill="#F4F3F3" d="M700.7,107.2c-1,0.1-1.9-0.6-2.1-1.6c-0.1-1,0.6-1.9,1.7-2.1c1-0.1,1.9,0.6,2.1,1.6
			C702.4,106.1,701.7,107.1,700.7,107.2z"/>
	</g>
	<g>
		<path fill="#F4F3F3" d="M663,54.9c-1,0.1-1.9-0.6-2.1-1.6c-0.1-1,0.6-1.9,1.7-2.1c1-0.1,1.9,0.6,2.1,1.6
			C664.7,53.8,664,54.8,663,54.9z"/>
	</g>
	<g>
		<path fill="#F4F3F3" d="M611.1,105.4c-1,0.1-1.9-0.6-2.1-1.6c-0.1-1,0.6-1.9,1.7-2.1c1-0.1,1.9,0.6,2.1,1.6
			C612.9,104.4,612.1,105.3,611.1,105.4z"/>
	</g>
	<g>
		<path fill="#F4F3F3" d="M602.4,25.4c-1,0.1-1.9-0.6-2.1-1.6c-0.1-1,0.6-1.9,1.7-2.1c1-0.1,1.9,0.6,2.1,1.6
			C604.2,24.3,603.4,25.2,602.4,25.4z"/>
	</g>
	<g>
		<path fill="#F4F3F3" d="M578.3,147c-1,0.1-1.9-0.6-2.1-1.6c-0.1-1,0.6-1.9,1.7-2.1c1-0.1,1.9,0.6,2.1,1.6
			C580,145.9,579.3,146.9,578.3,147z"/>
	</g>
	<g>
		<path fill="#F4F3F3" d="M533.1,38.3c-1,0.1-1.9-0.6-2.1-1.6c-0.1-1,0.6-1.9,1.7-2.1c1-0.1,1.9,0.6,2.1,1.6
			C534.8,37.3,534.1,38.2,533.1,38.3z"/>
	</g>
</g>
</svg>
