<?xml version="1.0" encoding="utf-8"?>
<!-- Generator: Adobe Illustrator 18.1.1, SVG Export Plug-In . SVG Version: 6.00 Build 0)  -->
<svg version="1.1" id="Layer_1" xmlns="http://www.w3.org/2000/svg" xmlns:xlink="http://www.w3.org/1999/xlink" x="0px" y="0px"
	 viewBox="0 0 2000 2000" enable-background="new 0 0 2000 2000" xml:space="preserve">
<rect fill="#537ABD" width="2000" height="2000"/>
<path opacity="0.2" fill="#FFFFFF" d="M1997.4-13v-1.2H3.5v1.2H2.3v1419.3h1.2v1.2h1993.9v-1.2h1.2V-13H1997.4z M545.4-11.8h31.4
	v31.4h-31.4V-11.8z M545.4,22h31.4v31.4h-31.4V22z M545.4,55.8h31.4v31.4h-31.4V55.8z M545.4,89.6h31.4V121h-31.4V89.6z
	 M545.4,123.4h31.4v31.4h-31.4V123.4z M545.4,157.2h31.4v31.4h-31.4V157.2z M545.4,191h31.4v31.4h-31.4V191z M545.4,224.8h31.4v31.4
	h-31.4V224.8z M545.4,258.6h31.4V290h-31.4V258.6z M545.4,292.3h31.4v31.4h-31.4V292.3z M545.4,326.1h31.4v31.4h-31.4V326.1z
	 M545.4,359.9h31.4v31.4h-31.4V359.9z M545.4,393.7h31.4v31.4h-31.4V393.7z M545.4,427.5h31.4v31.4h-31.4V427.5z M545.4,461.3h31.4
	v31.4h-31.4V461.3z M545.4,495.1h31.4v31.4h-31.4V495.1z M545.4,528.9h31.4v31.4h-31.4V528.9z M545.4,562.7h31.4v31.4h-31.4V562.7z
	 M545.4,596.5h31.4v31.4h-31.4V596.5z M545.4,630.3h31.4v31.4h-31.4V630.3z M545.4,664.1h31.4v31.4h-31.4V664.1z M545.4,697.9h31.4
	v31.4h-31.4V697.9z M545.4,731.7h31.4v31.4h-31.4V731.7z M545.4,765.5h31.4v31.4h-31.4V765.5z M545.4,799.3h31.4v31.4h-31.4V799.3z
	 M545.4,833.1h31.4v31.4h-31.4V833.1z M545.4,866.9h31.4v31.4h-31.4V866.9z M545.4,900.6h31.4v31.4h-31.4V900.6z M545.4,934.4h31.4
	v31.4h-31.4V934.4z M545.4,968.2h31.4v31.4h-31.4V968.2z M545.4,1002h31.4v31.4h-31.4V1002z M545.4,1035.8h31.4v31.4h-31.4V1035.8z
	 M545.4,1069.6h31.4v31.4h-31.4V1069.6z M545.4,1103.4h31.4v31.4h-31.4V1103.4z M545.4,1137.2h31.4v31.4h-31.4V1137.2z M545.4,1171
	h31.4v31.4h-31.4V1171z M545.4,1204.8h31.4v31.4h-31.4V1204.8z M511.6-11.8H543v31.4h-31.4V-11.8z M511.6,22H543v31.4h-31.4V22z
	 M511.6,55.8H543v31.4h-31.4V55.8z M511.6,89.6H543V121h-31.4V89.6z M511.6,123.4H543v31.4h-31.4V123.4z M511.6,157.2H543v31.4
	h-31.4V157.2z M511.6,191H543v31.4h-31.4V191z M511.6,224.8H543v31.4h-31.4V224.8z M511.6,258.6H543V290h-31.4V258.6z M511.6,292.3
	H543v31.4h-31.4V292.3z M511.6,326.1H543v31.4h-31.4V326.1z M511.6,359.9H543v31.4h-31.4V359.9z M511.6,393.7H543v31.4h-31.4V393.7z
	 M511.6,427.5H543v31.4h-31.4V427.5z M511.6,461.3H543v31.4h-31.4V461.3z M511.6,495.1H543v31.4h-31.4V495.1z M511.6,528.9H543v31.4
	h-31.4V528.9z M511.6,562.7H543v31.4h-31.4V562.7z M511.6,596.5H543v31.4h-31.4V596.5z M511.6,630.3H543v31.4h-31.4V630.3z
	 M511.6,664.1H543v31.4h-31.4V664.1z M511.6,697.9H543v31.4h-31.4V697.9z M511.6,731.7H543v31.4h-31.4V731.7z M511.6,765.5H543v31.4
	h-31.4V765.5z M511.6,799.3H543v31.4h-31.4V799.3z M511.6,833.1H543v31.4h-31.4V833.1z M511.6,866.9H543v31.4h-31.4V866.9z
	 M511.6,900.6H543v31.4h-31.4V900.6z M511.6,934.4H543v31.4h-31.4V934.4z M511.6,968.2H543v31.4h-31.4V968.2z M511.6,1002H543v31.4
	h-31.4V1002z M511.6,1035.8H543v31.4h-31.4V1035.8z M511.6,1069.6H543v31.4h-31.4V1069.6z M511.6,1103.4H543v31.4h-31.4V1103.4z
	 M511.6,1137.2H543v31.4h-31.4V1137.2z M511.6,1171H543v31.4h-31.4V1171z M511.6,1204.8H543v31.4h-31.4V1204.8z M477.8-11.8h31.4
	v31.4h-31.4V-11.8z M477.8,22h31.4v31.4h-31.4V22z M477.8,55.8h31.4v31.4h-31.4V55.8z M477.8,89.6h31.4V121h-31.4V89.6z
	 M477.8,123.4h31.4v31.4h-31.4V123.4z M477.8,157.2h31.4v31.4h-31.4V157.2z M477.8,191h31.4v31.4h-31.4V191z M477.8,224.8h31.4v31.4
	h-31.4V224.8z M477.8,258.6h31.4V290h-31.4V258.6z M477.8,292.3h31.4v31.4h-31.4V292.3z M477.8,326.1h31.4v31.4h-31.4V326.1z
	 M477.8,359.9h31.4v31.4h-31.4V359.9z M477.8,393.7h31.4v31.4h-31.4V393.7z M477.8,427.5h31.4v31.4h-31.4V427.5z M477.8,461.3h31.4
	v31.4h-31.4V461.3z M477.8,495.1h31.4v31.4h-31.4V495.1z M477.8,528.9h31.4v31.4h-31.4V528.9z M477.8,562.7h31.4v31.4h-31.4V562.7z
	 M477.8,596.5h31.4v31.4h-31.4V596.5z M477.8,630.3h31.4v31.4h-31.4V630.3z M477.8,664.1h31.4v31.4h-31.4V664.1z M477.8,697.9h31.4
	v31.4h-31.4V697.9z M477.8,731.7h31.4v31.4h-31.4V731.7z M477.8,765.5h31.4v31.4h-31.4V765.5z M477.8,799.3h31.4v31.4h-31.4V799.3z
	 M477.8,833.1h31.4v31.4h-31.4V833.1z M477.8,866.9h31.4v31.4h-31.4V866.9z M477.8,900.6h31.4v31.4h-31.4V900.6z M477.8,934.4h31.4
	v31.4h-31.4V934.4z M477.8,968.2h31.4v31.4h-31.4V968.2z M477.8,1002h31.4v31.4h-31.4V1002z M477.8,1035.8h31.4v31.4h-31.4V1035.8z
	 M477.8,1069.6h31.4v31.4h-31.4V1069.6z M477.8,1103.4h31.4v31.4h-31.4V1103.4z M477.8,1137.2h31.4v31.4h-31.4V1137.2z M477.8,1171
	h31.4v31.4h-31.4V1171z M477.8,1204.8h31.4v31.4h-31.4V1204.8z M444-11.8h31.4v31.4H444V-11.8z M444,22h31.4v31.4H444V22z M444,55.8
	h31.4v31.4H444V55.8z M444,89.6h31.4V121H444V89.6z M444,123.4h31.4v31.4H444V123.4z M444,157.2h31.4v31.4H444V157.2z M444,191h31.4
	v31.4H444V191z M444,224.8h31.4v31.4H444V224.8z M444,258.6h31.4V290H444V258.6z M444,292.3h31.4v31.4H444V292.3z M444,326.1h31.4
	v31.4H444V326.1z M444,359.9h31.4v31.4H444V359.9z M444,393.7h31.4v31.4H444V393.7z M444,427.5h31.4v31.4H444V427.5z M444,461.3
	h31.4v31.4H444V461.3z M444,495.1h31.4v31.4H444V495.1z M444,528.9h31.4v31.4H444V528.9z M444,562.7h31.4v31.4H444V562.7z
	 M444,596.5h31.4v31.4H444V596.5z M444,630.3h31.4v31.4H444V630.3z M444,664.1h31.4v31.4H444V664.1z M444,697.9h31.4v31.4H444V697.9
	z M444,731.7h31.4v31.4H444V731.7z M444,765.5h31.4v31.4H444V765.5z M444,799.3h31.4v31.4H444V799.3z M444,833.1h31.4v31.4H444
	V833.1z M444,866.9h31.4v31.4H444V866.9z M444,900.6h31.4v31.4H444V900.6z M444,934.4h31.4v31.4H444V934.4z M444,968.2h31.4v31.4
	H444V968.2z M444,1002h31.4v31.4H444V1002z M444,1035.8h31.4v31.4H444V1035.8z M444,1069.6h31.4v31.4H444V1069.6z M444,1103.4h31.4
	v31.4H444V1103.4z M444,1137.2h31.4v31.4H444V1137.2z M444,1171h31.4v31.4H444V1171z M444,1204.8h31.4v31.4H444V1204.8z M410.2-11.8
	h31.4v31.4h-31.4V-11.8z M410.2,22h31.4v31.4h-31.4V22z M410.2,55.8h31.4v31.4h-31.4V55.8z M410.2,89.6h31.4V121h-31.4V89.6z
	 M410.2,123.4h31.4v31.4h-31.4V123.4z M410.2,157.2h31.4v31.4h-31.4V157.2z M410.2,191h31.4v31.4h-31.4V191z M410.2,224.8h31.4v31.4
	h-31.4V224.8z M410.2,258.6h31.4V290h-31.4V258.6z M410.2,292.3h31.4v31.4h-31.4V292.3z M410.2,326.1h31.4v31.4h-31.4V326.1z
	 M410.2,359.9h31.4v31.4h-31.4V359.9z M410.2,393.7h31.4v31.4h-31.4V393.7z M410.2,427.5h31.4v31.4h-31.4V427.5z M410.2,461.3h31.4
	v31.4h-31.4V461.3z M410.2,495.1h31.4v31.4h-31.4V495.1z M410.2,528.9h31.4v31.4h-31.4V528.9z M410.2,562.7h31.4v31.4h-31.4V562.7z
	 M410.2,596.5h31.4v31.4h-31.4V596.5z M410.2,630.3h31.4v31.4h-31.4V630.3z M410.2,664.1h31.4v31.4h-31.4V664.1z M410.2,697.9h31.4
	v31.4h-31.4V697.9z M410.2,731.7h31.4v31.4h-31.4V731.7z M410.2,765.5h31.4v31.4h-31.4V765.5z M410.2,799.3h31.4v31.4h-31.4V799.3z
	 M410.2,833.1h31.4v31.4h-31.4V833.1z M410.2,866.9h31.4v31.4h-31.4V866.9z M410.2,900.6h31.4v31.4h-31.4V900.6z M410.2,934.4h31.4
	v31.4h-31.4V934.4z M410.2,968.2h31.4v31.4h-31.4V968.2z M410.2,1002h31.4v31.4h-31.4V1002z M410.2,1035.8h31.4v31.4h-31.4V1035.8z
	 M410.2,1069.6h31.4v31.4h-31.4V1069.6z M410.2,1103.4h31.4v31.4h-31.4V1103.4z M410.2,1137.2h31.4v31.4h-31.4V1137.2z M410.2,1171
	h31.4v31.4h-31.4V1171z M410.2,1204.8h31.4v31.4h-31.4V1204.8z M376.4-11.8h31.4v31.4h-31.4V-11.8z M376.4,22h31.4v31.4h-31.4V22z
	 M376.4,55.8h31.4v31.4h-31.4V55.8z M376.4,89.6h31.4V121h-31.4V89.6z M376.4,123.4h31.4v31.4h-31.4V123.4z M376.4,157.2h31.4v31.4
	h-31.4V157.2z M376.4,191h31.4v31.4h-31.4V191z M376.4,224.8h31.4v31.4h-31.4V224.8z M376.4,258.6h31.4V290h-31.4V258.6z
	 M376.4,292.3h31.4v31.4h-31.4V292.3z M376.4,326.1h31.4v31.4h-31.4V326.1z M376.4,359.9h31.4v31.4h-31.4V359.9z M376.4,393.7h31.4
	v31.4h-31.4V393.7z M376.4,427.5h31.4v31.4h-31.4V427.5z M376.4,461.3h31.4v31.4h-31.4V461.3z M376.4,495.1h31.4v31.4h-31.4V495.1z
	 M376.4,528.9h31.4v31.4h-31.4V528.9z M376.4,562.7h31.4v31.4h-31.4V562.7z M376.4,596.5h31.4v31.4h-31.4V596.5z M376.4,630.3h31.4
	v31.4h-31.4V630.3z M376.4,664.1h31.4v31.4h-31.4V664.1z M376.4,697.9h31.4v31.4h-31.4V697.9z M376.4,731.7h31.4v31.4h-31.4V731.7z
	 M376.4,765.5h31.4v31.4h-31.4V765.5z M376.4,799.3h31.4v31.4h-31.4V799.3z M376.4,833.1h31.4v31.4h-31.4V833.1z M376.4,866.9h31.4
	v31.4h-31.4V866.9z M376.4,900.6h31.4v31.4h-31.4V900.6z M376.4,934.4h31.4v31.4h-31.4V934.4z M376.4,968.2h31.4v31.4h-31.4V968.2z
	 M376.4,1002h31.4v31.4h-31.4V1002z M376.4,1035.8h31.4v31.4h-31.4V1035.8z M376.4,1069.6h31.4v31.4h-31.4V1069.6z M376.4,1103.4
	h31.4v31.4h-31.4V1103.4z M376.4,1137.2h31.4v31.4h-31.4V1137.2z M376.4,1171h31.4v31.4h-31.4V1171z M376.4,1204.8h31.4v31.4h-31.4
	V1204.8z M342.6-11.8H374v31.4h-31.4V-11.8z M342.6,22H374v31.4h-31.4V22z M342.6,55.8H374v31.4h-31.4V55.8z M342.6,89.6H374V121
	h-31.4V89.6z M342.6,123.4H374v31.4h-31.4V123.4z M342.6,157.2H374v31.4h-31.4V157.2z M342.6,191H374v31.4h-31.4V191z M342.6,224.8
	H374v31.4h-31.4V224.8z M342.6,258.6H374V290h-31.4V258.6z M342.6,292.3H374v31.4h-31.4V292.3z M342.6,326.1H374v31.4h-31.4V326.1z
	 M342.6,359.9H374v31.4h-31.4V359.9z M342.6,393.7H374v31.4h-31.4V393.7z M342.6,427.5H374v31.4h-31.4V427.5z M342.6,461.3H374v31.4
	h-31.4V461.3z M342.6,495.1H374v31.4h-31.4V495.1z M342.6,528.9H374v31.4h-31.4V528.9z M342.6,562.7H374v31.4h-31.4V562.7z
	 M342.6,596.5H374v31.4h-31.4V596.5z M342.6,630.3H374v31.4h-31.4V630.3z M342.6,664.1H374v31.4h-31.4V664.1z M342.6,697.9H374v31.4
	h-31.4V697.9z M342.6,731.7H374v31.4h-31.4V731.7z M342.6,765.5H374v31.4h-31.4V765.5z M342.6,799.3H374v31.4h-31.4V799.3z
	 M342.6,833.1H374v31.4h-31.4V833.1z M342.6,866.9H374v31.4h-31.4V866.9z M342.6,900.6H374v31.4h-31.4V900.6z M342.6,934.4H374v31.4
	h-31.4V934.4z M342.6,968.2H374v31.4h-31.4V968.2z M342.6,1002H374v31.4h-31.4V1002z M342.6,1035.8H374v31.4h-31.4V1035.8z
	 M342.6,1069.6H374v31.4h-31.4V1069.6z M342.6,1103.4H374v31.4h-31.4V1103.4z M342.6,1137.2H374v31.4h-31.4V1137.2z M342.6,1171H374
	v31.4h-31.4V1171z M342.6,1204.8H374v31.4h-31.4V1204.8z M308.8-11.8h31.4v31.4h-31.4V-11.8z M308.8,22h31.4v31.4h-31.4V22z
	 M308.8,55.8h31.4v31.4h-31.4V55.8z M308.8,89.6h31.4V121h-31.4V89.6z M308.8,123.4h31.4v31.4h-31.4V123.4z M308.8,157.2h31.4v31.4
	h-31.4V157.2z M308.8,191h31.4v31.4h-31.4V191z M308.8,224.8h31.4v31.4h-31.4V224.8z M308.8,258.6h31.4V290h-31.4V258.6z
	 M308.8,292.3h31.4v31.4h-31.4V292.3z M308.8,326.1h31.4v31.4h-31.4V326.1z M308.8,359.9h31.4v31.4h-31.4V359.9z M308.8,393.7h31.4
	v31.4h-31.4V393.7z M308.8,427.5h31.4v31.4h-31.4V427.5z M308.8,461.3h31.4v31.4h-31.4V461.3z M308.8,495.1h31.4v31.4h-31.4V495.1z
	 M308.8,528.9h31.4v31.4h-31.4V528.9z M308.8,562.7h31.4v31.4h-31.4V562.7z M308.8,596.5h31.4v31.4h-31.4V596.5z M308.8,630.3h31.4
	v31.4h-31.4V630.3z M308.8,664.1h31.4v31.4h-31.4V664.1z M308.8,697.9h31.4v31.4h-31.4V697.9z M308.8,731.7h31.4v31.4h-31.4V731.7z
	 M308.8,765.5h31.4v31.4h-31.4V765.5z M308.8,799.3h31.4v31.4h-31.4V799.3z M308.8,833.1h31.4v31.4h-31.4V833.1z M308.8,866.9h31.4
	v31.4h-31.4V866.9z M308.8,900.6h31.4v31.4h-31.4V900.6z M308.8,934.4h31.4v31.4h-31.4V934.4z M308.8,968.2h31.4v31.4h-31.4V968.2z
	 M308.8,1002h31.4v31.4h-31.4V1002z M308.8,1035.8h31.4v31.4h-31.4V1035.8z M308.8,1069.6h31.4v31.4h-31.4V1069.6z M308.8,1103.4
	h31.4v31.4h-31.4V1103.4z M308.8,1137.2h31.4v31.4h-31.4V1137.2z M308.8,1171h31.4v31.4h-31.4V1171z M308.8,1204.8h31.4v31.4h-31.4
	V1204.8z M275-11.8h31.4v31.4H275V-11.8z M275,22h31.4v31.4H275V22z M275,55.8h31.4v31.4H275V55.8z M275,89.6h31.4V121H275V89.6z
	 M275,123.4h31.4v31.4H275V123.4z M275,157.2h31.4v31.4H275V157.2z M275,191h31.4v31.4H275V191z M275,224.8h31.4v31.4H275V224.8z
	 M275,258.6h31.4V290H275V258.6z M275,292.3h31.4v31.4H275V292.3z M275,326.1h31.4v31.4H275V326.1z M275,359.9h31.4v31.4H275V359.9z
	 M275,393.7h31.4v31.4H275V393.7z M275,427.5h31.4v31.4H275V427.5z M275,461.3h31.4v31.4H275V461.3z M275,495.1h31.4v31.4H275V495.1
	z M275,528.9h31.4v31.4H275V528.9z M275,562.7h31.4v31.4H275V562.7z M275,596.5h31.4v31.4H275V596.5z M275,630.3h31.4v31.4H275
	V630.3z M275,664.1h31.4v31.4H275V664.1z M275,697.9h31.4v31.4H275V697.9z M275,731.7h31.4v31.4H275V731.7z M275,765.5h31.4v31.4
	H275V765.5z M275,799.3h31.4v31.4H275V799.3z M275,833.1h31.4v31.4H275V833.1z M275,866.9h31.4v31.4H275V866.9z M275,900.6h31.4
	v31.4H275V900.6z M275,934.4h31.4v31.4H275V934.4z M275,968.2h31.4v31.4H275V968.2z M275,1002h31.4v31.4H275V1002z M275,1035.8h31.4
	v31.4H275V1035.8z M275,1069.6h31.4v31.4H275V1069.6z M275,1103.4h31.4v31.4H275V1103.4z M275,1137.2h31.4v31.4H275V1137.2z
	 M275,1171h31.4v31.4H275V1171z M275,1204.8h31.4v31.4H275V1204.8z M241.2-11.8h31.4v31.4h-31.4V-11.8z M241.2,22h31.4v31.4h-31.4
	V22z M241.2,55.8h31.4v31.4h-31.4V55.8z M241.2,89.6h31.4V121h-31.4V89.6z M241.2,123.4h31.4v31.4h-31.4V123.4z M241.2,157.2h31.4
	v31.4h-31.4V157.2z M241.2,191h31.4v31.4h-31.4V191z M241.2,224.8h31.4v31.4h-31.4V224.8z M241.2,258.6h31.4V290h-31.4V258.6z
	 M241.2,292.3h31.4v31.4h-31.4V292.3z M241.2,326.1h31.4v31.4h-31.4V326.1z M241.2,359.9h31.4v31.4h-31.4V359.9z M241.2,393.7h31.4
	v31.4h-31.4V393.7z M241.2,427.5h31.4v31.4h-31.4V427.5z M241.2,461.3h31.4v31.4h-31.4V461.3z M241.2,495.1h31.4v31.4h-31.4V495.1z
	 M241.2,528.9h31.4v31.4h-31.4V528.9z M241.2,562.7h31.4v31.4h-31.4V562.7z M241.2,596.5h31.4v31.4h-31.4V596.5z M241.2,630.3h31.4
	v31.4h-31.4V630.3z M241.2,664.1h31.4v31.4h-31.4V664.1z M241.2,697.9h31.4v31.4h-31.4V697.9z M241.2,731.7h31.4v31.4h-31.4V731.7z
	 M241.2,765.5h31.4v31.4h-31.4V765.5z M241.2,799.3h31.4v31.4h-31.4V799.3z M241.2,833.1h31.4v31.4h-31.4V833.1z M241.2,866.9h31.4
	v31.4h-31.4V866.9z M241.2,900.6h31.4v31.4h-31.4V900.6z M241.2,934.4h31.4v31.4h-31.4V934.4z M241.2,968.2h31.4v31.4h-31.4V968.2z
	 M241.2,1002h31.4v31.4h-31.4V1002z M241.2,1035.8h31.4v31.4h-31.4V1035.8z M241.2,1069.6h31.4v31.4h-31.4V1069.6z M241.2,1103.4
	h31.4v31.4h-31.4V1103.4z M241.2,1137.2h31.4v31.4h-31.4V1137.2z M241.2,1171h31.4v31.4h-31.4V1171z M241.2,1204.8h31.4v31.4h-31.4
	V1204.8z M207.5-11.8h31.4v31.4h-31.4V-11.8z M207.5,22h31.4v31.4h-31.4V22z M207.5,55.8h31.4v31.4h-31.4V55.8z M207.5,89.6h31.4
	V121h-31.4V89.6z M207.5,123.4h31.4v31.4h-31.4V123.4z M207.5,157.2h31.4v31.4h-31.4V157.2z M207.5,191h31.4v31.4h-31.4V191z
	 M207.5,224.8h31.4v31.4h-31.4V224.8z M207.5,258.6h31.4V290h-31.4V258.6z M207.5,292.3h31.4v31.4h-31.4V292.3z M207.5,326.1h31.4
	v31.4h-31.4V326.1z M207.5,359.9h31.4v31.4h-31.4V359.9z M207.5,393.7h31.4v31.4h-31.4V393.7z M207.5,427.5h31.4v31.4h-31.4V427.5z
	 M207.5,461.3h31.4v31.4h-31.4V461.3z M207.5,495.1h31.4v31.4h-31.4V495.1z M207.5,528.9h31.4v31.4h-31.4V528.9z M207.5,562.7h31.4
	v31.4h-31.4V562.7z M207.5,596.5h31.4v31.4h-31.4V596.5z M207.5,630.3h31.4v31.4h-31.4V630.3z M207.5,664.1h31.4v31.4h-31.4V664.1z
	 M207.5,697.9h31.4v31.4h-31.4V697.9z M207.5,731.7h31.4v31.4h-31.4V731.7z M207.5,765.5h31.4v31.4h-31.4V765.5z M207.5,799.3h31.4
	v31.4h-31.4V799.3z M207.5,833.1h31.4v31.4h-31.4V833.1z M207.5,866.9h31.4v31.4h-31.4V866.9z M207.5,900.6h31.4v31.4h-31.4V900.6z
	 M207.5,934.4h31.4v31.4h-31.4V934.4z M207.5,968.2h31.4v31.4h-31.4V968.2z M207.5,1002h31.4v31.4h-31.4V1002z M207.5,1035.8h31.4
	v31.4h-31.4V1035.8z M207.5,1069.6h31.4v31.4h-31.4V1069.6z M207.5,1103.4h31.4v31.4h-31.4V1103.4z M207.5,1137.2h31.4v31.4h-31.4
	V1137.2z M207.5,1171h31.4v31.4h-31.4V1171z M207.5,1204.8h31.4v31.4h-31.4V1204.8z M173.7-11.8h31.4v31.4h-31.4V-11.8z M173.7,22
	h31.4v31.4h-31.4V22z M173.7,55.8h31.4v31.4h-31.4V55.8z M173.7,89.6h31.4V121h-31.4V89.6z M173.7,123.4h31.4v31.4h-31.4V123.4z
	 M173.7,157.2h31.4v31.4h-31.4V157.2z M173.7,191h31.4v31.4h-31.4V191z M173.7,224.8h31.4v31.4h-31.4V224.8z M173.7,258.6h31.4V290
	h-31.4V258.6z M173.7,292.3h31.4v31.4h-31.4V292.3z M173.7,326.1h31.4v31.4h-31.4V326.1z M173.7,359.9h31.4v31.4h-31.4V359.9z
	 M173.7,393.7h31.4v31.4h-31.4V393.7z M173.7,427.5h31.4v31.4h-31.4V427.5z M173.7,461.3h31.4v31.4h-31.4V461.3z M173.7,495.1h31.4
	v31.4h-31.4V495.1z M173.7,528.9h31.4v31.4h-31.4V528.9z M173.7,562.7h31.4v31.4h-31.4V562.7z M173.7,596.5h31.4v31.4h-31.4V596.5z
	 M173.7,630.3h31.4v31.4h-31.4V630.3z M173.7,664.1h31.4v31.4h-31.4V664.1z M173.7,697.9h31.4v31.4h-31.4V697.9z M173.7,731.7h31.4
	v31.4h-31.4V731.7z M173.7,765.5h31.4v31.4h-31.4V765.5z M173.7,799.3h31.4v31.4h-31.4V799.3z M173.7,833.1h31.4v31.4h-31.4V833.1z
	 M173.7,866.9h31.4v31.4h-31.4V866.9z M173.7,900.6h31.4v31.4h-31.4V900.6z M173.7,934.4h31.4v31.4h-31.4V934.4z M173.7,968.2h31.4
	v31.4h-31.4V968.2z M173.7,1002h31.4v31.4h-31.4V1002z M173.7,1035.8h31.4v31.4h-31.4V1035.8z M173.7,1069.6h31.4v31.4h-31.4V1069.6
	z M173.7,1103.4h31.4v31.4h-31.4V1103.4z M173.7,1137.2h31.4v31.4h-31.4V1137.2z M173.7,1171h31.4v31.4h-31.4V1171z M173.7,1204.8
	h31.4v31.4h-31.4V1204.8z M139.9-11.8h31.4v31.4h-31.4V-11.8z M139.9,22h31.4v31.4h-31.4V22z M139.9,55.8h31.4v31.4h-31.4V55.8z
	 M139.9,89.6h31.4V121h-31.4V89.6z M139.9,123.4h31.4v31.4h-31.4V123.4z M139.9,157.2h31.4v31.4h-31.4V157.2z M139.9,191h31.4v31.4
	h-31.4V191z M139.9,224.8h31.4v31.4h-31.4V224.8z M139.9,258.6h31.4V290h-31.4V258.6z M139.9,292.3h31.4v31.4h-31.4V292.3z
	 M139.9,326.1h31.4v31.4h-31.4V326.1z M139.9,359.9h31.4v31.4h-31.4V359.9z M139.9,393.7h31.4v31.4h-31.4V393.7z M139.9,427.5h31.4
	v31.4h-31.4V427.5z M139.9,461.3h31.4v31.4h-31.4V461.3z M139.9,495.1h31.4v31.4h-31.4V495.1z M139.9,528.9h31.4v31.4h-31.4V528.9z
	 M139.9,562.7h31.4v31.4h-31.4V562.7z M139.9,596.5h31.4v31.4h-31.4V596.5z M139.9,630.3h31.4v31.4h-31.4V630.3z M139.9,664.1h31.4
	v31.4h-31.4V664.1z M139.9,697.9h31.4v31.4h-31.4V697.9z M139.9,731.7h31.4v31.4h-31.4V731.7z M139.9,765.5h31.4v31.4h-31.4V765.5z
	 M139.9,799.3h31.4v31.4h-31.4V799.3z M139.9,833.1h31.4v31.4h-31.4V833.1z M139.9,866.9h31.4v31.4h-31.4V866.9z M139.9,900.6h31.4
	v31.4h-31.4V900.6z M139.9,934.4h31.4v31.4h-31.4V934.4z M139.9,968.2h31.4v31.4h-31.4V968.2z M139.9,1002h31.4v31.4h-31.4V1002z
	 M139.9,1035.8h31.4v31.4h-31.4V1035.8z M139.9,1069.6h31.4v31.4h-31.4V1069.6z M139.9,1103.4h31.4v31.4h-31.4V1103.4z
	 M139.9,1137.2h31.4v31.4h-31.4V1137.2z M139.9,1171h31.4v31.4h-31.4V1171z M139.9,1204.8h31.4v31.4h-31.4V1204.8z M106.1-11.8h31.4
	v31.4h-31.4V-11.8z M106.1,22h31.4v31.4h-31.4V22z M106.1,55.8h31.4v31.4h-31.4V55.8z M106.1,89.6h31.4V121h-31.4V89.6z
	 M106.1,123.4h31.4v31.4h-31.4V123.4z M106.1,157.2h31.4v31.4h-31.4V157.2z M106.1,191h31.4v31.4h-31.4V191z M106.1,224.8h31.4v31.4
	h-31.4V224.8z M106.1,258.6h31.4V290h-31.4V258.6z M106.1,292.3h31.4v31.4h-31.4V292.3z M106.1,326.1h31.4v31.4h-31.4V326.1z
	 M106.1,359.9h31.4v31.4h-31.4V359.9z M106.1,393.7h31.4v31.4h-31.4V393.7z M106.1,427.5h31.4v31.4h-31.4V427.5z M106.1,461.3h31.4
	v31.4h-31.4V461.3z M106.1,495.1h31.4v31.4h-31.4V495.1z M106.1,528.9h31.4v31.4h-31.4V528.9z M106.1,562.7h31.4v31.4h-31.4V562.7z
	 M106.1,596.5h31.4v31.4h-31.4V596.5z M106.1,630.3h31.4v31.4h-31.4V630.3z M106.1,664.1h31.4v31.4h-31.4V664.1z M106.1,697.9h31.4
	v31.4h-31.4V697.9z M106.1,731.7h31.4v31.4h-31.4V731.7z M106.1,765.5h31.4v31.4h-31.4V765.5z M106.1,799.3h31.4v31.4h-31.4V799.3z
	 M106.1,833.1h31.4v31.4h-31.4V833.1z M106.1,866.9h31.4v31.4h-31.4V866.9z M106.1,900.6h31.4v31.4h-31.4V900.6z M106.1,934.4h31.4
	v31.4h-31.4V934.4z M106.1,968.2h31.4v31.4h-31.4V968.2z M106.1,1002h31.4v31.4h-31.4V1002z M106.1,1035.8h31.4v31.4h-31.4V1035.8z
	 M106.1,1069.6h31.4v31.4h-31.4V1069.6z M106.1,1103.4h31.4v31.4h-31.4V1103.4z M106.1,1137.2h31.4v31.4h-31.4V1137.2z M106.1,1171
	h31.4v31.4h-31.4V1171z M106.1,1204.8h31.4v31.4h-31.4V1204.8z M72.3-11.8h31.4v31.4H72.3V-11.8z M72.3,22h31.4v31.4H72.3V22z
	 M72.3,55.8h31.4v31.4H72.3V55.8z M72.3,89.6h31.4V121H72.3V89.6z M72.3,123.4h31.4v31.4H72.3V123.4z M72.3,157.2h31.4v31.4H72.3
	V157.2z M72.3,191h31.4v31.4H72.3V191z M72.3,224.8h31.4v31.4H72.3V224.8z M72.3,258.6h31.4V290H72.3V258.6z M72.3,292.3h31.4v31.4
	H72.3V292.3z M72.3,326.1h31.4v31.4H72.3V326.1z M72.3,359.9h31.4v31.4H72.3V359.9z M72.3,393.7h31.4v31.4H72.3V393.7z M72.3,427.5
	h31.4v31.4H72.3V427.5z M72.3,461.3h31.4v31.4H72.3V461.3z M72.3,495.1h31.4v31.4H72.3V495.1z M72.3,528.9h31.4v31.4H72.3V528.9z
	 M72.3,562.7h31.4v31.4H72.3V562.7z M72.3,596.5h31.4v31.4H72.3V596.5z M72.3,630.3h31.4v31.4H72.3V630.3z M72.3,664.1h31.4v31.4
	H72.3V664.1z M72.3,697.9h31.4v31.4H72.3V697.9z M72.3,731.7h31.4v31.4H72.3V731.7z M72.3,765.5h31.4v31.4H72.3V765.5z M72.3,799.3
	h31.4v31.4H72.3V799.3z M72.3,833.1h31.4v31.4H72.3V833.1z M72.3,866.9h31.4v31.4H72.3V866.9z M72.3,900.6h31.4v31.4H72.3V900.6z
	 M72.3,934.4h31.4v31.4H72.3V934.4z M72.3,968.2h31.4v31.4H72.3V968.2z M72.3,1002h31.4v31.4H72.3V1002z M72.3,1035.8h31.4v31.4
	H72.3V1035.8z M72.3,1069.6h31.4v31.4H72.3V1069.6z M72.3,1103.4h31.4v31.4H72.3V1103.4z M72.3,1137.2h31.4v31.4H72.3V1137.2z
	 M72.3,1171h31.4v31.4H72.3V1171z M72.3,1204.8h31.4v31.4H72.3V1204.8z M38.5-11.8h31.4v31.4H38.5V-11.8z M38.5,22h31.4v31.4H38.5
	V22z M38.5,55.8h31.4v31.4H38.5V55.8z M38.5,89.6h31.4V121H38.5V89.6z M38.5,123.4h31.4v31.4H38.5V123.4z M38.5,157.2h31.4v31.4
	H38.5V157.2z M38.5,191h31.4v31.4H38.5V191z M38.5,224.8h31.4v31.4H38.5V224.8z M38.5,258.6h31.4V290H38.5V258.6z M38.5,292.3h31.4
	v31.4H38.5V292.3z M38.5,326.1h31.4v31.4H38.5V326.1z M38.5,359.9h31.4v31.4H38.5V359.9z M38.5,393.7h31.4v31.4H38.5V393.7z
	 M38.5,427.5h31.4v31.4H38.5V427.5z M38.5,461.3h31.4v31.4H38.5V461.3z M38.5,495.1h31.4v31.4H38.5V495.1z M38.5,528.9h31.4v31.4
	H38.5V528.9z M38.5,562.7h31.4v31.4H38.5V562.7z M38.5,596.5h31.4v31.4H38.5V596.5z M38.5,630.3h31.4v31.4H38.5V630.3z M38.5,664.1
	h31.4v31.4H38.5V664.1z M38.5,697.9h31.4v31.4H38.5V697.9z M38.5,731.7h31.4v31.4H38.5V731.7z M38.5,765.5h31.4v31.4H38.5V765.5z
	 M38.5,799.3h31.4v31.4H38.5V799.3z M38.5,833.1h31.4v31.4H38.5V833.1z M38.5,866.9h31.4v31.4H38.5V866.9z M38.5,900.6h31.4v31.4
	H38.5V900.6z M38.5,934.4h31.4v31.4H38.5V934.4z M38.5,968.2h31.4v31.4H38.5V968.2z M38.5,1002h31.4v31.4H38.5V1002z M38.5,1035.8
	h31.4v31.4H38.5V1035.8z M38.5,1069.6h31.4v31.4H38.5V1069.6z M38.5,1103.4h31.4v31.4H38.5V1103.4z M38.5,1137.2h31.4v31.4H38.5
	V1137.2z M38.5,1171h31.4v31.4H38.5V1171z M38.5,1204.8h31.4v31.4H38.5V1204.8z M4.7-11.8h31.4v31.4H4.7V-11.8z M4.7,22h31.4v31.4
	H4.7V22z M4.7,55.8h31.4v31.4H4.7V55.8z M4.7,89.6h31.4V121H4.7V89.6z M4.7,123.4h31.4v31.4H4.7V123.4z M4.7,157.2h31.4v31.4H4.7
	V157.2z M4.7,191h31.4v31.4H4.7V191z M4.7,224.8h31.4v31.4H4.7V224.8z M4.7,258.6h31.4V290H4.7V258.6z M4.7,292.3h31.4v31.4H4.7
	V292.3z M4.7,326.1h31.4v31.4H4.7V326.1z M4.7,359.9h31.4v31.4H4.7V359.9z M4.7,393.7h31.4v31.4H4.7V393.7z M4.7,427.5h31.4v31.4
	H4.7V427.5z M4.7,461.3h31.4v31.4H4.7V461.3z M4.7,495.1h31.4v31.4H4.7V495.1z M4.7,528.9h31.4v31.4H4.7V528.9z M4.7,562.7h31.4
	v31.4H4.7V562.7z M4.7,596.5h31.4v31.4H4.7V596.5z M4.7,630.3h31.4v31.4H4.7V630.3z M4.7,664.1h31.4v31.4H4.7V664.1z M4.7,697.9
	h31.4v31.4H4.7V697.9z M4.7,731.7h31.4v31.4H4.7V731.7z M4.7,765.5h31.4v31.4H4.7V765.5z M4.7,799.3h31.4v31.4H4.7V799.3z
	 M4.7,833.1h31.4v31.4H4.7V833.1z M4.7,866.9h31.4v31.4H4.7V866.9z M4.7,900.6h31.4v31.4H4.7V900.6z M4.7,934.4h31.4v31.4H4.7V934.4
	z M4.7,968.2h31.4v31.4H4.7V968.2z M4.7,1002h31.4v31.4H4.7V1002z M4.7,1035.8h31.4v31.4H4.7V1035.8z M4.7,1069.6h31.4v31.4H4.7
	V1069.6z M4.7,1103.4h31.4v31.4H4.7V1103.4z M4.7,1137.2h31.4v31.4H4.7V1137.2z M4.7,1171h31.4v31.4H4.7V1171z M4.7,1204.8h31.4
	v31.4H4.7V1204.8z M610.6,1270v2.4v31.4v2.4v31.4v2.4v31.4v2.4v31.4h-31.4h-2.4h-31.4H543h-31.4h-2.4h-31.4h-2.4H444h-2.4h-31.4
	h-2.4h-31.4H374h-31.4h-2.4h-31.4h-2.4H275h-2.4h-31.4h-2.4h-31.4h-2.4h-31.4h-2.4h-31.4h-2.4h-31.4h-2.4H72.3h-2.4H38.5h-2.4H4.7
	v-31.4v-2.4V1340v-2.4v-31.4v-2.4v-31.4v-2.4v-31.4h31.4h2.4h31.4h2.4h31.4h2.4h31.4h2.4h31.4h2.4h31.4h2.4h31.4h2.4h31.4h2.4h31.4
	h2.4h31.4h2.4H374h2.4h31.4h2.4h31.4h2.4h31.4h2.4h31.4h2.4H543h2.4h31.4h2.4h31.4V1270z M610.6,1236.2h-31.4v-31.4h31.4V1236.2z
	 M610.6,1202.4h-31.4V1171h31.4V1202.4z M610.6,1168.6h-31.4v-31.4h31.4V1168.6z M610.6,1134.8h-31.4v-31.4h31.4V1134.8z
	 M610.6,1101h-31.4v-31.4h31.4V1101z M610.6,1067.2h-31.4v-31.4h31.4V1067.2z M610.6,1033.4h-31.4V1002h31.4V1033.4z M610.6,999.6
	h-31.4v-31.4h31.4V999.6z M610.6,965.8h-31.4v-31.4h31.4V965.8z M610.6,932.1h-31.4v-31.4h31.4V932.1z M610.6,898.3h-31.4v-31.4
	h31.4V898.3z M610.6,864.5h-31.4v-31.4h31.4V864.5z M610.6,830.7h-31.4v-31.4h31.4V830.7z M610.6,796.9h-31.4v-31.4h31.4V796.9z
	 M610.6,763.1h-31.4v-31.4h31.4V763.1z M610.6,729.3h-31.4v-31.4h31.4V729.3z M610.6,695.5h-31.4v-31.4h31.4V695.5z M610.6,661.7
	h-31.4v-31.4h31.4V661.7z M610.6,627.9h-31.4v-31.4h31.4V627.9z M610.6,594.1h-31.4v-31.4h31.4V594.1z M610.6,560.3h-31.4v-31.4
	h31.4V560.3z M610.6,526.5h-31.4v-31.4h31.4V526.5z M610.6,492.7h-31.4v-31.4h31.4V492.7z M610.6,458.9h-31.4v-31.4h31.4V458.9z
	 M610.6,425.1h-31.4v-31.4h31.4V425.1z M610.6,391.3h-31.4v-31.4h31.4V391.3z M610.6,357.6h-31.4v-31.4h31.4V357.6z M610.6,323.8
	h-31.4v-31.4h31.4V323.8z M610.6,290h-31.4v-31.4h31.4V290z M610.6,256.2h-31.4v-31.4h31.4V256.2z M610.6,222.4h-31.4V191h31.4
	V222.4z M610.6,188.6h-31.4v-31.4h31.4V188.6z M610.6,154.8h-31.4v-31.4h31.4V154.8z M610.6,121h-31.4V89.6h31.4V121z M610.6,87.2
	h-31.4V55.8h31.4V87.2z M610.6,53.4h-31.4V22h31.4V53.4z M610.6,19.6h-31.4v-31.4h31.4V19.6z M644.4,1405.2H613v-31.4h31.4V1405.2z
	 M644.4,1371.4H613V1340h31.4V1371.4z M644.4,1337.6H613v-31.4h31.4V1337.6z M644.4,1303.8H613v-31.4h31.4V1303.8z M644.4,1270H613
	v-31.4h31.4V1270z M644.4,1236.2H613v-31.4h31.4V1236.2z M644.4,1202.4H613V1171h31.4V1202.4z M644.4,1168.6H613v-31.4h31.4V1168.6z
	 M644.4,1134.8H613v-31.4h31.4V1134.8z M644.4,1101H613v-31.4h31.4V1101z M644.4,1067.2H613v-31.4h31.4V1067.2z M644.4,1033.4H613
	V1002h31.4V1033.4z M644.4,999.6H613v-31.4h31.4V999.6z M644.4,965.8H613v-31.4h31.4V965.8z M644.4,932.1H613v-31.4h31.4V932.1z
	 M644.4,898.3H613v-31.4h31.4V898.3z M644.4,864.5H613v-31.4h31.4V864.5z M644.4,830.7H613v-31.4h31.4V830.7z M644.4,796.9H613
	v-31.4h31.4V796.9z M644.4,763.1H613v-31.4h31.4V763.1z M644.4,729.3H613v-31.4h31.4V729.3z M644.4,695.5H613v-31.4h31.4V695.5z
	 M644.4,661.7H613v-31.4h31.4V661.7z M644.4,627.9H613v-31.4h31.4V627.9z M644.4,594.1H613v-31.4h31.4V594.1z M644.4,560.3H613
	v-31.4h31.4V560.3z M644.4,526.5H613v-31.4h31.4V526.5z M644.4,492.7H613v-31.4h31.4V492.7z M644.4,458.9H613v-31.4h31.4V458.9z
	 M644.4,425.1H613v-31.4h31.4V425.1z M644.4,391.3H613v-31.4h31.4V391.3z M644.4,357.6H613v-31.4h31.4V357.6z M644.4,323.8H613
	v-31.4h31.4V323.8z M644.4,290H613v-31.4h31.4V290z M644.4,256.2H613v-31.4h31.4V256.2z M644.4,222.4H613V191h31.4V222.4z
	 M644.4,188.6H613v-31.4h31.4V188.6z M644.4,154.8H613v-31.4h31.4V154.8z M644.4,121H613V89.6h31.4V121z M644.4,87.2H613V55.8h31.4
	V87.2z M644.4,53.4H613V22h31.4V53.4z M644.4,19.6H613v-31.4h31.4V19.6z M678.2,1405.2h-31.4v-31.4h31.4V1405.2z M678.2,1371.4
	h-31.4V1340h31.4V1371.4z M678.2,1337.6h-31.4v-31.4h31.4V1337.6z M678.2,1303.8h-31.4v-31.4h31.4V1303.8z M678.2,1270h-31.4v-31.4
	h31.4V1270z M678.2,1236.2h-31.4v-31.4h31.4V1236.2z M678.2,1202.4h-31.4V1171h31.4V1202.4z M678.2,1168.6h-31.4v-31.4h31.4V1168.6z
	 M678.2,1134.8h-31.4v-31.4h31.4V1134.8z M678.2,1101h-31.4v-31.4h31.4V1101z M678.2,1067.2h-31.4v-31.4h31.4V1067.2z M678.2,1033.4
	h-31.4V1002h31.4V1033.4z M678.2,999.6h-31.4v-31.4h31.4V999.6z M678.2,965.8h-31.4v-31.4h31.4V965.8z M678.2,932.1h-31.4v-31.4
	h31.4V932.1z M678.2,898.3h-31.4v-31.4h31.4V898.3z M678.2,864.5h-31.4v-31.4h31.4V864.5z M678.2,830.7h-31.4v-31.4h31.4V830.7z
	 M678.2,796.9h-31.4v-31.4h31.4V796.9z M678.2,763.1h-31.4v-31.4h31.4V763.1z M678.2,729.3h-31.4v-31.4h31.4V729.3z M678.2,695.5
	h-31.4v-31.4h31.4V695.5z M678.2,661.7h-31.4v-31.4h31.4V661.7z M678.2,627.9h-31.4v-31.4h31.4V627.9z M678.2,594.1h-31.4v-31.4
	h31.4V594.1z M678.2,560.3h-31.4v-31.4h31.4V560.3z M678.2,526.5h-31.4v-31.4h31.4V526.5z M678.2,492.7h-31.4v-31.4h31.4V492.7z
	 M678.2,458.9h-31.4v-31.4h31.4V458.9z M678.2,425.1h-31.4v-31.4h31.4V425.1z M678.2,391.3h-31.4v-31.4h31.4V391.3z M678.2,357.6
	h-31.4v-31.4h31.4V357.6z M678.2,323.8h-31.4v-31.4h31.4V323.8z M678.2,290h-31.4v-31.4h31.4V290z M678.2,256.2h-31.4v-31.4h31.4
	V256.2z M678.2,222.4h-31.4V191h31.4V222.4z M678.2,188.6h-31.4v-31.4h31.4V188.6z M678.2,154.8h-31.4v-31.4h31.4V154.8z M678.2,121
	h-31.4V89.6h31.4V121z M678.2,87.2h-31.4V55.8h31.4V87.2z M678.2,53.4h-31.4V22h31.4V53.4z M678.2,19.6h-31.4v-31.4h31.4V19.6z
	 M712,1405.2h-31.4v-31.4H712V1405.2z M712,1371.4h-31.4V1340H712V1371.4z M712,1337.6h-31.4v-31.4H712V1337.6z M712,1303.8h-31.4
	v-31.4H712V1303.8z M712,1270h-31.4v-31.4H712V1270z M712,1236.2h-31.4v-31.4H712V1236.2z M712,1202.4h-31.4V1171H712V1202.4z
	 M712,1168.6h-31.4v-31.4H712V1168.6z M712,1134.8h-31.4v-31.4H712V1134.8z M712,1101h-31.4v-31.4H712V1101z M712,1067.2h-31.4
	v-31.4H712V1067.2z M712,1033.4h-31.4V1002H712V1033.4z M712,999.6h-31.4v-31.4H712V999.6z M712,965.8h-31.4v-31.4H712V965.8z
	 M712,932.1h-31.4v-31.4H712V932.1z M712,898.3h-31.4v-31.4H712V898.3z M712,864.5h-31.4v-31.4H712V864.5z M712,830.7h-31.4v-31.4
	H712V830.7z M712,796.9h-31.4v-31.4H712V796.9z M712,763.1h-31.4v-31.4H712V763.1z M712,729.3h-31.4v-31.4H712V729.3z M712,695.5
	h-31.4v-31.4H712V695.5z M712,661.7h-31.4v-31.4H712V661.7z M712,627.9h-31.4v-31.4H712V627.9z M712,594.1h-31.4v-31.4H712V594.1z
	 M712,560.3h-31.4v-31.4H712V560.3z M712,526.5h-31.4v-31.4H712V526.5z M712,492.7h-31.4v-31.4H712V492.7z M712,458.9h-31.4v-31.4
	H712V458.9z M712,425.1h-31.4v-31.4H712V425.1z M712,391.3h-31.4v-31.4H712V391.3z M712,357.6h-31.4v-31.4H712V357.6z M712,323.8
	h-31.4v-31.4H712V323.8z M712,290h-31.4v-31.4H712V290z M712,256.2h-31.4v-31.4H712V256.2z M712,222.4h-31.4V191H712V222.4z
	 M712,188.6h-31.4v-31.4H712V188.6z M712,154.8h-31.4v-31.4H712V154.8z M712,121h-31.4V89.6H712V121z M712,87.2h-31.4V55.8H712V87.2
	z M712,53.4h-31.4V22H712V53.4z M712,19.6h-31.4v-31.4H712V19.6z M745.8,1405.2h-31.4v-31.4h31.4V1405.2z M745.8,1371.4h-31.4V1340
	h31.4V1371.4z M745.8,1337.6h-31.4v-31.4h31.4V1337.6z M745.8,1303.8h-31.4v-31.4h31.4V1303.8z M745.8,1270h-31.4v-31.4h31.4V1270z
	 M745.8,1236.2h-31.4v-31.4h31.4V1236.2z M745.8,1202.4h-31.4V1171h31.4V1202.4z M745.8,1168.6h-31.4v-31.4h31.4V1168.6z
	 M745.8,1134.8h-31.4v-31.4h31.4V1134.8z M745.8,1101h-31.4v-31.4h31.4V1101z M745.8,1067.2h-31.4v-31.4h31.4V1067.2z M745.8,1033.4
	h-31.4V1002h31.4V1033.4z M745.8,999.6h-31.4v-31.4h31.4V999.6z M745.8,965.8h-31.4v-31.4h31.4V965.8z M745.8,932.1h-31.4v-31.4
	h31.4V932.1z M745.8,898.3h-31.4v-31.4h31.4V898.3z M745.8,864.5h-31.4v-31.4h31.4V864.5z M745.8,830.7h-31.4v-31.4h31.4V830.7z
	 M745.8,796.9h-31.4v-31.4h31.4V796.9z M745.8,763.1h-31.4v-31.4h31.4V763.1z M745.8,729.3h-31.4v-31.4h31.4V729.3z M745.8,695.5
	h-31.4v-31.4h31.4V695.5z M745.8,661.7h-31.4v-31.4h31.4V661.7z M745.8,627.9h-31.4v-31.4h31.4V627.9z M745.8,594.1h-31.4v-31.4
	h31.4V594.1z M745.8,560.3h-31.4v-31.4h31.4V560.3z M745.8,526.5h-31.4v-31.4h31.4V526.5z M745.8,492.7h-31.4v-31.4h31.4V492.7z
	 M745.8,458.9h-31.4v-31.4h31.4V458.9z M745.8,425.1h-31.4v-31.4h31.4V425.1z M745.8,391.3h-31.4v-31.4h31.4V391.3z M745.8,357.6
	h-31.4v-31.4h31.4V357.6z M745.8,323.8h-31.4v-31.4h31.4V323.8z M745.8,290h-31.4v-31.4h31.4V290z M745.8,256.2h-31.4v-31.4h31.4
	V256.2z M745.8,222.4h-31.4V191h31.4V222.4z M745.8,188.6h-31.4v-31.4h31.4V188.6z M745.8,154.8h-31.4v-31.4h31.4V154.8z M745.8,121
	h-31.4V89.6h31.4V121z M745.8,87.2h-31.4V55.8h31.4V87.2z M745.8,53.4h-31.4V22h31.4V53.4z M745.8,19.6h-31.4v-31.4h31.4V19.6z
	 M779.6,1405.2h-31.4v-31.4h31.4V1405.2z M779.6,1371.4h-31.4V1340h31.4V1371.4z M779.6,1337.6h-31.4v-31.4h31.4V1337.6z
	 M779.6,1303.8h-31.4v-31.4h31.4V1303.8z M779.6,1270h-31.4v-31.4h31.4V1270z M779.6,1236.2h-31.4v-31.4h31.4V1236.2z M779.6,1202.4
	h-31.4V1171h31.4V1202.4z M779.6,1168.6h-31.4v-31.4h31.4V1168.6z M779.6,1134.8h-31.4v-31.4h31.4V1134.8z M779.6,1101h-31.4v-31.4
	h31.4V1101z M779.6,1067.2h-31.4v-31.4h31.4V1067.2z M779.6,1033.4h-31.4V1002h31.4V1033.4z M779.6,999.6h-31.4v-31.4h31.4V999.6z
	 M779.6,965.8h-31.4v-31.4h31.4V965.8z M779.6,932.1h-31.4v-31.4h31.4V932.1z M779.6,898.3h-31.4v-31.4h31.4V898.3z M779.6,864.5
	h-31.4v-31.4h31.4V864.5z M779.6,830.7h-31.4v-31.4h31.4V830.7z M779.6,796.9h-31.4v-31.4h31.4V796.9z M779.6,763.1h-31.4v-31.4
	h31.4V763.1z M779.6,729.3h-31.4v-31.4h31.4V729.3z M779.6,695.5h-31.4v-31.4h31.4V695.5z M779.6,661.7h-31.4v-31.4h31.4V661.7z
	 M779.6,627.9h-31.4v-31.4h31.4V627.9z M779.6,594.1h-31.4v-31.4h31.4V594.1z M779.6,560.3h-31.4v-31.4h31.4V560.3z M779.6,526.5
	h-31.4v-31.4h31.4V526.5z M779.6,492.7h-31.4v-31.4h31.4V492.7z M779.6,458.9h-31.4v-31.4h31.4V458.9z M779.6,425.1h-31.4v-31.4
	h31.4V425.1z M779.6,391.3h-31.4v-31.4h31.4V391.3z M779.6,357.6h-31.4v-31.4h31.4V357.6z M779.6,323.8h-31.4v-31.4h31.4V323.8z
	 M779.6,290h-31.4v-31.4h31.4V290z M779.6,256.2h-31.4v-31.4h31.4V256.2z M779.6,222.4h-31.4V191h31.4V222.4z M779.6,188.6h-31.4
	v-31.4h31.4V188.6z M779.6,154.8h-31.4v-31.4h31.4V154.8z M779.6,121h-31.4V89.6h31.4V121z M779.6,87.2h-31.4V55.8h31.4V87.2z
	 M779.6,53.4h-31.4V22h31.4V53.4z M779.6,19.6h-31.4v-31.4h31.4V19.6z M813.4,1405.2h-31.4v-31.4h31.4V1405.2z M813.4,1371.4h-31.4
	V1340h31.4V1371.4z M813.4,1337.6h-31.4v-31.4h31.4V1337.6z M813.4,1303.8h-31.4v-31.4h31.4V1303.8z M813.4,1270h-31.4v-31.4h31.4
	V1270z M813.4,1236.2h-31.4v-31.4h31.4V1236.2z M813.4,1202.4h-31.4V1171h31.4V1202.4z M813.4,1168.6h-31.4v-31.4h31.4V1168.6z
	 M813.4,1134.8h-31.4v-31.4h31.4V1134.8z M813.4,1101h-31.4v-31.4h31.4V1101z M813.4,1067.2h-31.4v-31.4h31.4V1067.2z M813.4,1033.4
	h-31.4V1002h31.4V1033.4z M813.4,999.6h-31.4v-31.4h31.4V999.6z M813.4,965.8h-31.4v-31.4h31.4V965.8z M813.4,932.1h-31.4v-31.4
	h31.4V932.1z M813.4,898.3h-31.4v-31.4h31.4V898.3z M813.4,864.5h-31.4v-31.4h31.4V864.5z M813.4,830.7h-31.4v-31.4h31.4V830.7z
	 M813.4,796.9h-31.4v-31.4h31.4V796.9z M813.4,763.1h-31.4v-31.4h31.4V763.1z M813.4,729.3h-31.4v-31.4h31.4V729.3z M813.4,695.5
	h-31.4v-31.4h31.4V695.5z M813.4,661.7h-31.4v-31.4h31.4V661.7z M813.4,627.9h-31.4v-31.4h31.4V627.9z M813.4,594.1h-31.4v-31.4
	h31.4V594.1z M813.4,560.3h-31.4v-31.4h31.4V560.3z M813.4,526.5h-31.4v-31.4h31.4V526.5z M813.4,492.7h-31.4v-31.4h31.4V492.7z
	 M813.4,458.9h-31.4v-31.4h31.4V458.9z M813.4,425.1h-31.4v-31.4h31.4V425.1z M813.4,391.3h-31.4v-31.4h31.4V391.3z M813.4,357.6
	h-31.4v-31.4h31.4V357.6z M813.4,323.8h-31.4v-31.4h31.4V323.8z M813.4,290h-31.4v-31.4h31.4V290z M813.4,256.2h-31.4v-31.4h31.4
	V256.2z M813.4,222.4h-31.4V191h31.4V222.4z M813.4,188.6h-31.4v-31.4h31.4V188.6z M813.4,154.8h-31.4v-31.4h31.4V154.8z M813.4,121
	h-31.4V89.6h31.4V121z M813.4,87.2h-31.4V55.8h31.4V87.2z M813.4,53.4h-31.4V22h31.4V53.4z M813.4,19.6h-31.4v-31.4h31.4V19.6z
	 M847.2,1405.2h-31.4v-31.4h31.4V1405.2z M847.2,1371.4h-31.4V1340h31.4V1371.4z M847.2,1337.6h-31.4v-31.4h31.4V1337.6z
	 M847.2,1303.8h-31.4v-31.4h31.4V1303.8z M847.2,1270h-31.4v-31.4h31.4V1270z M847.2,1236.2h-31.4v-31.4h31.4V1236.2z M847.2,1202.4
	h-31.4V1171h31.4V1202.4z M847.2,1168.6h-31.4v-31.4h31.4V1168.6z M847.2,1134.8h-31.4v-31.4h31.4V1134.8z M847.2,1101h-31.4v-31.4
	h31.4V1101z M847.2,1067.2h-31.4v-31.4h31.4V1067.2z M847.2,1033.4h-31.4V1002h31.4V1033.4z M847.2,999.6h-31.4v-31.4h31.4V999.6z
	 M847.2,965.8h-31.4v-31.4h31.4V965.8z M847.2,932.1h-31.4v-31.4h31.4V932.1z M847.2,898.3h-31.4v-31.4h31.4V898.3z M847.2,864.5
	h-31.4v-31.4h31.4V864.5z M847.2,830.7h-31.4v-31.4h31.4V830.7z M847.2,796.9h-31.4v-31.4h31.4V796.9z M847.2,763.1h-31.4v-31.4
	h31.4V763.1z M847.2,729.3h-31.4v-31.4h31.4V729.3z M847.2,695.5h-31.4v-31.4h31.4V695.5z M847.2,661.7h-31.4v-31.4h31.4V661.7z
	 M847.2,627.9h-31.4v-31.4h31.4V627.9z M847.2,594.1h-31.4v-31.4h31.4V594.1z M847.2,560.3h-31.4v-31.4h31.4V560.3z M847.2,526.5
	h-31.4v-31.4h31.4V526.5z M847.2,492.7h-31.4v-31.4h31.4V492.7z M847.2,458.9h-31.4v-31.4h31.4V458.9z M847.2,425.1h-31.4v-31.4
	h31.4V425.1z M847.2,391.3h-31.4v-31.4h31.4V391.3z M847.2,357.6h-31.4v-31.4h31.4V357.6z M847.2,323.8h-31.4v-31.4h31.4V323.8z
	 M847.2,290h-31.4v-31.4h31.4V290z M847.2,256.2h-31.4v-31.4h31.4V256.2z M847.2,222.4h-31.4V191h31.4V222.4z M847.2,188.6h-31.4
	v-31.4h31.4V188.6z M847.2,154.8h-31.4v-31.4h31.4V154.8z M847.2,121h-31.4V89.6h31.4V121z M847.2,87.2h-31.4V55.8h31.4V87.2z
	 M847.2,53.4h-31.4V22h31.4V53.4z M847.2,19.6h-31.4v-31.4h31.4V19.6z M880.9,1405.2h-31.4v-31.4h31.4V1405.2z M880.9,1371.4h-31.4
	V1340h31.4V1371.4z M880.9,1337.6h-31.4v-31.4h31.4V1337.6z M880.9,1303.8h-31.4v-31.4h31.4V1303.8z M880.9,1270h-31.4v-31.4h31.4
	V1270z M880.9,1236.2h-31.4v-31.4h31.4V1236.2z M880.9,1202.4h-31.4V1171h31.4V1202.4z M880.9,1168.6h-31.4v-31.4h31.4V1168.6z
	 M880.9,1134.8h-31.4v-31.4h31.4V1134.8z M880.9,1101h-31.4v-31.4h31.4V1101z M880.9,1067.2h-31.4v-31.4h31.4V1067.2z M880.9,1033.4
	h-31.4V1002h31.4V1033.4z M880.9,999.6h-31.4v-31.4h31.4V999.6z M880.9,965.8h-31.4v-31.4h31.4V965.8z M880.9,932.1h-31.4v-31.4
	h31.4V932.1z M880.9,898.3h-31.4v-31.4h31.4V898.3z M880.9,864.5h-31.4v-31.4h31.4V864.5z M880.9,830.7h-31.4v-31.4h31.4V830.7z
	 M880.9,796.9h-31.4v-31.4h31.4V796.9z M880.9,763.1h-31.4v-31.4h31.4V763.1z M880.9,729.3h-31.4v-31.4h31.4V729.3z M880.9,695.5
	h-31.4v-31.4h31.4V695.5z M880.9,661.7h-31.4v-31.4h31.4V661.7z M880.9,627.9h-31.4v-31.4h31.4V627.9z M880.9,594.1h-31.4v-31.4
	h31.4V594.1z M880.9,560.3h-31.4v-31.4h31.4V560.3z M880.9,526.5h-31.4v-31.4h31.4V526.5z M880.9,492.7h-31.4v-31.4h31.4V492.7z
	 M880.9,458.9h-31.4v-31.4h31.4V458.9z M880.9,425.1h-31.4v-31.4h31.4V425.1z M880.9,391.3h-31.4v-31.4h31.4V391.3z M880.9,357.6
	h-31.4v-31.4h31.4V357.6z M880.9,323.8h-31.4v-31.4h31.4V323.8z M880.9,290h-31.4v-31.4h31.4V290z M880.9,256.2h-31.4v-31.4h31.4
	V256.2z M880.9,222.4h-31.4V191h31.4V222.4z M880.9,188.6h-31.4v-31.4h31.4V188.6z M880.9,154.8h-31.4v-31.4h31.4V154.8z M880.9,121
	h-31.4V89.6h31.4V121z M880.9,87.2h-31.4V55.8h31.4V87.2z M880.9,53.4h-31.4V22h31.4V53.4z M880.9,19.6h-31.4v-31.4h31.4V19.6z
	 M914.7,1405.2h-31.4v-31.4h31.4V1405.2z M914.7,1371.4h-31.4V1340h31.4V1371.4z M914.7,1337.6h-31.4v-31.4h31.4V1337.6z
	 M914.7,1303.8h-31.4v-31.4h31.4V1303.8z M914.7,1270h-31.4v-31.4h31.4V1270z M914.7,1236.2h-31.4v-31.4h31.4V1236.2z M914.7,1202.4
	h-31.4V1171h31.4V1202.4z M914.7,1168.6h-31.4v-31.4h31.4V1168.6z M914.7,1134.8h-31.4v-31.4h31.4V1134.8z M914.7,1101h-31.4v-31.4
	h31.4V1101z M914.7,1067.2h-31.4v-31.4h31.4V1067.2z M914.7,1033.4h-31.4V1002h31.4V1033.4z M914.7,999.6h-31.4v-31.4h31.4V999.6z
	 M914.7,965.8h-31.4v-31.4h31.4V965.8z M914.7,932.1h-31.4v-31.4h31.4V932.1z M914.7,898.3h-31.4v-31.4h31.4V898.3z M914.7,864.5
	h-31.4v-31.4h31.4V864.5z M914.7,830.7h-31.4v-31.4h31.4V830.7z M914.7,796.9h-31.4v-31.4h31.4V796.9z M914.7,763.1h-31.4v-31.4
	h31.4V763.1z M914.7,729.3h-31.4v-31.4h31.4V729.3z M914.7,695.5h-31.4v-31.4h31.4V695.5z M914.7,661.7h-31.4v-31.4h31.4V661.7z
	 M914.7,627.9h-31.4v-31.4h31.4V627.9z M914.7,594.1h-31.4v-31.4h31.4V594.1z M914.7,560.3h-31.4v-31.4h31.4V560.3z M914.7,526.5
	h-31.4v-31.4h31.4V526.5z M914.7,492.7h-31.4v-31.4h31.4V492.7z M914.7,458.9h-31.4v-31.4h31.4V458.9z M914.7,425.1h-31.4v-31.4
	h31.4V425.1z M914.7,391.3h-31.4v-31.4h31.4V391.3z M914.7,357.6h-31.4v-31.4h31.4V357.6z M914.7,323.8h-31.4v-31.4h31.4V323.8z
	 M914.7,290h-31.4v-31.4h31.4V290z M914.7,256.2h-31.4v-31.4h31.4V256.2z M914.7,222.4h-31.4V191h31.4V222.4z M914.7,188.6h-31.4
	v-31.4h31.4V188.6z M914.7,154.8h-31.4v-31.4h31.4V154.8z M914.7,121h-31.4V89.6h31.4V121z M914.7,87.2h-31.4V55.8h31.4V87.2z
	 M914.7,53.4h-31.4V22h31.4V53.4z M914.7,19.6h-31.4v-31.4h31.4V19.6z M948.5,1405.2h-31.4v-31.4h31.4V1405.2z M948.5,1371.4h-31.4
	V1340h31.4V1371.4z M948.5,1337.6h-31.4v-31.4h31.4V1337.6z M948.5,1303.8h-31.4v-31.4h31.4V1303.8z M948.5,1270h-31.4v-31.4h31.4
	V1270z M948.5,1236.2h-31.4v-31.4h31.4V1236.2z M948.5,1202.4h-31.4V1171h31.4V1202.4z M948.5,1168.6h-31.4v-31.4h31.4V1168.6z
	 M948.5,1134.8h-31.4v-31.4h31.4V1134.8z M948.5,1101h-31.4v-31.4h31.4V1101z M948.5,1067.2h-31.4v-31.4h31.4V1067.2z M948.5,1033.4
	h-31.4V1002h31.4V1033.4z M948.5,999.6h-31.4v-31.4h31.4V999.6z M948.5,965.8h-31.4v-31.4h31.4V965.8z M948.5,932.1h-31.4v-31.4
	h31.4V932.1z M948.5,898.3h-31.4v-31.4h31.4V898.3z M948.5,864.5h-31.4v-31.4h31.4V864.5z M948.5,830.7h-31.4v-31.4h31.4V830.7z
	 M948.5,796.9h-31.4v-31.4h31.4V796.9z M948.5,763.1h-31.4v-31.4h31.4V763.1z M948.5,729.3h-31.4v-31.4h31.4V729.3z M948.5,695.5
	h-31.4v-31.4h31.4V695.5z M948.5,661.7h-31.4v-31.4h31.4V661.7z M948.5,627.9h-31.4v-31.4h31.4V627.9z M948.5,594.1h-31.4v-31.4
	h31.4V594.1z M948.5,560.3h-31.4v-31.4h31.4V560.3z M948.5,526.5h-31.4v-31.4h31.4V526.5z M948.5,492.7h-31.4v-31.4h31.4V492.7z
	 M948.5,458.9h-31.4v-31.4h31.4V458.9z M948.5,425.1h-31.4v-31.4h31.4V425.1z M948.5,391.3h-31.4v-31.4h31.4V391.3z M948.5,357.6
	h-31.4v-31.4h31.4V357.6z M948.5,323.8h-31.4v-31.4h31.4V323.8z M948.5,290h-31.4v-31.4h31.4V290z M948.5,256.2h-31.4v-31.4h31.4
	V256.2z M948.5,222.4h-31.4V191h31.4V222.4z M948.5,188.6h-31.4v-31.4h31.4V188.6z M948.5,154.8h-31.4v-31.4h31.4V154.8z M948.5,121
	h-31.4V89.6h31.4V121z M948.5,87.2h-31.4V55.8h31.4V87.2z M948.5,53.4h-31.4V22h31.4V53.4z M948.5,19.6h-31.4v-31.4h31.4V19.6z
	 M982.3,1405.2h-31.4v-31.4h31.4V1405.2z M982.3,1371.4h-31.4V1340h31.4V1371.4z M982.3,1337.6h-31.4v-31.4h31.4V1337.6z
	 M982.3,1303.8h-31.4v-31.4h31.4V1303.8z M982.3,1270h-31.4v-31.4h31.4V1270z M982.3,1236.2h-31.4v-31.4h31.4V1236.2z M982.3,1202.4
	h-31.4V1171h31.4V1202.4z M982.3,1168.6h-31.4v-31.4h31.4V1168.6z M982.3,1134.8h-31.4v-31.4h31.4V1134.8z M982.3,1101h-31.4v-31.4
	h31.4V1101z M982.3,1067.2h-31.4v-31.4h31.4V1067.2z M982.3,1033.4h-31.4V1002h31.4V1033.4z M982.3,999.6h-31.4v-31.4h31.4V999.6z
	 M982.3,965.8h-31.4v-31.4h31.4V965.8z M982.3,932.1h-31.4v-31.4h31.4V932.1z M982.3,898.3h-31.4v-31.4h31.4V898.3z M982.3,864.5
	h-31.4v-31.4h31.4V864.5z M982.3,830.7h-31.4v-31.4h31.4V830.7z M982.3,796.9h-31.4v-31.4h31.4V796.9z M982.3,763.1h-31.4v-31.4
	h31.4V763.1z M982.3,729.3h-31.4v-31.4h31.4V729.3z M982.3,695.5h-31.4v-31.4h31.4V695.5z M982.3,661.7h-31.4v-31.4h31.4V661.7z
	 M982.3,627.9h-31.4v-31.4h31.4V627.9z M982.3,594.1h-31.4v-31.4h31.4V594.1z M982.3,560.3h-31.4v-31.4h31.4V560.3z M982.3,526.5
	h-31.4v-31.4h31.4V526.5z M982.3,492.7h-31.4v-31.4h31.4V492.7z M982.3,458.9h-31.4v-31.4h31.4V458.9z M982.3,425.1h-31.4v-31.4
	h31.4V425.1z M982.3,391.3h-31.4v-31.4h31.4V391.3z M982.3,357.6h-31.4v-31.4h31.4V357.6z M982.3,323.8h-31.4v-31.4h31.4V323.8z
	 M982.3,290h-31.4v-31.4h31.4V290z M982.3,256.2h-31.4v-31.4h31.4V256.2z M982.3,222.4h-31.4V191h31.4V222.4z M982.3,188.6h-31.4
	v-31.4h31.4V188.6z M982.3,154.8h-31.4v-31.4h31.4V154.8z M982.3,121h-31.4V89.6h31.4V121z M982.3,87.2h-31.4V55.8h31.4V87.2z
	 M982.3,53.4h-31.4V22h31.4V53.4z M982.3,19.6h-31.4v-31.4h31.4V19.6z M1016.1,1405.2h-31.4v-31.4h31.4V1405.2z M1016.1,1371.4
	h-31.4V1340h31.4V1371.4z M1016.1,1337.6h-31.4v-31.4h31.4V1337.6z M1016.1,1303.8h-31.4v-31.4h31.4V1303.8z M1016.1,1270h-31.4
	v-31.4h31.4V1270z M1016.1,1236.2h-31.4v-31.4h31.4V1236.2z M1016.1,1202.4h-31.4V1171h31.4V1202.4z M1016.1,1168.6h-31.4v-31.4
	h31.4V1168.6z M1016.1,1134.8h-31.4v-31.4h31.4V1134.8z M1016.1,1101h-31.4v-31.4h31.4V1101z M1016.1,1067.2h-31.4v-31.4h31.4
	V1067.2z M1016.1,1033.4h-31.4V1002h31.4V1033.4z M1016.1,999.6h-31.4v-31.4h31.4V999.6z M1016.1,965.8h-31.4v-31.4h31.4V965.8z
	 M1016.1,932.1h-31.4v-31.4h31.4V932.1z M1016.1,898.3h-31.4v-31.4h31.4V898.3z M1016.1,864.5h-31.4v-31.4h31.4V864.5z
	 M1016.1,830.7h-31.4v-31.4h31.4V830.7z M1016.1,796.9h-31.4v-31.4h31.4V796.9z M1016.1,763.1h-31.4v-31.4h31.4V763.1z
	 M1016.1,729.3h-31.4v-31.4h31.4V729.3z M1016.1,695.5h-31.4v-31.4h31.4V695.5z M1016.1,661.7h-31.4v-31.4h31.4V661.7z
	 M1016.1,627.9h-31.4v-31.4h31.4V627.9z M1016.1,594.1h-31.4v-31.4h31.4V594.1z M1016.1,560.3h-31.4v-31.4h31.4V560.3z
	 M1016.1,526.5h-31.4v-31.4h31.4V526.5z M1016.1,492.7h-31.4v-31.4h31.4V492.7z M1016.1,458.9h-31.4v-31.4h31.4V458.9z
	 M1016.1,425.1h-31.4v-31.4h31.4V425.1z M1016.1,391.3h-31.4v-31.4h31.4V391.3z M1016.1,357.6h-31.4v-31.4h31.4V357.6z
	 M1016.1,323.8h-31.4v-31.4h31.4V323.8z M1016.1,290h-31.4v-31.4h31.4V290z M1016.1,256.2h-31.4v-31.4h31.4V256.2z M1016.1,222.4
	h-31.4V191h31.4V222.4z M1016.1,188.6h-31.4v-31.4h31.4V188.6z M1016.1,154.8h-31.4v-31.4h31.4V154.8z M1016.1,121h-31.4V89.6h31.4
	V121z M1016.1,87.2h-31.4V55.8h31.4V87.2z M1016.1,53.4h-31.4V22h31.4V53.4z M1016.1,19.6h-31.4v-31.4h31.4V19.6z M1049.9,1405.2
	h-31.4v-31.4h31.4V1405.2z M1049.9,1371.4h-31.4V1340h31.4V1371.4z M1049.9,1337.6h-31.4v-31.4h31.4V1337.6z M1049.9,1303.8h-31.4
	v-31.4h31.4V1303.8z M1049.9,1270h-31.4v-31.4h31.4V1270z M1049.9,1236.2h-31.4v-31.4h31.4V1236.2z M1049.9,1202.4h-31.4V1171h31.4
	V1202.4z M1049.9,1168.6h-31.4v-31.4h31.4V1168.6z M1049.9,1134.8h-31.4v-31.4h31.4V1134.8z M1049.9,1101h-31.4v-31.4h31.4V1101z
	 M1049.9,1067.2h-31.4v-31.4h31.4V1067.2z M1049.9,1033.4h-31.4V1002h31.4V1033.4z M1049.9,999.6h-31.4v-31.4h31.4V999.6z
	 M1049.9,965.8h-31.4v-31.4h31.4V965.8z M1049.9,932.1h-31.4v-31.4h31.4V932.1z M1049.9,898.3h-31.4v-31.4h31.4V898.3z
	 M1049.9,864.5h-31.4v-31.4h31.4V864.5z M1049.9,830.7h-31.4v-31.4h31.4V830.7z M1049.9,796.9h-31.4v-31.4h31.4V796.9z
	 M1049.9,763.1h-31.4v-31.4h31.4V763.1z M1049.9,729.3h-31.4v-31.4h31.4V729.3z M1049.9,695.5h-31.4v-31.4h31.4V695.5z
	 M1049.9,661.7h-31.4v-31.4h31.4V661.7z M1049.9,627.9h-31.4v-31.4h31.4V627.9z M1049.9,594.1h-31.4v-31.4h31.4V594.1z
	 M1049.9,560.3h-31.4v-31.4h31.4V560.3z M1049.9,526.5h-31.4v-31.4h31.4V526.5z M1049.9,492.7h-31.4v-31.4h31.4V492.7z
	 M1049.9,458.9h-31.4v-31.4h31.4V458.9z M1049.9,425.1h-31.4v-31.4h31.4V425.1z M1049.9,391.3h-31.4v-31.4h31.4V391.3z
	 M1049.9,357.6h-31.4v-31.4h31.4V357.6z M1049.9,323.8h-31.4v-31.4h31.4V323.8z M1049.9,290h-31.4v-31.4h31.4V290z M1049.9,256.2
	h-31.4v-31.4h31.4V256.2z M1049.9,222.4h-31.4V191h31.4V222.4z M1049.9,188.6h-31.4v-31.4h31.4V188.6z M1049.9,154.8h-31.4v-31.4
	h31.4V154.8z M1049.9,121h-31.4V89.6h31.4V121z M1049.9,87.2h-31.4V55.8h31.4V87.2z M1049.9,53.4h-31.4V22h31.4V53.4z M1049.9,19.6
	h-31.4v-31.4h31.4V19.6z M1083.7,1405.2h-31.4v-31.4h31.4V1405.2z M1083.7,1371.4h-31.4V1340h31.4V1371.4z M1083.7,1337.6h-31.4
	v-31.4h31.4V1337.6z M1083.7,1303.8h-31.4v-31.4h31.4V1303.8z M1083.7,1270h-31.4v-31.4h31.4V1270z M1083.7,1236.2h-31.4v-31.4h31.4
	V1236.2z M1083.7,1202.4h-31.4V1171h31.4V1202.4z M1083.7,1168.6h-31.4v-31.4h31.4V1168.6z M1083.7,1134.8h-31.4v-31.4h31.4V1134.8z
	 M1083.7,1101h-31.4v-31.4h31.4V1101z M1083.7,1067.2h-31.4v-31.4h31.4V1067.2z M1083.7,1033.4h-31.4V1002h31.4V1033.4z
	 M1083.7,999.6h-31.4v-31.4h31.4V999.6z M1083.7,965.8h-31.4v-31.4h31.4V965.8z M1083.7,932.1h-31.4v-31.4h31.4V932.1z
	 M1083.7,898.3h-31.4v-31.4h31.4V898.3z M1083.7,864.5h-31.4v-31.4h31.4V864.5z M1083.7,830.7h-31.4v-31.4h31.4V830.7z
	 M1083.7,796.9h-31.4v-31.4h31.4V796.9z M1083.7,763.1h-31.4v-31.4h31.4V763.1z M1083.7,729.3h-31.4v-31.4h31.4V729.3z
	 M1083.7,695.5h-31.4v-31.4h31.4V695.5z M1083.7,661.7h-31.4v-31.4h31.4V661.7z M1083.7,627.9h-31.4v-31.4h31.4V627.9z
	 M1083.7,594.1h-31.4v-31.4h31.4V594.1z M1083.7,560.3h-31.4v-31.4h31.4V560.3z M1083.7,526.5h-31.4v-31.4h31.4V526.5z
	 M1083.7,492.7h-31.4v-31.4h31.4V492.7z M1083.7,458.9h-31.4v-31.4h31.4V458.9z M1083.7,425.1h-31.4v-31.4h31.4V425.1z
	 M1083.7,391.3h-31.4v-31.4h31.4V391.3z M1083.7,357.6h-31.4v-31.4h31.4V357.6z M1083.7,323.8h-31.4v-31.4h31.4V323.8z M1083.7,290
	h-31.4v-31.4h31.4V290z M1083.7,256.2h-31.4v-31.4h31.4V256.2z M1083.7,222.4h-31.4V191h31.4V222.4z M1083.7,188.6h-31.4v-31.4h31.4
	V188.6z M1083.7,154.8h-31.4v-31.4h31.4V154.8z M1083.7,121h-31.4V89.6h31.4V121z M1083.7,87.2h-31.4V55.8h31.4V87.2z M1083.7,53.4
	h-31.4V22h31.4V53.4z M1083.7,19.6h-31.4v-31.4h31.4V19.6z M1117.5,1405.2h-31.4v-31.4h31.4V1405.2z M1117.5,1371.4h-31.4V1340h31.4
	V1371.4z M1117.5,1337.6h-31.4v-31.4h31.4V1337.6z M1117.5,1303.8h-31.4v-31.4h31.4V1303.8z M1117.5,1270h-31.4v-31.4h31.4V1270z
	 M1117.5,1236.2h-31.4v-31.4h31.4V1236.2z M1117.5,1202.4h-31.4V1171h31.4V1202.4z M1117.5,1168.6h-31.4v-31.4h31.4V1168.6z
	 M1117.5,1134.8h-31.4v-31.4h31.4V1134.8z M1117.5,1101h-31.4v-31.4h31.4V1101z M1117.5,1067.2h-31.4v-31.4h31.4V1067.2z
	 M1117.5,1033.4h-31.4V1002h31.4V1033.4z M1117.5,999.6h-31.4v-31.4h31.4V999.6z M1117.5,965.8h-31.4v-31.4h31.4V965.8z
	 M1117.5,932.1h-31.4v-31.4h31.4V932.1z M1117.5,898.3h-31.4v-31.4h31.4V898.3z M1117.5,864.5h-31.4v-31.4h31.4V864.5z
	 M1117.5,830.7h-31.4v-31.4h31.4V830.7z M1117.5,796.9h-31.4v-31.4h31.4V796.9z M1117.5,763.1h-31.4v-31.4h31.4V763.1z
	 M1117.5,729.3h-31.4v-31.4h31.4V729.3z M1117.5,695.5h-31.4v-31.4h31.4V695.5z M1117.5,661.7h-31.4v-31.4h31.4V661.7z
	 M1117.5,627.9h-31.4v-31.4h31.4V627.9z M1117.5,594.1h-31.4v-31.4h31.4V594.1z M1117.5,560.3h-31.4v-31.4h31.4V560.3z
	 M1117.5,526.5h-31.4v-31.4h31.4V526.5z M1117.5,492.7h-31.4v-31.4h31.4V492.7z M1117.5,458.9h-31.4v-31.4h31.4V458.9z
	 M1117.5,425.1h-31.4v-31.4h31.4V425.1z M1117.5,391.3h-31.4v-31.4h31.4V391.3z M1117.5,357.6h-31.4v-31.4h31.4V357.6z
	 M1117.5,323.8h-31.4v-31.4h31.4V323.8z M1117.5,290h-31.4v-31.4h31.4V290z M1117.5,256.2h-31.4v-31.4h31.4V256.2z M1117.5,222.4
	h-31.4V191h31.4V222.4z M1117.5,188.6h-31.4v-31.4h31.4V188.6z M1117.5,154.8h-31.4v-31.4h31.4V154.8z M1117.5,121h-31.4V89.6h31.4
	V121z M1117.5,87.2h-31.4V55.8h31.4V87.2z M1117.5,53.4h-31.4V22h31.4V53.4z M1117.5,19.6h-31.4v-31.4h31.4V19.6z M1151.3,1405.2
	h-31.4v-31.4h31.4V1405.2z M1151.3,1371.4h-31.4V1340h31.4V1371.4z M1151.3,1337.6h-31.4v-31.4h31.4V1337.6z M1151.3,1303.8h-31.4
	v-31.4h31.4V1303.8z M1151.3,1270h-31.4v-31.4h31.4V1270z M1151.3,1236.2h-31.4v-31.4h31.4V1236.2z M1151.3,1202.4h-31.4V1171h31.4
	V1202.4z M1151.3,1168.6h-31.4v-31.4h31.4V1168.6z M1151.3,1134.8h-31.4v-31.4h31.4V1134.8z M1151.3,1101h-31.4v-31.4h31.4V1101z
	 M1151.3,1067.2h-31.4v-31.4h31.4V1067.2z M1151.3,1033.4h-31.4V1002h31.4V1033.4z M1151.3,999.6h-31.4v-31.4h31.4V999.6z
	 M1151.3,965.8h-31.4v-31.4h31.4V965.8z M1151.3,932.1h-31.4v-31.4h31.4V932.1z M1151.3,898.3h-31.4v-31.4h31.4V898.3z
	 M1151.3,864.5h-31.4v-31.4h31.4V864.5z M1151.3,830.7h-31.4v-31.4h31.4V830.7z M1151.3,796.9h-31.4v-31.4h31.4V796.9z
	 M1151.3,763.1h-31.4v-31.4h31.4V763.1z M1151.3,729.3h-31.4v-31.4h31.4V729.3z M1151.3,695.5h-31.4v-31.4h31.4V695.5z
	 M1151.3,661.7h-31.4v-31.4h31.4V661.7z M1151.3,627.9h-31.4v-31.4h31.4V627.9z M1151.3,594.1h-31.4v-31.4h31.4V594.1z
	 M1151.3,560.3h-31.4v-31.4h31.4V560.3z M1151.3,526.5h-31.4v-31.4h31.4V526.5z M1151.3,492.7h-31.4v-31.4h31.4V492.7z
	 M1151.3,458.9h-31.4v-31.4h31.4V458.9z M1151.3,425.1h-31.4v-31.4h31.4V425.1z M1151.3,391.3h-31.4v-31.4h31.4V391.3z
	 M1151.3,357.6h-31.4v-31.4h31.4V357.6z M1151.3,323.8h-31.4v-31.4h31.4V323.8z M1151.3,290h-31.4v-31.4h31.4V290z M1151.3,256.2
	h-31.4v-31.4h31.4V256.2z M1151.3,222.4h-31.4V191h31.4V222.4z M1151.3,188.6h-31.4v-31.4h31.4V188.6z M1151.3,154.8h-31.4v-31.4
	h31.4V154.8z M1151.3,121h-31.4V89.6h31.4V121z M1151.3,87.2h-31.4V55.8h31.4V87.2z M1151.3,53.4h-31.4V22h31.4V53.4z M1151.3,19.6
	h-31.4v-31.4h31.4V19.6z M1185.1,1405.2h-31.4v-31.4h31.4V1405.2z M1185.1,1371.4h-31.4V1340h31.4V1371.4z M1185.1,1337.6h-31.4
	v-31.4h31.4V1337.6z M1185.1,1303.8h-31.4v-31.4h31.4V1303.8z M1185.1,1270h-31.4v-31.4h31.4V1270z M1185.1,1236.2h-31.4v-31.4h31.4
	V1236.2z M1185.1,1202.4h-31.4V1171h31.4V1202.4z M1185.1,1168.6h-31.4v-31.4h31.4V1168.6z M1185.1,1134.8h-31.4v-31.4h31.4V1134.8z
	 M1185.1,1101h-31.4v-31.4h31.4V1101z M1185.1,1067.2h-31.4v-31.4h31.4V1067.2z M1185.1,1033.4h-31.4V1002h31.4V1033.4z
	 M1185.1,999.6h-31.4v-31.4h31.4V999.6z M1185.1,965.8h-31.4v-31.4h31.4V965.8z M1185.1,932.1h-31.4v-31.4h31.4V932.1z
	 M1185.1,898.3h-31.4v-31.4h31.4V898.3z M1185.1,864.5h-31.4v-31.4h31.4V864.5z M1185.1,830.7h-31.4v-31.4h31.4V830.7z
	 M1185.1,796.9h-31.4v-31.4h31.4V796.9z M1185.1,763.1h-31.4v-31.4h31.4V763.1z M1185.1,729.3h-31.4v-31.4h31.4V729.3z
	 M1185.1,695.5h-31.4v-31.4h31.4V695.5z M1185.1,661.7h-31.4v-31.4h31.4V661.7z M1185.1,627.9h-31.4v-31.4h31.4V627.9z
	 M1185.1,594.1h-31.4v-31.4h31.4V594.1z M1185.1,560.3h-31.4v-31.4h31.4V560.3z M1185.1,526.5h-31.4v-31.4h31.4V526.5z
	 M1185.1,492.7h-31.4v-31.4h31.4V492.7z M1185.1,458.9h-31.4v-31.4h31.4V458.9z M1185.1,425.1h-31.4v-31.4h31.4V425.1z
	 M1185.1,391.3h-31.4v-31.4h31.4V391.3z M1185.1,357.6h-31.4v-31.4h31.4V357.6z M1185.1,323.8h-31.4v-31.4h31.4V323.8z M1185.1,290
	h-31.4v-31.4h31.4V290z M1185.1,256.2h-31.4v-31.4h31.4V256.2z M1185.1,222.4h-31.4V191h31.4V222.4z M1185.1,188.6h-31.4v-31.4h31.4
	V188.6z M1185.1,154.8h-31.4v-31.4h31.4V154.8z M1185.1,121h-31.4V89.6h31.4V121z M1185.1,87.2h-31.4V55.8h31.4V87.2z M1185.1,53.4
	h-31.4V22h31.4V53.4z M1185.1,19.6h-31.4v-31.4h31.4V19.6z M1218.9,1405.2h-31.4v-31.4h31.4V1405.2z M1218.9,1371.4h-31.4V1340h31.4
	V1371.4z M1218.9,1337.6h-31.4v-31.4h31.4V1337.6z M1218.9,1303.8h-31.4v-31.4h31.4V1303.8z M1218.9,1270h-31.4v-31.4h31.4V1270z
	 M1218.9,1236.2h-31.4v-31.4h31.4V1236.2z M1218.9,1202.4h-31.4V1171h31.4V1202.4z M1218.9,1168.6h-31.4v-31.4h31.4V1168.6z
	 M1218.9,1134.8h-31.4v-31.4h31.4V1134.8z M1218.9,1101h-31.4v-31.4h31.4V1101z M1218.9,1067.2h-31.4v-31.4h31.4V1067.2z
	 M1218.9,1033.4h-31.4V1002h31.4V1033.4z M1218.9,999.6h-31.4v-31.4h31.4V999.6z M1218.9,965.8h-31.4v-31.4h31.4V965.8z
	 M1218.9,932.1h-31.4v-31.4h31.4V932.1z M1218.9,898.3h-31.4v-31.4h31.4V898.3z M1218.9,864.5h-31.4v-31.4h31.4V864.5z
	 M1218.9,830.7h-31.4v-31.4h31.4V830.7z M1218.9,796.9h-31.4v-31.4h31.4V796.9z M1218.9,763.1h-31.4v-31.4h31.4V763.1z
	 M1218.9,729.3h-31.4v-31.4h31.4V729.3z M1218.9,695.5h-31.4v-31.4h31.4V695.5z M1218.9,661.7h-31.4v-31.4h31.4V661.7z
	 M1218.9,627.9h-31.4v-31.4h31.4V627.9z M1218.9,594.1h-31.4v-31.4h31.4V594.1z M1218.9,560.3h-31.4v-31.4h31.4V560.3z
	 M1218.9,526.5h-31.4v-31.4h31.4V526.5z M1218.9,492.7h-31.4v-31.4h31.4V492.7z M1218.9,458.9h-31.4v-31.4h31.4V458.9z
	 M1218.9,425.1h-31.4v-31.4h31.4V425.1z M1218.9,391.3h-31.4v-31.4h31.4V391.3z M1218.9,357.6h-31.4v-31.4h31.4V357.6z
	 M1218.9,323.8h-31.4v-31.4h31.4V323.8z M1218.9,290h-31.4v-31.4h31.4V290z M1218.9,256.2h-31.4v-31.4h31.4V256.2z M1218.9,222.4
	h-31.4V191h31.4V222.4z M1218.9,188.6h-31.4v-31.4h31.4V188.6z M1218.9,154.8h-31.4v-31.4h31.4V154.8z M1218.9,121h-31.4V89.6h31.4
	V121z M1218.9,87.2h-31.4V55.8h31.4V87.2z M1218.9,53.4h-31.4V22h31.4V53.4z M1218.9,19.6h-31.4v-31.4h31.4V19.6z M1252.7,1405.2
	h-31.4v-31.4h31.4V1405.2z M1252.7,1371.4h-31.4V1340h31.4V1371.4z M1252.7,1337.6h-31.4v-31.4h31.4V1337.6z M1252.7,1303.8h-31.4
	v-31.4h31.4V1303.8z M1252.7,1270h-31.4v-31.4h31.4V1270z M1252.7,1236.2h-31.4v-31.4h31.4V1236.2z M1252.7,1202.4h-31.4V1171h31.4
	V1202.4z M1252.7,1168.6h-31.4v-31.4h31.4V1168.6z M1252.7,1134.8h-31.4v-31.4h31.4V1134.8z M1252.7,1101h-31.4v-31.4h31.4V1101z
	 M1252.7,1067.2h-31.4v-31.4h31.4V1067.2z M1252.7,1033.4h-31.4V1002h31.4V1033.4z M1252.7,999.6h-31.4v-31.4h31.4V999.6z
	 M1252.7,965.8h-31.4v-31.4h31.4V965.8z M1252.7,932.1h-31.4v-31.4h31.4V932.1z M1252.7,898.3h-31.4v-31.4h31.4V898.3z
	 M1252.7,864.5h-31.4v-31.4h31.4V864.5z M1252.7,830.7h-31.4v-31.4h31.4V830.7z M1252.7,796.9h-31.4v-31.4h31.4V796.9z
	 M1252.7,763.1h-31.4v-31.4h31.4V763.1z M1252.7,729.3h-31.4v-31.4h31.4V729.3z M1252.7,695.5h-31.4v-31.4h31.4V695.5z
	 M1252.7,661.7h-31.4v-31.4h31.4V661.7z M1252.7,627.9h-31.4v-31.4h31.4V627.9z M1252.7,594.1h-31.4v-31.4h31.4V594.1z
	 M1252.7,560.3h-31.4v-31.4h31.4V560.3z M1252.7,526.5h-31.4v-31.4h31.4V526.5z M1252.7,492.7h-31.4v-31.4h31.4V492.7z
	 M1252.7,458.9h-31.4v-31.4h31.4V458.9z M1252.7,425.1h-31.4v-31.4h31.4V425.1z M1252.7,391.3h-31.4v-31.4h31.4V391.3z
	 M1252.7,357.6h-31.4v-31.4h31.4V357.6z M1252.7,323.8h-31.4v-31.4h31.4V323.8z M1252.7,290h-31.4v-31.4h31.4V290z M1252.7,256.2
	h-31.4v-31.4h31.4V256.2z M1252.7,222.4h-31.4V191h31.4V222.4z M1252.7,188.6h-31.4v-31.4h31.4V188.6z M1252.7,154.8h-31.4v-31.4
	h31.4V154.8z M1252.7,121h-31.4V89.6h31.4V121z M1252.7,87.2h-31.4V55.8h31.4V87.2z M1252.7,53.4h-31.4V22h31.4V53.4z M1252.7,19.6
	h-31.4v-31.4h31.4V19.6z M1286.5,1405.2h-31.4v-31.4h31.4V1405.2z M1286.5,1371.4h-31.4V1340h31.4V1371.4z M1286.5,1337.6h-31.4
	v-31.4h31.4V1337.6z M1286.5,1303.8h-31.4v-31.4h31.4V1303.8z M1286.5,1270h-31.4v-31.4h31.4V1270z M1286.5,1236.2h-31.4v-31.4h31.4
	V1236.2z M1286.5,1202.4h-31.4V1171h31.4V1202.4z M1286.5,1168.6h-31.4v-31.4h31.4V1168.6z M1286.5,1134.8h-31.4v-31.4h31.4V1134.8z
	 M1286.5,1101h-31.4v-31.4h31.4V1101z M1286.5,1067.2h-31.4v-31.4h31.4V1067.2z M1286.5,1033.4h-31.4V1002h31.4V1033.4z
	 M1286.5,999.6h-31.4v-31.4h31.4V999.6z M1286.5,965.8h-31.4v-31.4h31.4V965.8z M1286.5,932.1h-31.4v-31.4h31.4V932.1z
	 M1286.5,898.3h-31.4v-31.4h31.4V898.3z M1286.5,864.5h-31.4v-31.4h31.4V864.5z M1286.5,830.7h-31.4v-31.4h31.4V830.7z
	 M1286.5,796.9h-31.4v-31.4h31.4V796.9z M1286.5,763.1h-31.4v-31.4h31.4V763.1z M1286.5,729.3h-31.4v-31.4h31.4V729.3z
	 M1286.5,695.5h-31.4v-31.4h31.4V695.5z M1286.5,661.7h-31.4v-31.4h31.4V661.7z M1286.5,627.9h-31.4v-31.4h31.4V627.9z
	 M1286.5,594.1h-31.4v-31.4h31.4V594.1z M1286.5,560.3h-31.4v-31.4h31.4V560.3z M1286.5,526.5h-31.4v-31.4h31.4V526.5z
	 M1286.5,492.7h-31.4v-31.4h31.4V492.7z M1286.5,458.9h-31.4v-31.4h31.4V458.9z M1286.5,425.1h-31.4v-31.4h31.4V425.1z
	 M1286.5,391.3h-31.4v-31.4h31.4V391.3z M1286.5,357.6h-31.4v-31.4h31.4V357.6z M1286.5,323.8h-31.4v-31.4h31.4V323.8z M1286.5,290
	h-31.4v-31.4h31.4V290z M1286.5,256.2h-31.4v-31.4h31.4V256.2z M1286.5,222.4h-31.4V191h31.4V222.4z M1286.5,188.6h-31.4v-31.4h31.4
	V188.6z M1286.5,154.8h-31.4v-31.4h31.4V154.8z M1286.5,121h-31.4V89.6h31.4V121z M1286.5,87.2h-31.4V55.8h31.4V87.2z M1286.5,53.4
	h-31.4V22h31.4V53.4z M1286.5,19.6h-31.4v-31.4h31.4V19.6z M1320.3,1405.2h-31.4v-31.4h31.4V1405.2z M1320.3,1371.4h-31.4V1340h31.4
	V1371.4z M1320.3,1337.6h-31.4v-31.4h31.4V1337.6z M1320.3,1303.8h-31.4v-31.4h31.4V1303.8z M1320.3,1270h-31.4v-31.4h31.4V1270z
	 M1320.3,1236.2h-31.4v-31.4h31.4V1236.2z M1320.3,1202.4h-31.4V1171h31.4V1202.4z M1320.3,1168.6h-31.4v-31.4h31.4V1168.6z
	 M1320.3,1134.8h-31.4v-31.4h31.4V1134.8z M1320.3,1101h-31.4v-31.4h31.4V1101z M1320.3,1067.2h-31.4v-31.4h31.4V1067.2z
	 M1320.3,1033.4h-31.4V1002h31.4V1033.4z M1320.3,999.6h-31.4v-31.4h31.4V999.6z M1320.3,965.8h-31.4v-31.4h31.4V965.8z
	 M1320.3,932.1h-31.4v-31.4h31.4V932.1z M1320.3,898.3h-31.4v-31.4h31.4V898.3z M1320.3,864.5h-31.4v-31.4h31.4V864.5z
	 M1320.3,830.7h-31.4v-31.4h31.4V830.7z M1320.3,796.9h-31.4v-31.4h31.4V796.9z M1320.3,763.1h-31.4v-31.4h31.4V763.1z
	 M1320.3,729.3h-31.4v-31.4h31.4V729.3z M1320.3,695.5h-31.4v-31.4h31.4V695.5z M1320.3,661.7h-31.4v-31.4h31.4V661.7z
	 M1320.3,627.9h-31.4v-31.4h31.4V627.9z M1320.3,594.1h-31.4v-31.4h31.4V594.1z M1320.3,560.3h-31.4v-31.4h31.4V560.3z
	 M1320.3,526.5h-31.4v-31.4h31.4V526.5z M1320.3,492.7h-31.4v-31.4h31.4V492.7z M1320.3,458.9h-31.4v-31.4h31.4V458.9z
	 M1320.3,425.1h-31.4v-31.4h31.4V425.1z M1320.3,391.3h-31.4v-31.4h31.4V391.3z M1320.3,357.6h-31.4v-31.4h31.4V357.6z
	 M1320.3,323.8h-31.4v-31.4h31.4V323.8z M1320.3,290h-31.4v-31.4h31.4V290z M1320.3,256.2h-31.4v-31.4h31.4V256.2z M1320.3,222.4
	h-31.4V191h31.4V222.4z M1320.3,188.6h-31.4v-31.4h31.4V188.6z M1320.3,154.8h-31.4v-31.4h31.4V154.8z M1320.3,121h-31.4V89.6h31.4
	V121z M1320.3,87.2h-31.4V55.8h31.4V87.2z M1320.3,53.4h-31.4V22h31.4V53.4z M1320.3,19.6h-31.4v-31.4h31.4V19.6z M1354.1,1405.2
	h-31.4v-31.4h31.4V1405.2z M1354.1,1371.4h-31.4V1340h31.4V1371.4z M1354.1,1337.6h-31.4v-31.4h31.4V1337.6z M1354.1,1303.8h-31.4
	v-31.4h31.4V1303.8z M1354.1,1270h-31.4v-31.4h31.4V1270z M1354.1,1236.2h-31.4v-31.4h31.4V1236.2z M1354.1,1202.4h-31.4V1171h31.4
	V1202.4z M1354.1,1168.6h-31.4v-31.4h31.4V1168.6z M1354.1,1134.8h-31.4v-31.4h31.4V1134.8z M1354.1,1101h-31.4v-31.4h31.4V1101z
	 M1354.1,1067.2h-31.4v-31.4h31.4V1067.2z M1354.1,1033.4h-31.4V1002h31.4V1033.4z M1354.1,999.6h-31.4v-31.4h31.4V999.6z
	 M1354.1,965.8h-31.4v-31.4h31.4V965.8z M1354.1,932.1h-31.4v-31.4h31.4V932.1z M1354.1,898.3h-31.4v-31.4h31.4V898.3z
	 M1354.1,864.5h-31.4v-31.4h31.4V864.5z M1354.1,830.7h-31.4v-31.4h31.4V830.7z M1354.1,796.9h-31.4v-31.4h31.4V796.9z
	 M1354.1,763.1h-31.4v-31.4h31.4V763.1z M1354.1,729.3h-31.4v-31.4h31.4V729.3z M1354.1,695.5h-31.4v-31.4h31.4V695.5z
	 M1354.1,661.7h-31.4v-31.4h31.4V661.7z M1354.1,627.9h-31.4v-31.4h31.4V627.9z M1354.1,594.1h-31.4v-31.4h31.4V594.1z
	 M1354.1,560.3h-31.4v-31.4h31.4V560.3z M1354.1,526.5h-31.4v-31.4h31.4V526.5z M1354.1,492.7h-31.4v-31.4h31.4V492.7z
	 M1354.1,458.9h-31.4v-31.4h31.4V458.9z M1354.1,425.1h-31.4v-31.4h31.4V425.1z M1354.1,391.3h-31.4v-31.4h31.4V391.3z
	 M1354.1,357.6h-31.4v-31.4h31.4V357.6z M1354.1,323.8h-31.4v-31.4h31.4V323.8z M1354.1,290h-31.4v-31.4h31.4V290z M1354.1,256.2
	h-31.4v-31.4h31.4V256.2z M1354.1,222.4h-31.4V191h31.4V222.4z M1354.1,188.6h-31.4v-31.4h31.4V188.6z M1354.1,154.8h-31.4v-31.4
	h31.4V154.8z M1354.1,121h-31.4V89.6h31.4V121z M1354.1,87.2h-31.4V55.8h31.4V87.2z M1354.1,53.4h-31.4V22h31.4V53.4z M1354.1,19.6
	h-31.4v-31.4h31.4V19.6z M1387.9,1405.2h-31.4v-31.4h31.4V1405.2z M1387.9,1371.4h-31.4V1340h31.4V1371.4z M1387.9,1337.6h-31.4
	v-31.4h31.4V1337.6z M1387.9,1303.8h-31.4v-31.4h31.4V1303.8z M1387.9,1270h-31.4v-31.4h31.4V1270z M1387.9,1236.2h-31.4v-31.4h31.4
	V1236.2z M1387.9,1202.4h-31.4V1171h31.4V1202.4z M1387.9,1168.6h-31.4v-31.4h31.4V1168.6z M1387.9,1134.8h-31.4v-31.4h31.4V1134.8z
	 M1387.9,1101h-31.4v-31.4h31.4V1101z M1387.9,1067.2h-31.4v-31.4h31.4V1067.2z M1387.9,1033.4h-31.4V1002h31.4V1033.4z
	 M1387.9,999.6h-31.4v-31.4h31.4V999.6z M1387.9,965.8h-31.4v-31.4h31.4V965.8z M1387.9,932.1h-31.4v-31.4h31.4V932.1z
	 M1387.9,898.3h-31.4v-31.4h31.4V898.3z M1387.9,864.5h-31.4v-31.4h31.4V864.5z M1387.9,830.7h-31.4v-31.4h31.4V830.7z
	 M1387.9,796.9h-31.4v-31.4h31.4V796.9z M1387.9,763.1h-31.4v-31.4h31.4V763.1z M1387.9,729.3h-31.4v-31.4h31.4V729.3z
	 M1387.9,695.5h-31.4v-31.4h31.4V695.5z M1387.9,661.7h-31.4v-31.4h31.4V661.7z M1387.9,627.9h-31.4v-31.4h31.4V627.9z
	 M1387.9,594.1h-31.4v-31.4h31.4V594.1z M1387.9,560.3h-31.4v-31.4h31.4V560.3z M1387.9,526.5h-31.4v-31.4h31.4V526.5z
	 M1387.9,492.7h-31.4v-31.4h31.4V492.7z M1387.9,458.9h-31.4v-31.4h31.4V458.9z M1387.9,425.1h-31.4v-31.4h31.4V425.1z
	 M1387.9,391.3h-31.4v-31.4h31.4V391.3z M1387.9,357.6h-31.4v-31.4h31.4V357.6z M1387.9,323.8h-31.4v-31.4h31.4V323.8z M1387.9,290
	h-31.4v-31.4h31.4V290z M1387.9,256.2h-31.4v-31.4h31.4V256.2z M1387.9,222.4h-31.4V191h31.4V222.4z M1387.9,188.6h-31.4v-31.4h31.4
	V188.6z M1387.9,154.8h-31.4v-31.4h31.4V154.8z M1387.9,121h-31.4V89.6h31.4V121z M1387.9,87.2h-31.4V55.8h31.4V87.2z M1387.9,53.4
	h-31.4V22h31.4V53.4z M1387.9,19.6h-31.4v-31.4h31.4V19.6z M1421.7,1405.2h-31.4v-31.4h31.4V1405.2z M1421.7,1371.4h-31.4V1340h31.4
	V1371.4z M1421.7,1337.6h-31.4v-31.4h31.4V1337.6z M1421.7,1303.8h-31.4v-31.4h31.4V1303.8z M1421.7,1270h-31.4v-31.4h31.4V1270z
	 M1421.7,1236.2h-31.4v-31.4h31.4V1236.2z M1421.7,1202.4h-31.4V1171h31.4V1202.4z M1421.7,1168.6h-31.4v-31.4h31.4V1168.6z
	 M1421.7,1134.8h-31.4v-31.4h31.4V1134.8z M1421.7,1101h-31.4v-31.4h31.4V1101z M1421.7,1067.2h-31.4v-31.4h31.4V1067.2z
	 M1421.7,1033.4h-31.4V1002h31.4V1033.4z M1421.7,999.6h-31.4v-31.4h31.4V999.6z M1421.7,965.8h-31.4v-31.4h31.4V965.8z
	 M1421.7,932.1h-31.4v-31.4h31.4V932.1z M1421.7,898.3h-31.4v-31.4h31.4V898.3z M1421.7,864.5h-31.4v-31.4h31.4V864.5z
	 M1421.7,830.7h-31.4v-31.4h31.4V830.7z M1421.7,796.9h-31.4v-31.4h31.4V796.9z M1421.7,763.1h-31.4v-31.4h31.4V763.1z
	 M1421.7,729.3h-31.4v-31.4h31.4V729.3z M1421.7,695.5h-31.4v-31.4h31.4V695.5z M1421.7,661.7h-31.4v-31.4h31.4V661.7z
	 M1421.7,627.9h-31.4v-31.4h31.4V627.9z M1421.7,594.1h-31.4v-31.4h31.4V594.1z M1421.7,560.3h-31.4v-31.4h31.4V560.3z
	 M1421.7,526.5h-31.4v-31.4h31.4V526.5z M1421.7,492.7h-31.4v-31.4h31.4V492.7z M1421.7,458.9h-31.4v-31.4h31.4V458.9z
	 M1421.7,425.1h-31.4v-31.4h31.4V425.1z M1421.7,391.3h-31.4v-31.4h31.4V391.3z M1421.7,357.6h-31.4v-31.4h31.4V357.6z
	 M1421.7,323.8h-31.4v-31.4h31.4V323.8z M1421.7,290h-31.4v-31.4h31.4V290z M1421.7,256.2h-31.4v-31.4h31.4V256.2z M1421.7,222.4
	h-31.4V191h31.4V222.4z M1421.7,188.6h-31.4v-31.4h31.4V188.6z M1421.7,154.8h-31.4v-31.4h31.4V154.8z M1421.7,121h-31.4V89.6h31.4
	V121z M1421.7,87.2h-31.4V55.8h31.4V87.2z M1421.7,53.4h-31.4V22h31.4V53.4z M1421.7,19.6h-31.4v-31.4h31.4V19.6z M1455.5,1405.2
	H1424v-31.4h31.4V1405.2z M1455.5,1371.4H1424V1340h31.4V1371.4z M1455.5,1337.6H1424v-31.4h31.4V1337.6z M1455.5,1303.8H1424v-31.4
	h31.4V1303.8z M1455.5,1270H1424v-31.4h31.4V1270z M1455.5,1236.2H1424v-31.4h31.4V1236.2z M1455.5,1202.4H1424V1171h31.4V1202.4z
	 M1455.5,1168.6H1424v-31.4h31.4V1168.6z M1455.5,1134.8H1424v-31.4h31.4V1134.8z M1455.5,1101H1424v-31.4h31.4V1101z
	 M1455.5,1067.2H1424v-31.4h31.4V1067.2z M1455.5,1033.4H1424V1002h31.4V1033.4z M1455.5,999.6H1424v-31.4h31.4V999.6z
	 M1455.5,965.8H1424v-31.4h31.4V965.8z M1455.5,932.1H1424v-31.4h31.4V932.1z M1455.5,898.3H1424v-31.4h31.4V898.3z M1455.5,864.5
	H1424v-31.4h31.4V864.5z M1455.5,830.7H1424v-31.4h31.4V830.7z M1455.5,796.9H1424v-31.4h31.4V796.9z M1455.5,763.1H1424v-31.4h31.4
	V763.1z M1455.5,729.3H1424v-31.4h31.4V729.3z M1455.5,695.5H1424v-31.4h31.4V695.5z M1455.5,661.7H1424v-31.4h31.4V661.7z
	 M1455.5,627.9H1424v-31.4h31.4V627.9z M1455.5,594.1H1424v-31.4h31.4V594.1z M1455.5,560.3H1424v-31.4h31.4V560.3z M1455.5,526.5
	H1424v-31.4h31.4V526.5z M1455.5,492.7H1424v-31.4h31.4V492.7z M1455.5,458.9H1424v-31.4h31.4V458.9z M1455.5,425.1H1424v-31.4h31.4
	V425.1z M1455.5,391.3H1424v-31.4h31.4V391.3z M1455.5,357.6H1424v-31.4h31.4V357.6z M1455.5,323.8H1424v-31.4h31.4V323.8z
	 M1455.5,290H1424v-31.4h31.4V290z M1455.5,256.2H1424v-31.4h31.4V256.2z M1455.5,222.4H1424V191h31.4V222.4z M1455.5,188.6H1424
	v-31.4h31.4V188.6z M1455.5,154.8H1424v-31.4h31.4V154.8z M1455.5,121H1424V89.6h31.4V121z M1455.5,87.2H1424V55.8h31.4V87.2z
	 M1455.5,53.4H1424V22h31.4V53.4z M1455.5,19.6H1424v-31.4h31.4V19.6z M1489.2,1405.2h-31.4v-31.4h31.4V1405.2z M1489.2,1371.4
	h-31.4V1340h31.4V1371.4z M1489.2,1337.6h-31.4v-31.4h31.4V1337.6z M1489.2,1303.8h-31.4v-31.4h31.4V1303.8z M1489.2,1270h-31.4
	v-31.4h31.4V1270z M1489.2,1236.2h-31.4v-31.4h31.4V1236.2z M1489.2,1202.4h-31.4V1171h31.4V1202.4z M1489.2,1168.6h-31.4v-31.4
	h31.4V1168.6z M1489.2,1134.8h-31.4v-31.4h31.4V1134.8z M1489.2,1101h-31.4v-31.4h31.4V1101z M1489.2,1067.2h-31.4v-31.4h31.4
	V1067.2z M1489.2,1033.4h-31.4V1002h31.4V1033.4z M1489.2,999.6h-31.4v-31.4h31.4V999.6z M1489.2,965.8h-31.4v-31.4h31.4V965.8z
	 M1489.2,932.1h-31.4v-31.4h31.4V932.1z M1489.2,898.3h-31.4v-31.4h31.4V898.3z M1489.2,864.5h-31.4v-31.4h31.4V864.5z
	 M1489.2,830.7h-31.4v-31.4h31.4V830.7z M1489.2,796.9h-31.4v-31.4h31.4V796.9z M1489.2,763.1h-31.4v-31.4h31.4V763.1z
	 M1489.2,729.3h-31.4v-31.4h31.4V729.3z M1489.2,695.5h-31.4v-31.4h31.4V695.5z M1489.2,661.7h-31.4v-31.4h31.4V661.7z
	 M1489.2,627.9h-31.4v-31.4h31.4V627.9z M1489.2,594.1h-31.4v-31.4h31.4V594.1z M1489.2,560.3h-31.4v-31.4h31.4V560.3z
	 M1489.2,526.5h-31.4v-31.4h31.4V526.5z M1489.2,492.7h-31.4v-31.4h31.4V492.7z M1489.2,458.9h-31.4v-31.4h31.4V458.9z
	 M1489.2,425.1h-31.4v-31.4h31.4V425.1z M1489.2,391.3h-31.4v-31.4h31.4V391.3z M1489.2,357.6h-31.4v-31.4h31.4V357.6z
	 M1489.2,323.8h-31.4v-31.4h31.4V323.8z M1489.2,290h-31.4v-31.4h31.4V290z M1489.2,256.2h-31.4v-31.4h31.4V256.2z M1489.2,222.4
	h-31.4V191h31.4V222.4z M1489.2,188.6h-31.4v-31.4h31.4V188.6z M1489.2,154.8h-31.4v-31.4h31.4V154.8z M1489.2,121h-31.4V89.6h31.4
	V121z M1489.2,87.2h-31.4V55.8h31.4V87.2z M1489.2,53.4h-31.4V22h31.4V53.4z M1489.2,19.6h-31.4v-31.4h31.4V19.6z M1523,1405.2
	h-31.4v-31.4h31.4V1405.2z M1523,1371.4h-31.4V1340h31.4V1371.4z M1523,1337.6h-31.4v-31.4h31.4V1337.6z M1523,1303.8h-31.4v-31.4
	h31.4V1303.8z M1523,1270h-31.4v-31.4h31.4V1270z M1523,1236.2h-31.4v-31.4h31.4V1236.2z M1523,1202.4h-31.4V1171h31.4V1202.4z
	 M1523,1168.6h-31.4v-31.4h31.4V1168.6z M1523,1134.8h-31.4v-31.4h31.4V1134.8z M1523,1101h-31.4v-31.4h31.4V1101z M1523,1067.2
	h-31.4v-31.4h31.4V1067.2z M1523,1033.4h-31.4V1002h31.4V1033.4z M1523,999.6h-31.4v-31.4h31.4V999.6z M1523,965.8h-31.4v-31.4h31.4
	V965.8z M1523,932.1h-31.4v-31.4h31.4V932.1z M1523,898.3h-31.4v-31.4h31.4V898.3z M1523,864.5h-31.4v-31.4h31.4V864.5z M1523,830.7
	h-31.4v-31.4h31.4V830.7z M1523,796.9h-31.4v-31.4h31.4V796.9z M1523,763.1h-31.4v-31.4h31.4V763.1z M1523,729.3h-31.4v-31.4h31.4
	V729.3z M1523,695.5h-31.4v-31.4h31.4V695.5z M1523,661.7h-31.4v-31.4h31.4V661.7z M1523,627.9h-31.4v-31.4h31.4V627.9z M1523,594.1
	h-31.4v-31.4h31.4V594.1z M1523,560.3h-31.4v-31.4h31.4V560.3z M1523,526.5h-31.4v-31.4h31.4V526.5z M1523,492.7h-31.4v-31.4h31.4
	V492.7z M1523,458.9h-31.4v-31.4h31.4V458.9z M1523,425.1h-31.4v-31.4h31.4V425.1z M1523,391.3h-31.4v-31.4h31.4V391.3z M1523,357.6
	h-31.4v-31.4h31.4V357.6z M1523,323.8h-31.4v-31.4h31.4V323.8z M1523,290h-31.4v-31.4h31.4V290z M1523,256.2h-31.4v-31.4h31.4V256.2
	z M1523,222.4h-31.4V191h31.4V222.4z M1523,188.6h-31.4v-31.4h31.4V188.6z M1523,154.8h-31.4v-31.4h31.4V154.8z M1523,121h-31.4
	V89.6h31.4V121z M1523,87.2h-31.4V55.8h31.4V87.2z M1523,53.4h-31.4V22h31.4V53.4z M1523,19.6h-31.4v-31.4h31.4V19.6z
	 M1556.8,1405.2h-31.4v-31.4h31.4V1405.2z M1556.8,1371.4h-31.4V1340h31.4V1371.4z M1556.8,1337.6h-31.4v-31.4h31.4V1337.6z
	 M1556.8,1303.8h-31.4v-31.4h31.4V1303.8z M1556.8,1270h-31.4v-31.4h31.4V1270z M1556.8,1236.2h-31.4v-31.4h31.4V1236.2z
	 M1556.8,1202.4h-31.4V1171h31.4V1202.4z M1556.8,1168.6h-31.4v-31.4h31.4V1168.6z M1556.8,1134.8h-31.4v-31.4h31.4V1134.8z
	 M1556.8,1101h-31.4v-31.4h31.4V1101z M1556.8,1067.2h-31.4v-31.4h31.4V1067.2z M1556.8,1033.4h-31.4V1002h31.4V1033.4z
	 M1556.8,999.6h-31.4v-31.4h31.4V999.6z M1556.8,965.8h-31.4v-31.4h31.4V965.8z M1556.8,932.1h-31.4v-31.4h31.4V932.1z
	 M1556.8,898.3h-31.4v-31.4h31.4V898.3z M1556.8,864.5h-31.4v-31.4h31.4V864.5z M1556.8,830.7h-31.4v-31.4h31.4V830.7z
	 M1556.8,796.9h-31.4v-31.4h31.4V796.9z M1556.8,763.1h-31.4v-31.4h31.4V763.1z M1556.8,729.3h-31.4v-31.4h31.4V729.3z
	 M1556.8,695.5h-31.4v-31.4h31.4V695.5z M1556.8,661.7h-31.4v-31.4h31.4V661.7z M1556.8,627.9h-31.4v-31.4h31.4V627.9z
	 M1556.8,594.1h-31.4v-31.4h31.4V594.1z M1556.8,560.3h-31.4v-31.4h31.4V560.3z M1556.8,526.5h-31.4v-31.4h31.4V526.5z
	 M1556.8,492.7h-31.4v-31.4h31.4V492.7z M1556.8,458.9h-31.4v-31.4h31.4V458.9z M1556.8,425.1h-31.4v-31.4h31.4V425.1z
	 M1556.8,391.3h-31.4v-31.4h31.4V391.3z M1556.8,357.6h-31.4v-31.4h31.4V357.6z M1556.8,323.8h-31.4v-31.4h31.4V323.8z M1556.8,290
	h-31.4v-31.4h31.4V290z M1556.8,256.2h-31.4v-31.4h31.4V256.2z M1556.8,222.4h-31.4V191h31.4V222.4z M1556.8,188.6h-31.4v-31.4h31.4
	V188.6z M1556.8,154.8h-31.4v-31.4h31.4V154.8z M1556.8,121h-31.4V89.6h31.4V121z M1556.8,87.2h-31.4V55.8h31.4V87.2z M1556.8,53.4
	h-31.4V22h31.4V53.4z M1556.8,19.6h-31.4v-31.4h31.4V19.6z M1590.6,1405.2h-31.4v-31.4h31.4V1405.2z M1590.6,1371.4h-31.4V1340h31.4
	V1371.4z M1590.6,1337.6h-31.4v-31.4h31.4V1337.6z M1590.6,1303.8h-31.4v-31.4h31.4V1303.8z M1590.6,1270h-31.4v-31.4h31.4V1270z
	 M1590.6,1236.2h-31.4v-31.4h31.4V1236.2z M1590.6,1202.4h-31.4V1171h31.4V1202.4z M1590.6,1168.6h-31.4v-31.4h31.4V1168.6z
	 M1590.6,1134.8h-31.4v-31.4h31.4V1134.8z M1590.6,1101h-31.4v-31.4h31.4V1101z M1590.6,1067.2h-31.4v-31.4h31.4V1067.2z
	 M1590.6,1033.4h-31.4V1002h31.4V1033.4z M1590.6,999.6h-31.4v-31.4h31.4V999.6z M1590.6,965.8h-31.4v-31.4h31.4V965.8z
	 M1590.6,932.1h-31.4v-31.4h31.4V932.1z M1590.6,898.3h-31.4v-31.4h31.4V898.3z M1590.6,864.5h-31.4v-31.4h31.4V864.5z
	 M1590.6,830.7h-31.4v-31.4h31.4V830.7z M1590.6,796.9h-31.4v-31.4h31.4V796.9z M1590.6,763.1h-31.4v-31.4h31.4V763.1z
	 M1590.6,729.3h-31.4v-31.4h31.4V729.3z M1590.6,695.5h-31.4v-31.4h31.4V695.5z M1590.6,661.7h-31.4v-31.4h31.4V661.7z
	 M1590.6,627.9h-31.4v-31.4h31.4V627.9z M1590.6,594.1h-31.4v-31.4h31.4V594.1z M1590.6,560.3h-31.4v-31.4h31.4V560.3z
	 M1590.6,526.5h-31.4v-31.4h31.4V526.5z M1590.6,492.7h-31.4v-31.4h31.4V492.7z M1590.6,458.9h-31.4v-31.4h31.4V458.9z
	 M1590.6,425.1h-31.4v-31.4h31.4V425.1z M1590.6,391.3h-31.4v-31.4h31.4V391.3z M1590.6,357.6h-31.4v-31.4h31.4V357.6z
	 M1590.6,323.8h-31.4v-31.4h31.4V323.8z M1590.6,290h-31.4v-31.4h31.4V290z M1590.6,256.2h-31.4v-31.4h31.4V256.2z M1590.6,222.4
	h-31.4V191h31.4V222.4z M1590.6,188.6h-31.4v-31.4h31.4V188.6z M1590.6,154.8h-31.4v-31.4h31.4V154.8z M1590.6,121h-31.4V89.6h31.4
	V121z M1590.6,87.2h-31.4V55.8h31.4V87.2z M1590.6,53.4h-31.4V22h31.4V53.4z M1590.6,19.6h-31.4v-31.4h31.4V19.6z M1624.4,1405.2
	H1593v-31.4h31.4V1405.2z M1624.4,1371.4H1593V1340h31.4V1371.4z M1624.4,1337.6H1593v-31.4h31.4V1337.6z M1624.4,1303.8H1593v-31.4
	h31.4V1303.8z M1624.4,1270H1593v-31.4h31.4V1270z M1624.4,1236.2H1593v-31.4h31.4V1236.2z M1624.4,1202.4H1593V1171h31.4V1202.4z
	 M1624.4,1168.6H1593v-31.4h31.4V1168.6z M1624.4,1134.8H1593v-31.4h31.4V1134.8z M1624.4,1101H1593v-31.4h31.4V1101z
	 M1624.4,1067.2H1593v-31.4h31.4V1067.2z M1624.4,1033.4H1593V1002h31.4V1033.4z M1624.4,999.6H1593v-31.4h31.4V999.6z
	 M1624.4,965.8H1593v-31.4h31.4V965.8z M1624.4,932.1H1593v-31.4h31.4V932.1z M1624.4,898.3H1593v-31.4h31.4V898.3z M1624.4,864.5
	H1593v-31.4h31.4V864.5z M1624.4,830.7H1593v-31.4h31.4V830.7z M1624.4,796.9H1593v-31.4h31.4V796.9z M1624.4,763.1H1593v-31.4h31.4
	V763.1z M1624.4,729.3H1593v-31.4h31.4V729.3z M1624.4,695.5H1593v-31.4h31.4V695.5z M1624.4,661.7H1593v-31.4h31.4V661.7z
	 M1624.4,627.9H1593v-31.4h31.4V627.9z M1624.4,594.1H1593v-31.4h31.4V594.1z M1624.4,560.3H1593v-31.4h31.4V560.3z M1624.4,526.5
	H1593v-31.4h31.4V526.5z M1624.4,492.7H1593v-31.4h31.4V492.7z M1624.4,458.9H1593v-31.4h31.4V458.9z M1624.4,425.1H1593v-31.4h31.4
	V425.1z M1624.4,391.3H1593v-31.4h31.4V391.3z M1624.4,357.6H1593v-31.4h31.4V357.6z M1624.4,323.8H1593v-31.4h31.4V323.8z
	 M1624.4,290H1593v-31.4h31.4V290z M1624.4,256.2H1593v-31.4h31.4V256.2z M1624.4,222.4H1593V191h31.4V222.4z M1624.4,188.6H1593
	v-31.4h31.4V188.6z M1624.4,154.8H1593v-31.4h31.4V154.8z M1624.4,121H1593V89.6h31.4V121z M1624.4,87.2H1593V55.8h31.4V87.2z
	 M1624.4,53.4H1593V22h31.4V53.4z M1624.4,19.6H1593v-31.4h31.4V19.6z M1658.2,1405.2h-31.4v-31.4h31.4V1405.2z M1658.2,1371.4
	h-31.4V1340h31.4V1371.4z M1658.2,1337.6h-31.4v-31.4h31.4V1337.6z M1658.2,1303.8h-31.4v-31.4h31.4V1303.8z M1658.2,1270h-31.4
	v-31.4h31.4V1270z M1658.2,1236.2h-31.4v-31.4h31.4V1236.2z M1658.2,1202.4h-31.4V1171h31.4V1202.4z M1658.2,1168.6h-31.4v-31.4
	h31.4V1168.6z M1658.2,1134.8h-31.4v-31.4h31.4V1134.8z M1658.2,1101h-31.4v-31.4h31.4V1101z M1658.2,1067.2h-31.4v-31.4h31.4
	V1067.2z M1658.2,1033.4h-31.4V1002h31.4V1033.4z M1658.2,999.6h-31.4v-31.4h31.4V999.6z M1658.2,965.8h-31.4v-31.4h31.4V965.8z
	 M1658.2,932.1h-31.4v-31.4h31.4V932.1z M1658.2,898.3h-31.4v-31.4h31.4V898.3z M1658.2,864.5h-31.4v-31.4h31.4V864.5z
	 M1658.2,830.7h-31.4v-31.4h31.4V830.7z M1658.2,796.9h-31.4v-31.4h31.4V796.9z M1658.2,763.1h-31.4v-31.4h31.4V763.1z
	 M1658.2,729.3h-31.4v-31.4h31.4V729.3z M1658.2,695.5h-31.4v-31.4h31.4V695.5z M1658.2,661.7h-31.4v-31.4h31.4V661.7z
	 M1658.2,627.9h-31.4v-31.4h31.4V627.9z M1658.2,594.1h-31.4v-31.4h31.4V594.1z M1658.2,560.3h-31.4v-31.4h31.4V560.3z
	 M1658.2,526.5h-31.4v-31.4h31.4V526.5z M1658.2,492.7h-31.4v-31.4h31.4V492.7z M1658.2,458.9h-31.4v-31.4h31.4V458.9z
	 M1658.2,425.1h-31.4v-31.4h31.4V425.1z M1658.2,391.3h-31.4v-31.4h31.4V391.3z M1658.2,357.6h-31.4v-31.4h31.4V357.6z
	 M1658.2,323.8h-31.4v-31.4h31.4V323.8z M1658.2,290h-31.4v-31.4h31.4V290z M1658.2,256.2h-31.4v-31.4h31.4V256.2z M1658.2,222.4
	h-31.4V191h31.4V222.4z M1658.2,188.6h-31.4v-31.4h31.4V188.6z M1658.2,154.8h-31.4v-31.4h31.4V154.8z M1658.2,121h-31.4V89.6h31.4
	V121z M1658.2,87.2h-31.4V55.8h31.4V87.2z M1658.2,53.4h-31.4V22h31.4V53.4z M1658.2,19.6h-31.4v-31.4h31.4V19.6z M1692,1405.2
	h-31.4v-31.4h31.4V1405.2z M1692,1371.4h-31.4V1340h31.4V1371.4z M1692,1337.6h-31.4v-31.4h31.4V1337.6z M1692,1303.8h-31.4v-31.4
	h31.4V1303.8z M1692,1270h-31.4v-31.4h31.4V1270z M1692,1236.2h-31.4v-31.4h31.4V1236.2z M1692,1202.4h-31.4V1171h31.4V1202.4z
	 M1692,1168.6h-31.4v-31.4h31.4V1168.6z M1692,1134.8h-31.4v-31.4h31.4V1134.8z M1692,1101h-31.4v-31.4h31.4V1101z M1692,1067.2
	h-31.4v-31.4h31.4V1067.2z M1692,1033.4h-31.4V1002h31.4V1033.4z M1692,999.6h-31.4v-31.4h31.4V999.6z M1692,965.8h-31.4v-31.4h31.4
	V965.8z M1692,932.1h-31.4v-31.4h31.4V932.1z M1692,898.3h-31.4v-31.4h31.4V898.3z M1692,864.5h-31.4v-31.4h31.4V864.5z M1692,830.7
	h-31.4v-31.4h31.4V830.7z M1692,796.9h-31.4v-31.4h31.4V796.9z M1692,763.1h-31.4v-31.4h31.4V763.1z M1692,729.3h-31.4v-31.4h31.4
	V729.3z M1692,695.5h-31.4v-31.4h31.4V695.5z M1692,661.7h-31.4v-31.4h31.4V661.7z M1692,627.9h-31.4v-31.4h31.4V627.9z M1692,594.1
	h-31.4v-31.4h31.4V594.1z M1692,560.3h-31.4v-31.4h31.4V560.3z M1692,526.5h-31.4v-31.4h31.4V526.5z M1692,492.7h-31.4v-31.4h31.4
	V492.7z M1692,458.9h-31.4v-31.4h31.4V458.9z M1692,425.1h-31.4v-31.4h31.4V425.1z M1692,391.3h-31.4v-31.4h31.4V391.3z M1692,357.6
	h-31.4v-31.4h31.4V357.6z M1692,323.8h-31.4v-31.4h31.4V323.8z M1692,290h-31.4v-31.4h31.4V290z M1692,256.2h-31.4v-31.4h31.4V256.2
	z M1692,222.4h-31.4V191h31.4V222.4z M1692,188.6h-31.4v-31.4h31.4V188.6z M1692,154.8h-31.4v-31.4h31.4V154.8z M1692,121h-31.4
	V89.6h31.4V121z M1692,87.2h-31.4V55.8h31.4V87.2z M1692,53.4h-31.4V22h31.4V53.4z M1692,19.6h-31.4v-31.4h31.4V19.6z
	 M1725.8,1405.2h-31.4v-31.4h31.4V1405.2z M1725.8,1371.4h-31.4V1340h31.4V1371.4z M1725.8,1337.6h-31.4v-31.4h31.4V1337.6z
	 M1725.8,1303.8h-31.4v-31.4h31.4V1303.8z M1725.8,1270h-31.4v-31.4h31.4V1270z M1725.8,1236.2h-31.4v-31.4h31.4V1236.2z
	 M1725.8,1202.4h-31.4V1171h31.4V1202.4z M1725.8,1168.6h-31.4v-31.4h31.4V1168.6z M1725.8,1134.8h-31.4v-31.4h31.4V1134.8z
	 M1725.8,1101h-31.4v-31.4h31.4V1101z M1725.8,1067.2h-31.4v-31.4h31.4V1067.2z M1725.8,1033.4h-31.4V1002h31.4V1033.4z
	 M1725.8,999.6h-31.4v-31.4h31.4V999.6z M1725.8,965.8h-31.4v-31.4h31.4V965.8z M1725.8,932.1h-31.4v-31.4h31.4V932.1z
	 M1725.8,898.3h-31.4v-31.4h31.4V898.3z M1725.8,864.5h-31.4v-31.4h31.4V864.5z M1725.8,830.7h-31.4v-31.4h31.4V830.7z
	 M1725.8,796.9h-31.4v-31.4h31.4V796.9z M1725.8,763.1h-31.4v-31.4h31.4V763.1z M1725.8,729.3h-31.4v-31.4h31.4V729.3z
	 M1725.8,695.5h-31.4v-31.4h31.4V695.5z M1725.8,661.7h-31.4v-31.4h31.4V661.7z M1725.8,627.9h-31.4v-31.4h31.4V627.9z
	 M1725.8,594.1h-31.4v-31.4h31.4V594.1z M1725.8,560.3h-31.4v-31.4h31.4V560.3z M1725.8,526.5h-31.4v-31.4h31.4V526.5z
	 M1725.8,492.7h-31.4v-31.4h31.4V492.7z M1725.8,458.9h-31.4v-31.4h31.4V458.9z M1725.8,425.1h-31.4v-31.4h31.4V425.1z
	 M1725.8,391.3h-31.4v-31.4h31.4V391.3z M1725.8,357.6h-31.4v-31.4h31.4V357.6z M1725.8,323.8h-31.4v-31.4h31.4V323.8z M1725.8,290
	h-31.4v-31.4h31.4V290z M1725.8,256.2h-31.4v-31.4h31.4V256.2z M1725.8,222.4h-31.4V191h31.4V222.4z M1725.8,188.6h-31.4v-31.4h31.4
	V188.6z M1725.8,154.8h-31.4v-31.4h31.4V154.8z M1725.8,121h-31.4V89.6h31.4V121z M1725.8,87.2h-31.4V55.8h31.4V87.2z M1725.8,53.4
	h-31.4V22h31.4V53.4z M1725.8,19.6h-31.4v-31.4h31.4V19.6z M1759.6,1405.2h-31.4v-31.4h31.4V1405.2z M1759.6,1371.4h-31.4V1340h31.4
	V1371.4z M1759.6,1337.6h-31.4v-31.4h31.4V1337.6z M1759.6,1303.8h-31.4v-31.4h31.4V1303.8z M1759.6,1270h-31.4v-31.4h31.4V1270z
	 M1759.6,1236.2h-31.4v-31.4h31.4V1236.2z M1759.6,1202.4h-31.4V1171h31.4V1202.4z M1759.6,1168.6h-31.4v-31.4h31.4V1168.6z
	 M1759.6,1134.8h-31.4v-31.4h31.4V1134.8z M1759.6,1101h-31.4v-31.4h31.4V1101z M1759.6,1067.2h-31.4v-31.4h31.4V1067.2z
	 M1759.6,1033.4h-31.4V1002h31.4V1033.4z M1759.6,999.6h-31.4v-31.4h31.4V999.6z M1759.6,965.8h-31.4v-31.4h31.4V965.8z
	 M1759.6,932.1h-31.4v-31.4h31.4V932.1z M1759.6,898.3h-31.4v-31.4h31.4V898.3z M1759.6,864.5h-31.4v-31.4h31.4V864.5z
	 M1759.6,830.7h-31.4v-31.4h31.4V830.7z M1759.6,796.9h-31.4v-31.4h31.4V796.9z M1759.6,763.1h-31.4v-31.4h31.4V763.1z
	 M1759.6,729.3h-31.4v-31.4h31.4V729.3z M1759.6,695.5h-31.4v-31.4h31.4V695.5z M1759.6,661.7h-31.4v-31.4h31.4V661.7z
	 M1759.6,627.9h-31.4v-31.4h31.4V627.9z M1759.6,594.1h-31.4v-31.4h31.4V594.1z M1759.6,560.3h-31.4v-31.4h31.4V560.3z
	 M1759.6,526.5h-31.4v-31.4h31.4V526.5z M1759.6,492.7h-31.4v-31.4h31.4V492.7z M1759.6,458.9h-31.4v-31.4h31.4V458.9z
	 M1759.6,425.1h-31.4v-31.4h31.4V425.1z M1759.6,391.3h-31.4v-31.4h31.4V391.3z M1759.6,357.6h-31.4v-31.4h31.4V357.6z
	 M1759.6,323.8h-31.4v-31.4h31.4V323.8z M1759.6,290h-31.4v-31.4h31.4V290z M1759.6,256.2h-31.4v-31.4h31.4V256.2z M1759.6,222.4
	h-31.4V191h31.4V222.4z M1759.6,188.6h-31.4v-31.4h31.4V188.6z M1759.6,154.8h-31.4v-31.4h31.4V154.8z M1759.6,121h-31.4V89.6h31.4
	V121z M1759.6,87.2h-31.4V55.8h31.4V87.2z M1759.6,53.4h-31.4V22h31.4V53.4z M1759.6,19.6h-31.4v-31.4h31.4V19.6z M1793.4,1405.2
	H1762v-31.4h31.4V1405.2z M1793.4,1371.4H1762V1340h31.4V1371.4z M1793.4,1337.6H1762v-31.4h31.4V1337.6z M1793.4,1303.8H1762v-31.4
	h31.4V1303.8z M1793.4,1270H1762v-31.4h31.4V1270z M1793.4,1236.2H1762v-31.4h31.4V1236.2z M1793.4,1202.4H1762V1171h31.4V1202.4z
	 M1793.4,1168.6H1762v-31.4h31.4V1168.6z M1793.4,1134.8H1762v-31.4h31.4V1134.8z M1793.4,1101H1762v-31.4h31.4V1101z
	 M1793.4,1067.2H1762v-31.4h31.4V1067.2z M1793.4,1033.4H1762V1002h31.4V1033.4z M1793.4,999.6H1762v-31.4h31.4V999.6z
	 M1793.4,965.8H1762v-31.4h31.4V965.8z M1793.4,932.1H1762v-31.4h31.4V932.1z M1793.4,898.3H1762v-31.4h31.4V898.3z M1793.4,864.5
	H1762v-31.4h31.4V864.5z M1793.4,830.7H1762v-31.4h31.4V830.7z M1793.4,796.9H1762v-31.4h31.4V796.9z M1793.4,763.1H1762v-31.4h31.4
	V763.1z M1793.4,729.3H1762v-31.4h31.4V729.3z M1793.4,695.5H1762v-31.4h31.4V695.5z M1793.4,661.7H1762v-31.4h31.4V661.7z
	 M1793.4,627.9H1762v-31.4h31.4V627.9z M1793.4,594.1H1762v-31.4h31.4V594.1z M1793.4,560.3H1762v-31.4h31.4V560.3z M1793.4,526.5
	H1762v-31.4h31.4V526.5z M1793.4,492.7H1762v-31.4h31.4V492.7z M1793.4,458.9H1762v-31.4h31.4V458.9z M1793.4,425.1H1762v-31.4h31.4
	V425.1z M1793.4,391.3H1762v-31.4h31.4V391.3z M1793.4,357.6H1762v-31.4h31.4V357.6z M1793.4,323.8H1762v-31.4h31.4V323.8z
	 M1793.4,290H1762v-31.4h31.4V290z M1793.4,256.2H1762v-31.4h31.4V256.2z M1793.4,222.4H1762V191h31.4V222.4z M1793.4,188.6H1762
	v-31.4h31.4V188.6z M1793.4,154.8H1762v-31.4h31.4V154.8z M1793.4,121H1762V89.6h31.4V121z M1793.4,87.2H1762V55.8h31.4V87.2z
	 M1793.4,53.4H1762V22h31.4V53.4z M1793.4,19.6H1762v-31.4h31.4V19.6z M1827.2,1405.2h-31.4v-31.4h31.4V1405.2z M1827.2,1371.4
	h-31.4V1340h31.4V1371.4z M1827.2,1337.6h-31.4v-31.4h31.4V1337.6z M1827.2,1303.8h-31.4v-31.4h31.4V1303.8z M1827.2,1270h-31.4
	v-31.4h31.4V1270z M1827.2,1236.2h-31.4v-31.4h31.4V1236.2z M1827.2,1202.4h-31.4V1171h31.4V1202.4z M1827.2,1168.6h-31.4v-31.4
	h31.4V1168.6z M1827.2,1134.8h-31.4v-31.4h31.4V1134.8z M1827.2,1101h-31.4v-31.4h31.4V1101z M1827.2,1067.2h-31.4v-31.4h31.4
	V1067.2z M1827.2,1033.4h-31.4V1002h31.4V1033.4z M1827.2,999.6h-31.4v-31.4h31.4V999.6z M1827.2,965.8h-31.4v-31.4h31.4V965.8z
	 M1827.2,932.1h-31.4v-31.4h31.4V932.1z M1827.2,898.3h-31.4v-31.4h31.4V898.3z M1827.2,864.5h-31.4v-31.4h31.4V864.5z
	 M1827.2,830.7h-31.4v-31.4h31.4V830.7z M1827.2,796.9h-31.4v-31.4h31.4V796.9z M1827.2,763.1h-31.4v-31.4h31.4V763.1z
	 M1827.2,729.3h-31.4v-31.4h31.4V729.3z M1827.2,695.5h-31.4v-31.4h31.4V695.5z M1827.2,661.7h-31.4v-31.4h31.4V661.7z
	 M1827.2,627.9h-31.4v-31.4h31.4V627.9z M1827.2,594.1h-31.4v-31.4h31.4V594.1z M1827.2,560.3h-31.4v-31.4h31.4V560.3z
	 M1827.2,526.5h-31.4v-31.4h31.4V526.5z M1827.2,492.7h-31.4v-31.4h31.4V492.7z M1827.2,458.9h-31.4v-31.4h31.4V458.9z
	 M1827.2,425.1h-31.4v-31.4h31.4V425.1z M1827.2,391.3h-31.4v-31.4h31.4V391.3z M1827.2,357.6h-31.4v-31.4h31.4V357.6z
	 M1827.2,323.8h-31.4v-31.4h31.4V323.8z M1827.2,290h-31.4v-31.4h31.4V290z M1827.2,256.2h-31.4v-31.4h31.4V256.2z M1827.2,222.4
	h-31.4V191h31.4V222.4z M1827.2,188.6h-31.4v-31.4h31.4V188.6z M1827.2,154.8h-31.4v-31.4h31.4V154.8z M1827.2,121h-31.4V89.6h31.4
	V121z M1827.2,87.2h-31.4V55.8h31.4V87.2z M1827.2,53.4h-31.4V22h31.4V53.4z M1827.2,19.6h-31.4v-31.4h31.4V19.6z M1861,1405.2
	h-31.4v-31.4h31.4V1405.2z M1861,1371.4h-31.4V1340h31.4V1371.4z M1861,1337.6h-31.4v-31.4h31.4V1337.6z M1861,1303.8h-31.4v-31.4
	h31.4V1303.8z M1861,1270h-31.4v-31.4h31.4V1270z M1861,1236.2h-31.4v-31.4h31.4V1236.2z M1861,1202.4h-31.4V1171h31.4V1202.4z
	 M1861,1168.6h-31.4v-31.4h31.4V1168.6z M1861,1134.8h-31.4v-31.4h31.4V1134.8z M1861,1101h-31.4v-31.4h31.4V1101z M1861,1067.2
	h-31.4v-31.4h31.4V1067.2z M1861,1033.4h-31.4V1002h31.4V1033.4z M1861,999.6h-31.4v-31.4h31.4V999.6z M1861,965.8h-31.4v-31.4h31.4
	V965.8z M1861,932.1h-31.4v-31.4h31.4V932.1z M1861,898.3h-31.4v-31.4h31.4V898.3z M1861,864.5h-31.4v-31.4h31.4V864.5z M1861,830.7
	h-31.4v-31.4h31.4V830.7z M1861,796.9h-31.4v-31.4h31.4V796.9z M1861,763.1h-31.4v-31.4h31.4V763.1z M1861,729.3h-31.4v-31.4h31.4
	V729.3z M1861,695.5h-31.4v-31.4h31.4V695.5z M1861,661.7h-31.4v-31.4h31.4V661.7z M1861,627.9h-31.4v-31.4h31.4V627.9z M1861,594.1
	h-31.4v-31.4h31.4V594.1z M1861,560.3h-31.4v-31.4h31.4V560.3z M1861,526.5h-31.4v-31.4h31.4V526.5z M1861,492.7h-31.4v-31.4h31.4
	V492.7z M1861,458.9h-31.4v-31.4h31.4V458.9z M1861,425.1h-31.4v-31.4h31.4V425.1z M1861,391.3h-31.4v-31.4h31.4V391.3z M1861,357.6
	h-31.4v-31.4h31.4V357.6z M1861,323.8h-31.4v-31.4h31.4V323.8z M1861,290h-31.4v-31.4h31.4V290z M1861,256.2h-31.4v-31.4h31.4V256.2
	z M1861,222.4h-31.4V191h31.4V222.4z M1861,188.6h-31.4v-31.4h31.4V188.6z M1861,154.8h-31.4v-31.4h31.4V154.8z M1861,121h-31.4
	V89.6h31.4V121z M1861,87.2h-31.4V55.8h31.4V87.2z M1861,53.4h-31.4V22h31.4V53.4z M1861,19.6h-31.4v-31.4h31.4V19.6z
	 M1894.8,1405.2h-31.4v-31.4h31.4V1405.2z M1894.8,1371.4h-31.4V1340h31.4V1371.4z M1894.8,1337.6h-31.4v-31.4h31.4V1337.6z
	 M1894.8,1303.8h-31.4v-31.4h31.4V1303.8z M1894.8,1270h-31.4v-31.4h31.4V1270z M1894.8,1236.2h-31.4v-31.4h31.4V1236.2z
	 M1894.8,1202.4h-31.4V1171h31.4V1202.4z M1894.8,1168.6h-31.4v-31.4h31.4V1168.6z M1894.8,1134.8h-31.4v-31.4h31.4V1134.8z
	 M1894.8,1101h-31.4v-31.4h31.4V1101z M1894.8,1067.2h-31.4v-31.4h31.4V1067.2z M1894.8,1033.4h-31.4V1002h31.4V1033.4z
	 M1894.8,999.6h-31.4v-31.4h31.4V999.6z M1894.8,965.8h-31.4v-31.4h31.4V965.8z M1894.8,932.1h-31.4v-31.4h31.4V932.1z
	 M1894.8,898.3h-31.4v-31.4h31.4V898.3z M1894.8,864.5h-31.4v-31.4h31.4V864.5z M1894.8,830.7h-31.4v-31.4h31.4V830.7z
	 M1894.8,796.9h-31.4v-31.4h31.4V796.9z M1894.8,763.1h-31.4v-31.4h31.4V763.1z M1894.8,729.3h-31.4v-31.4h31.4V729.3z
	 M1894.8,695.5h-31.4v-31.4h31.4V695.5z M1894.8,661.7h-31.4v-31.4h31.4V661.7z M1894.8,627.9h-31.4v-31.4h31.4V627.9z
	 M1894.8,594.1h-31.4v-31.4h31.4V594.1z M1894.8,560.3h-31.4v-31.4h31.4V560.3z M1894.8,526.5h-31.4v-31.4h31.4V526.5z
	 M1894.8,492.7h-31.4v-31.4h31.4V492.7z M1894.8,458.9h-31.4v-31.4h31.4V458.9z M1894.8,425.1h-31.4v-31.4h31.4V425.1z
	 M1894.8,391.3h-31.4v-31.4h31.4V391.3z M1894.8,357.6h-31.4v-31.4h31.4V357.6z M1894.8,323.8h-31.4v-31.4h31.4V323.8z M1894.8,290
	h-31.4v-31.4h31.4V290z M1894.8,256.2h-31.4v-31.4h31.4V256.2z M1894.8,222.4h-31.4V191h31.4V222.4z M1894.8,188.6h-31.4v-31.4h31.4
	V188.6z M1894.8,154.8h-31.4v-31.4h31.4V154.8z M1894.8,121h-31.4V89.6h31.4V121z M1894.8,87.2h-31.4V55.8h31.4V87.2z M1894.8,53.4
	h-31.4V22h31.4V53.4z M1894.8,19.6h-31.4v-31.4h31.4V19.6z M1928.6,1405.2h-31.4v-31.4h31.4V1405.2z M1928.6,1371.4h-31.4V1340h31.4
	V1371.4z M1928.6,1337.6h-31.4v-31.4h31.4V1337.6z M1928.6,1303.8h-31.4v-31.4h31.4V1303.8z M1928.6,1270h-31.4v-31.4h31.4V1270z
	 M1928.6,1236.2h-31.4v-31.4h31.4V1236.2z M1928.6,1202.4h-31.4V1171h31.4V1202.4z M1928.6,1168.6h-31.4v-31.4h31.4V1168.6z
	 M1928.6,1134.8h-31.4v-31.4h31.4V1134.8z M1928.6,1101h-31.4v-31.4h31.4V1101z M1928.6,1067.2h-31.4v-31.4h31.4V1067.2z
	 M1928.6,1033.4h-31.4V1002h31.4V1033.4z M1928.6,999.6h-31.4v-31.4h31.4V999.6z M1928.6,965.8h-31.4v-31.4h31.4V965.8z
	 M1928.6,932.1h-31.4v-31.4h31.4V932.1z M1928.6,898.3h-31.4v-31.4h31.4V898.3z M1928.6,864.5h-31.4v-31.4h31.4V864.5z
	 M1928.6,830.7h-31.4v-31.4h31.4V830.7z M1928.6,796.9h-31.4v-31.4h31.4V796.9z M1928.6,763.1h-31.4v-31.4h31.4V763.1z
	 M1928.6,729.3h-31.4v-31.4h31.4V729.3z M1928.6,695.5h-31.4v-31.4h31.4V695.5z M1928.6,661.7h-31.4v-31.4h31.4V661.7z
	 M1928.6,627.9h-31.4v-31.4h31.4V627.9z M1928.6,594.1h-31.4v-31.4h31.4V594.1z M1928.6,560.3h-31.4v-31.4h31.4V560.3z
	 M1928.6,526.5h-31.4v-31.4h31.4V526.5z M1928.6,492.7h-31.4v-31.4h31.4V492.7z M1928.6,458.9h-31.4v-31.4h31.4V458.9z
	 M1928.6,425.1h-31.4v-31.4h31.4V425.1z M1928.6,391.3h-31.4v-31.4h31.4V391.3z M1928.6,357.6h-31.4v-31.4h31.4V357.6z
	 M1928.6,323.8h-31.4v-31.4h31.4V323.8z M1928.6,290h-31.4v-31.4h31.4V290z M1928.6,256.2h-31.4v-31.4h31.4V256.2z M1928.6,222.4
	h-31.4V191h31.4V222.4z M1928.6,188.6h-31.4v-31.4h31.4V188.6z M1928.6,154.8h-31.4v-31.4h31.4V154.8z M1928.6,121h-31.4V89.6h31.4
	V121z M1928.6,87.2h-31.4V55.8h31.4V87.2z M1928.6,53.4h-31.4V22h31.4V53.4z M1928.6,19.6h-31.4v-31.4h31.4V19.6z M1962.4,1405.2
	h-31.4v-31.4h31.4V1405.2z M1962.4,1371.4h-31.4V1340h31.4V1371.4z M1962.4,1337.6h-31.4v-31.4h31.4V1337.6z M1962.4,1303.8h-31.4
	v-31.4h31.4V1303.8z M1962.4,1270h-31.4v-31.4h31.4V1270z M1962.4,1236.2h-31.4v-31.4h31.4V1236.2z M1962.4,1202.4h-31.4V1171h31.4
	V1202.4z M1962.4,1168.6h-31.4v-31.4h31.4V1168.6z M1962.4,1134.8h-31.4v-31.4h31.4V1134.8z M1962.4,1101h-31.4v-31.4h31.4V1101z
	 M1962.4,1067.2h-31.4v-31.4h31.4V1067.2z M1962.4,1033.4h-31.4V1002h31.4V1033.4z M1962.4,999.6h-31.4v-31.4h31.4V999.6z
	 M1962.4,965.8h-31.4v-31.4h31.4V965.8z M1962.4,932.1h-31.4v-31.4h31.4V932.1z M1962.4,898.3h-31.4v-31.4h31.4V898.3z
	 M1962.4,864.5h-31.4v-31.4h31.4V864.5z M1962.4,830.7h-31.4v-31.4h31.4V830.7z M1962.4,796.9h-31.4v-31.4h31.4V796.9z
	 M1962.4,763.1h-31.4v-31.4h31.4V763.1z M1962.4,729.3h-31.4v-31.4h31.4V729.3z M1962.4,695.5h-31.4v-31.4h31.4V695.5z
	 M1962.4,661.7h-31.4v-31.4h31.4V661.7z M1962.4,627.9h-31.4v-31.4h31.4V627.9z M1962.4,594.1h-31.4v-31.4h31.4V594.1z
	 M1962.4,560.3h-31.4v-31.4h31.4V560.3z M1962.4,526.5h-31.4v-31.4h31.4V526.5z M1962.4,492.7h-31.4v-31.4h31.4V492.7z
	 M1962.4,458.9h-31.4v-31.4h31.4V458.9z M1962.4,425.1h-31.4v-31.4h31.4V425.1z M1962.4,391.3h-31.4v-31.4h31.4V391.3z
	 M1962.4,357.6h-31.4v-31.4h31.4V357.6z M1962.4,323.8h-31.4v-31.4h31.4V323.8z M1962.4,290h-31.4v-31.4h31.4V290z M1962.4,256.2
	h-31.4v-31.4h31.4V256.2z M1962.4,222.4h-31.4V191h31.4V222.4z M1962.4,188.6h-31.4v-31.4h31.4V188.6z M1962.4,154.8h-31.4v-31.4
	h31.4V154.8z M1962.4,121h-31.4V89.6h31.4V121z M1962.4,87.2h-31.4V55.8h31.4V87.2z M1962.4,53.4h-31.4V22h31.4V53.4z M1962.4,19.6
	h-31.4v-31.4h31.4V19.6z M1996.1,1405.2h-31.4v-31.4h31.4V1405.2z M1996.1,1371.4h-31.4V1340h31.4V1371.4z M1996.1,1337.6h-31.4
	v-31.4h31.4V1337.6z M1996.1,1303.8h-31.4v-31.4h31.4V1303.8z M1996.1,1270h-31.4v-31.4h31.4V1270z M1996.1,1236.2h-31.4v-31.4h31.4
	V1236.2z M1996.1,1202.4h-31.4V1171h31.4V1202.4z M1996.1,1168.6h-31.4v-31.4h31.4V1168.6z M1996.1,1134.8h-31.4v-31.4h31.4V1134.8z
	 M1996.1,1101h-31.4v-31.4h31.4V1101z M1996.1,1067.2h-31.4v-31.4h31.4V1067.2z M1996.1,1033.4h-31.4V1002h31.4V1033.4z
	 M1996.1,999.6h-31.4v-31.4h31.4V999.6z M1996.1,965.8h-31.4v-31.4h31.4V965.8z M1996.1,932.1h-31.4v-31.4h31.4V932.1z
	 M1996.1,898.3h-31.4v-31.4h31.4V898.3z M1996.1,864.5h-31.4v-31.4h31.4V864.5z M1996.1,830.7h-31.4v-31.4h31.4V830.7z
	 M1996.1,796.9h-31.4v-31.4h31.4V796.9z M1996.1,763.1h-31.4v-31.4h31.4V763.1z M1996.1,729.3h-31.4v-31.4h31.4V729.3z
	 M1996.1,695.5h-31.4v-31.4h31.4V695.5z M1996.1,661.7h-31.4v-31.4h31.4V661.7z M1996.1,627.9h-31.4v-31.4h31.4V627.9z
	 M1996.1,594.1h-31.4v-31.4h31.4V594.1z M1996.1,560.3h-31.4v-31.4h31.4V560.3z M1996.1,526.5h-31.4v-31.4h31.4V526.5z
	 M1996.1,492.7h-31.4v-31.4h31.4V492.7z M1996.1,458.9h-31.4v-31.4h31.4V458.9z M1996.1,425.1h-31.4v-31.4h31.4V425.1z
	 M1996.1,391.3h-31.4v-31.4h31.4V391.3z M1996.1,357.6h-31.4v-31.4h31.4V357.6z M1996.1,323.8h-31.4v-31.4h31.4V323.8z M1996.1,290
	h-31.4v-31.4h31.4V290z M1996.1,256.2h-31.4v-31.4h31.4V256.2z M1996.1,222.4h-31.4V191h31.4V222.4z M1996.1,188.6h-31.4v-31.4h31.4
	V188.6z M1996.1,154.8h-31.4v-31.4h31.4V154.8z M1996.1,121h-31.4V89.6h31.4V121z M1996.1,87.2h-31.4V55.8h31.4V87.2z M1996.1,53.4
	h-31.4V22h31.4V53.4z M1996.1,19.6h-31.4v-31.4h31.4V19.6z"/>
<image overflow="visible" width="500" height="548" xlink:href="../../Downloads/Yeoman (1).png"  transform="matrix(-1.1123 0 0 1.1123 2000 53.8918)">
</image>
</svg>
